{
.appVersion = "3516";
.formatVersion = 3;
axes = (
{
name = Weight;
tag = wght;
}
);
classes = (
{
code = "A Aacute Abreve Abreveacute Abrevedotbelow Abrevegrave Abrevehookabove Abrevetilde Acaron Acircumflex Acircumflexacute Acircumflexdotbelow Acircumflexgrave Acircumflexhookabove Acircumflextilde Adblgrave Adieresis Adieresismacron Adotbelow Agrave Ahookabove Ainvertedbreve Amacron Aogonek Aring Aringacute Atilde AE AEacute";
name = Adiacritics;
},
{
code = "Y Yacute Ycircumflex Ydieresis Ydotaccent Ydotbelow Ygrave Yhookabove Ymacron Ytilde ";
name = Ydiacritics;
},
{
automatic = 1;

glyphs = (
{
glyphname = A;
kernLeft = KO_A;
kernRight = KO_A;
lastChange = "2025-01-20 07:45:44 +0000";
layers = (
{
anchors = (
{
name = bottom;
pos = (270,0);
},
{
name = ogonek;
pos = (508,0);
},
{
name = top;
pos = (270,675);
}
);
layerId = "5997FD7B-85B3-4973-BC7D-5D24E7B00D9D";
shapes = (
{
closed = 1;
nodes = (
(58,0,l),
(252,621,l),
(262,661,ls),
(265,673,o),
(278,672,o),
(280,661,c),
(290,621,l),
(483,0,l),
(508,0,l),
(290,700,l),
(252,700,l),
(33,0,l)
);
},
{
closed = 1;
nodes = (
(431,214,l),
(422,236,l),
(119,236,l),
(108,214,l)
);
},
{
closed = 1;
nodes = (
(258,678,l),
(264,700,l),
(130,700,l),
(130,678,l)
);
}
);
width = 528;
},
{
anchors = (
{
name = bottom;
pos = (294,0);
},
{
name = ogonek;
pos = (564,0);
},
{
name = top;
pos = (294,687);
}
);
layerId = "0D76174C-E7DB-4B5D-B958-B4B8505ED925";
shapes = (
{
closed = 1;
nodes = (
(145,0,l),
(281,543,l),
(290,600,ls),
(292,610,o),
(304,610,o),
(305,600,cs),
(312,543,l),
(449,0,l),
(564,0,l),
(376,700,l),
(216,700,l),
(30,0,l)
);
},
{
closed = 1;
nodes = (
(428,177,l),
(403,273,l),
(190,273,l),
(166,177,l)
);
},
{
closed = 1;
nodes = (
(230,604,l),
(238,700,l),
(106,700,l),
(106,604,l)
);
}
);
width = 586;
},
{
anchors = (
{
name = bottom;
pos = (320,0);
},
{
name = ogonek;
pos = (619,0);
},
{
name = top;
pos = (320,700);
}
);
background = {
shapes = (
{
closed = 1;
nodes = (
(204,0,l),
(309,497,l),
(316,560,ls),
(317,572,o),
(333,572,o),
(334,560,cs),
(341,497,l),
(446,0,l),
(605,0,l),
(435,700,l),
(215,700,l),
(45,0,l)
);
},
{
closed = 1;
nodes = (
(428,162,l),
(398,292,l),
(251,292,l),
(222,162,l)
);
},
{
closed = 1;
nodes = (
(210,570,l),
(230,700,l),
(110,700,l),
(110,570,l)
);
}
);
};
layerId = "69BA87E8-A4A5-4412-BDDB-89C34BF38660";
shapes = (
{
closed = 1;
nodes = (
(238,0,l),
(308,453,l),
(314,522,ls),
(315,537,o),
(334,537,o),
(335,522,cs),
(341,453,l),
(411,0,l),
(619,0,l),
(469,700,l),
(182,700,l),
(30,0,l)
);
},
{
closed = 1;
nodes = (
(396,153,l),
(371,313,l),
(277,313,l),
(253,153,l)
);
},
{
closed = 1;
nodes = (
(166,532,l),
(203,700,l),
(83,700,l),
(83,532,l)
);
}
);
width = 639.33333;
}
);
metricRight = V;
unicode = 65;
userData = {
KernOnName = A;
com.schriftgestaltung.Glyphs.ColorIndex = 3;
com.schriftgestaltung.Glyphs.layer.rightMetricsKey = "==V";
com.schriftgestaltung.Glyphs.rightMetricsKey = V;
};
},
{
color = 9;
glyphname = A.ss01;
kernRight = KO_A;
lastChange = "2025-01-19 15:33:47 +0000";
layers = (
{
anchors = (
{
name = bottom;
pos = (273,0);
},
{
name = ogonek;
pos = (508,0);
},
{
name = top;
pos = (273,675);
}
);
layerId = "5997FD7B-85B3-4973-BC7D-5D24E7B00D9D";
shapes = (
{
closed = 1;
nodes = (
(58,0,l),
(259,623,l),
(265,659,ls),
(267,668,o),
(275,669,o),
(277,659,cs),
(283,623,l),
(483,0,l),
(508,0,l),
(283,700,l),
(259,700,l),
(33,0,l)
);
},
{
closed = 1;
nodes = (
(425,211,l),
(425,233,l),
(118,233,l),
(118,211,l)
);
}
);
width = 528;
},
{
anchors = (
{
name = bottom;
pos = (298,0);
},
{
name = ogonek;
pos = (564,0);
},
{
name = top;
pos = (298,687);
}
);
layerId = "0D76174C-E7DB-4B5D-B958-B4B8505ED925";
shapes = (
{
closed = 1;
nodes = (
(145,0,l),
(281,539,l),
(290,601,l),
(291,611,o),
(304,611,o),
(305,601,cs),
(312,539,l),
(449,0,l),
(564,0,l),
(379,700,l),
(214,700,l),
(30,0,l)
);
},
{
closed = 1;
nodes = (
(409,177,l),
(409,273,l),
(185,273,l),
(185,177,l)
);
}
);
width = 586;
},
{
anchors = (
{
name = bottom;
pos = (324,0);
},
{
name = ogonek;
pos = (619,0);
},
{
name = top;
pos = (324,700);
}
);
layerId = "69BA87E8-A4A5-4412-BDDB-89C34BF38660";
shapes = (
{
closed = 1;
nodes = (
(238,0,l),
(308,429,l),
(314,520,l),
(315,533,o),
(334,533,o),
(335,520,cs),
(341,429,l),
(411,0,l),
(619,0,l),
(466,700,l),
(184,700,l),
(30,0,l)
);
},
{
closed = 1;
nodes = (
(404,153,l),
(368,313,l),
(279,313,l),
(245,153,l)
);
}
);
width = 639.33333;
}
);
},
{
glyphname = AE;
kernLeft = KO_A;
kernRight = KO_E;
lastChange = "2025-01-19 17:48:57 +0000";
layers = (
{
anchors = (
{
name = bottom;
pos = (425,0);
},
{
name = top;
pos = (425,675);
}
);
layerId = "5997FD7B-85B3-4973-BC7D-5D24E7B00D9D";
shapes = (
{
closed = 1;
nodes = (
(56,0,l),
(123,214,l),
(393,214,l),
(393,0,l),
(774,0,l),
(774,22,l),
(417,22,l),
(417,339,l),
(757,339,l),
(757,361,l),
(417,361,l),
(417,678,l),
(774,678,l),
(774,700,l),
(140,700,l),
(140,678,l),
(245,678,l),
(33,0,l)
);
},
{
closed = 1;
nodes = (
(269,678,l),
(393,678,l),
(393,236,l),
(130,236,l)
);
}
);
width = 842;
},
{
anchors = (
{
name = bottom;
pos = (429,0);
},
{
name = top;
pos = (429,687);
}
);
layerId = "0D76174C-E7DB-4B5D-B958-B4B8505ED925";
shapes = (
{
closed = 1;
nodes = (
(145,0,l),
(189,177,l),
(388,177,l),
(388,0,l),
(801,0,l),
(801,103,l),
(492,103,l),
(492,301,l),
(784,301,l),
(784,399,l),
(492,399,l),
(492,599,l),
(801,599,l),
(801,700,l),
(106,700,l),
(106,599,l),
(190,599,l),
(30,0,l)
);
},
{
closed = 1;
nodes = (
(295,599,l),
(388,599,l),
(388,273,l),
(213,273,l)
);
}
);
width = 857.4;
},
{
anchors = (
{
name = bottom;
pos = (435,0);
},
{
name = top;
pos = (435,700);
}
);
layerId = "69BA87E8-A4A5-4412-BDDB-89C34BF38660";
shapes = (
{
closed = 1;
nodes = (
(238,0,l),
(261,153,l),
(394,153,l),
(394,0,l),
(863,0,l),
(863,180,l),
(604,180,l),
(604,270,l),
(846,270,l),
(846,430,l),
(604,430,l),
(604,520,l),
(863,520,l),
(863,700,l),
(83,700,l),
(83,532,l),
(146,532,l),
(30,0,l)
);
},
{
closed = 1;
nodes = (
(319,532,l),
(394,532,l),
(394,313,l),
(286,313,l)
);
}
);
width = 906;
}
);
metricLeft = A;
metricRight = E;
unicode = 198;
userData = {
com.schriftgestaltung.Glyphs.leftMetricsKey = A;
com.schriftgestaltung.Glyphs.rightMetricsKey = E;
};
},
{
color = 9;
glyphname = AE.ss01;
kernRight = KO_E;
lastChange = "2025-01-19 15:33:47 +0000";
layers = (
{
anchors = (
{
name = bottom;
pos = (425,0);
},
{
name = top;
pos = (425,675);
}
);
layerId = "5997FD7B-85B3-4973-BC7D-5D24E7B00D9D";
shapes = (
{
closed = 1;
nodes = (
(56,0,l),
(123,214,l),
(393,214,l),
(393,0,l),
(774,0,l),
(774,22,l),
(417,22,l),
(417,339,l),
(757,339,l),
(757,361,l),
(417,361,l),
(417,678,l),
(774,678,l),
(774,700,l),
(252,700,l),
(33,0,l)
);
},
{
closed = 1;
nodes = (
(269,678,l),
(393,678,l),
(393,236,l),
(130,236,l)
);
}
);
width = 842;
},
{
anchors = (
{
name = bottom;
pos = (429,0);
},
{
name = top;
pos = (429,687);
}
);
layerId = "0D76174C-E7DB-4B5D-B958-B4B8505ED925";
shapes = (
{
closed = 1;
nodes = (
(145,0,l),
(189,177,l),
(388,177,l),
(388,0,l),
(801,0,l),
(801,103,l),
(492,103,l),
(492,301,l),
(784,301,l),
(784,399,l),
(492,399,l),
(492,599,l),
(801,599,l),
(801,700,l),
(216,700,l),
(30,0,l)
);
},
{
closed = 1;
nodes = (
(295,599,l),
(388,599,l),
(388,273,l),
(213,273,l)
);
}
);
width = 857.4;
},
{
anchors = (
{
name = bottom;
pos = (435,0);
},
{
name = top;
pos = (435,700);
}
);
layerId = "69BA87E8-A4A5-4412-BDDB-89C34BF38660";
shapes = (
{
closed = 1;
nodes = (
(238,0,l),
(261,153,l),
(394,153,l),
(394,0,l),
(863,0,l),
(863,180,l),
(604,180,l),
(604,270,l),
(846,270,l),
(846,430,l),
(604,430,l),
(604,520,l),
(863,520,l),
(863,700,l),
(183,700,l),
(30,0,l)
);
},
{
closed = 1;
nodes = (
(319,532,l),
(394,532,l),
(394,313,l),
(286,313,l)
);
}
);
width = 906;
}
);
},
{
glyphname = B;
kernLeft = KO_H;
kernRight = KO_B;
lastChange = "2025-01-20 07:45:44 +0000";
layers = (
{
anchors = (
{
name = bottom;
pos = (270,0);
},
{
name = center;
pos = (118,181);
},
{
name = top;
pos = (270,675);
}
);
layerId = "5997FD7B-85B3-4973-BC7D-5D24E7B00D9D";
shapes = (
{
closed = 1;
nodes = (
(307,0,ls),
(419,0,o),
(491,67,o),
(491,181,cs),
(491,259,o),
(452,329,o),
(369,352,c),
(439,368,o),
(481,431,o),
(481,517,cs),
(481,631,o),
(419,700,o),
(307,700,cs),
(105,700,l),
(105,0,l)
);
},
{
closed = 1;
nodes = (
(129,341,l),
(307,341,ls),
(399,341,o),
(467,280,o),
(467,181,cs),
(467,82,o),
(406,22,o),
(307,22,cs),
(129,22,l)
);
},
{
closed = 1;
nodes = (
(129,678,l),
(307,678,ls),
(405,678,o),
(457,617,o),
(457,517,cs),
(457,419,o),
(405,363,o),
(307,363,cs),
(129,363,l)
);
}
);
width = 559;
},
{
anchors = (
{
name = bottom;
pos = (288,0);
},
{
name = center;
pos = (137,196);
},
{
name = top;
pos = (288,687);
}
);
layerId = "0D76174C-E7DB-4B5D-B958-B4B8505ED925";
shapes = (
{
closed = 1;
nodes = (
(316,0,ls),
(451,0,o),
(529,70,o),
(529,193,cs),
(529,274,o),
(488,335,o),
(420,358,c),
(478,385,o),
(513,438,o),
(513,510,cs),
(513,631,o),
(437,700,o),
(308,700,cs),
(82,700,l),
(82,0,l)
);
},
{
closed = 1;
nodes = (
(187,304,l),
(316,304,ls),
(385,304,o),
(424,262,o),
(424,196,cs),
(424,131,o),
(385,94,o),
(316,94,cs),
(187,94,l)
);
},
{
closed = 1;
nodes = (
(187,606,l),
(308,606,ls),
(372,606,o),
(408,568,o),
(408,504,cs),
(408,438,o),
(372,398,o),
(308,398,cs),
(187,398,l)
);
}
);
width = 588;
},
{
anchors = (
{
name = bottom;
pos = (315,0);
},
{
name = center;
pos = (147,221);
},
{
name = top;
pos = (315,700);
}
);
background = {
shapes = (
{
closed = 1;
nodes = (
(328,0,ls),
(470,0,o),
(551,72,o),
(551,198,cs),
(551,281,o),
(512,341,o),
(444,362,c),
(500,389,o),
(532,442,o),
(532,509,cs),
(532,631,o),
(450,700,o),
(308,700,cs),
(69,700,l),
(69,0,l)
);
},
{
closed = 1;
nodes = (
(214,285,l),
(328,285,ls),
(378,285,o),
(406,252,o),
(406,205,cs),
(406,156,o),
(378,130,o),
(328,130,cs),
(214,130,l)
);
},
{
closed = 1;
nodes = (
(214,570,l),
(308,570,ls),
(359,570,o),
(388,543,o),
(388,495,cs),
(388,448,o),
(359,415,o),
(308,415,cs),
(214,415,l)
);
}
);
};
layerId = "69BA87E8-A4A5-4412-BDDB-89C34BF38660";
shapes = (
{
closed = 1;
nodes = (
(354,0,ls),
(504,0,o),
(590,74,o),
(590,203,cs),
(590,289,o),
(553,348,o),
(484,367,c),
(539,394,o),
(568,446,o),
(568,508,cs),
(568,631,o),
(476,700,o),
(320,700,cs),
(56,700,l),
(56,0,l)
);
},
{
closed = 1;
nodes = (
(256,271,l),
(340,271,ls),
(377,271,o),
(398,250,o),
(398,221,cs),
(398,192,o),
(377,171,o),
(340,171,cs),
(256,170,l)
);
},
{
closed = 1;
nodes = (
(256,530,l),
(320,530,ls),
(357,530,o),
(378,509,o),
(378,480,cs),
(378,451,o),
(357,430,o),
(320,430,cs),
(256,430,l)
);
}
);
width = 621;
}
);
metricLeft = H;
unicode = 66;
userData = {
KernOnName = B;
com.schriftgestaltung.Glyphs.ColorIndex = 3;
com.schriftgestaltung.Glyphs.layer.leftMetricsKey = "==H";
com.schriftgestaltung.Glyphs.leftMetricsKey = H;
};
},
{
glyphname = Bstroke;
lastChange = "2026-03-11 15:22:44 +0000";
layers = (
{
layerId = "5997FD7B-85B3-4973-BC7D-5D24E7B00D9D";
shapes = (
{
pos = (29,0);
ref = B;
},
{
closed = 1;
nodes = (
(272,170,l),
(272,192,l),
(20,192,l),
(20,170,l)
);
}
);
width = 588;
},
{
layerId = "0D76174C-E7DB-4B5D-B958-B4B8505ED925";
shapes = (
{
pos = (42,0);
ref = B;
},
{
closed = 1;
nodes = (
(334,151,l),
(334,241,l),
(23,241,l),
(23,151,l)
);
}
);
width = 630;
},
{
layerId = "69BA87E8-A4A5-4412-BDDB-89C34BF38660";
shapes = (
{
pos = (59,0);
ref = B;
},
{
closed = 1;
nodes = (
(363,187,l),
(363,251,l),
(20,251,l),
(20,187,l)
);
}
);
width = 680;
}
);
metricLeft = t;
metricRight = B;
unicode = 579;
},
{
glyphname = C;
kernLeft = KO_O;
kernRight = KO_C;
lastChange = "2026-03-11 15:22:44 +0000";
layers = (
{
anchors = (
{
name = bottom;
pos = (306,0);
},
{
name = top;
pos = (292,675);
}
);
background = {
anchors = (
{
name = bottom;
pos = (297,0);
},
{
name = center;
pos = (297,350);
},
{
name = ogonek;
pos = (372,0);
},
{
name = top;
pos = (297,675);
},
{
name = topleft;
pos = (20,700);
},
{
name = topright;
pos = (403,700);
}
);
shapes = (
{
closed = 1;
nodes = (
(408,-12,o),
(471,30,o),
(506,98,cs),
(539,163,o),
(546,251,o),
(546,350,cs),
(546,449,o),
(539,537,o),
(506,602,cs),
(471,670,o),
(408,712,o),
(303,712,cs),
(198,712,o),
(135,670,o),
(100,602,cs),
(67,537,o),
(60,449,o),
(60,350,cs),
(60,251,o),
(67,163,o),
(100,98,cs),
(135,30,o),
(198,-12,o),
(303,-12,cs)
);
},
{
closed = 1;
nodes = (
(210,9,o),
(150,51,o),
(121,109,cs),
(87,175,o),
(84,284,o),
(84,350,cs),
(84,416,o),
(87,525,o),
(121,591,cs),
(150,649,o),
(210,691,o),
(303,691,cs),
(396,691,o),
(456,649,o),
(485,591,cs),
(519,525,o),
(520,416,o),
(522,350,cs),
(524,284,o),
(519,175,o),
(485,109,cs),
(456,51,o),
(396,9,o),
(303,9,cs)
);
}
);
};
layerId = "5997FD7B-85B3-4973-BC7D-5D24E7B00D9D";
shapes = (
{
closed = 1;
nodes = (
(363,-12,o),
(417,18,o),
(458,63,c),
(449,86,l),
(414,43,o),
(370,9,o),
(284,9,cs),
(201,9,o),
(149,52,o),
(121,109,cs),
(87,175,o),
(84,284,o),
(84,350,cs),
(84,416,o),
(87,525,o),
(121,591,cs),
(149,648,o),
(203,690,o),
(289,690,cs),
(345,690,o),
(397,670,o),
(447,623,c),
(458,641,l),
(408,689,o),
(344,712,o),
(289,712,cs),
(191,712,o),
(134,669,o),
(100,602,cs),
(67,537,o),
(60,449,o),
(60,350,cs),
(60,251,o),
(67,163,o),
(100,98,cs),
(134,31,o),
(189,-12,o),
(284,-12,cs)
);
}
);
width = 484;
},
{
anchors = (
{
name = bottom;
pos = (301,0);
},
{
name = top;
pos = (303,687);
}
);
layerId = "0D76174C-E7DB-4B5D-B958-B4B8505ED925";
shapes = (
{
closed = 1;
nodes = (
(372,-12,o),
(422,8,o),
(469,45,c),
(436,137,l),
(399,108,o),
(360,91,o),
(312,91,cs),
(228,91,o),
(180,138,o),
(174,225,cs),
(171,273,o),
(169,308,o),
(169,350,cs),
(169,392,o),
(171,428,o),
(174,475,cs),
(180,562,o),
(229,609,o),
(315,609,cs),
(361,609,o),
(398,595,o),
(437,563,c),
(469,653,l),
(421,692,o),
(369,712,o),
(308,712,cs),
(166,712,o),
(73,629,o),
(62,484,cs),
(59,445,o),
(56,392,o),
(56,350,cs),
(56,308,o),
(59,255,o),
(62,216,cs),
(73,71,o),
(168,-12,o),
(312,-12,cs)
);
}
);
width = 494;
},
{
anchors = (
{
name = bottom;
pos = (288,0);
},
{
name = top;
pos = (298,700);
}
);
background = {
shapes = (
{
closed = 1;
nodes = (
(383,-12,o),
(425,6,o),
(473,40,c),
(426,165,l),
(394,145,o),
(367,129,o),
(319,129,cs),
(254,128,o),
(215,164,o),
(209,226,cs),
(206,274,o),
(204,309,o),
(204,350,cs),
(204,391,o),
(206,427,o),
(209,474,cs),
(214,534,o),
(257,572,o),
(326,572,cs),
(369,572,o),
(393,563,o),
(429,537,c),
(472,656,l),
(422,693,o),
(377,712,o),
(309,712,cs),
(165,712,o),
(59,618,o),
(49,482,cs),
(46,443,o),
(44,392,o),
(44,350,cs),
(44,308,o),
(46,257,o),
(49,218,cs),
(59,82,o),
(169,-12,o),
(319,-12,cs)
);
}
);
};
layerId = "69BA87E8-A4A5-4412-BDDB-89C34BF38660";
shapes = (
{
closed = 1;
nodes = (
(419,-12,o),
(472,8,o),
(511,39,c),
(450,201,l),
(419,181,o),
(403,171,o),
(347,170,cs),
(293,169,o),
(257,198,o),
(253,242,cs),
(250,280,o),
(249,310,o),
(249,350,cs),
(249,390,o),
(251,424,o),
(254,461,cs),
(258,501,o),
(293,531,o),
(352,531,cs),
(392,531,o),
(425,522,o),
(451,495,c),
(511,661,l),
(469,693,o),
(396,712,o),
(314,712,cs),
(171,712,o),
(47,605,o),
(38,479,cs),
(35,440,o),
(34,392,o),
(34,350,cs),
(34,308,o),
(35,260,o),
(38,221,cs),
(47,96,o),
(153,-12,o),
(337,-12,cs)
);
}
);
width = 536;
}
);
metricLeft = O;
metricRight = "=I/2";
unicode = 67;
userData = {
KernOnName = C;
com.schriftgestaltung.Glyphs.ColorIndex = 3;
com.schriftgestaltung.Glyphs.layer.leftMetricsKey = "==O";
com.schriftgestaltung.Glyphs.leftMetricsKey = O;
};
},
{
glyphname = D;
kernLeft = KO_H;
kernRight = KO_O;
lastChange = "2025-01-19 17:48:57 +0000";
layers = (
{
anchors = (
{
name = bottom;
pos = (273,0);
},
{
name = center;
pos = (108,350);
},
{
name = top;
pos = (273,675);
}
);
layerId = "5997FD7B-85B3-4973-BC7D-5D24E7B00D9D";
shapes = (
{
closed = 1;
nodes = (
(269,0,ls),
(420,0,o),
(497,89,o),
(508,230,cs),
(511,266,o),
(513,311,o),
(513,350,cs),
(513,389,o),
(511,434,o),
(508,470,cs),
(496,611,o),
(420,700,o),
(269,700,cs),
(105,700,l),
(105,0,l)
);
},
{
closed = 1;
nodes = (
(129,678,l),
(269,678,ls),
(411,678,o),
(475,591,o),
(485,471,cs),
(489,422,o),
(489,392,o),
(489,350,cs),
(489,308,o),
(489,278,o),
(485,229,cs),
(476,109,o),
(411,22,o),
(269,22,cs),
(129,22,l)
);
}
);
width = 573;
},
{
anchors = (
{
name = bottom;
pos = (279,0);
},
{
name = center;
pos = (136,350);
},
{
name = top;
pos = (279,687);
}
);
layerId = "0D76174C-E7DB-4B5D-B958-B4B8505ED925";
shapes = (
{
closed = 1;
nodes = (
(273,0,ls),
(439,0,o),
(527,89,o),
(538,230,cs),
(541,266,o),
(543,311,o),
(543,350,cs),
(543,389,o),
(541,434,o),
(538,470,cs),
(526,611,o),
(439,700,o),
(273,700,cs),
(82,700,l),
(82,0,l)
);
},
{
closed = 1;
nodes = (
(194,604,l),
(273,604,ls),
(377,605,o),
(423,542,o),
(430,456,cs),
(434,413,o),
(434,387,o),
(434,350,cs),
(434,313,o),
(434,287,o),
(430,244,cs),
(423,158,o),
(377,95,o),
(273,95,cs),
(194,95,l)
);
}
);
width = 599;
},
{
anchors = (
{
name = bottom;
pos = (303,0);
},
{
name = center;
pos = (184,350);
},
{
name = top;
pos = (303,700);
}
);
layerId = "69BA87E8-A4A5-4412-BDDB-89C34BF38660";
shapes = (
{
closed = 1;
nodes = (
(294,0,ls),
(477,0,o),
(584,89,o),
(595,230,cs),
(598,266,o),
(600,311,o),
(600,350,cs),
(600,389,o),
(598,434,o),
(595,470,cs),
(583,611,o),
(477,700,o),
(294,700,cs),
(56,700,l),
(56,0,l)
);
},
{
closed = 1;
nodes = (
(266,532,l),
(304,532,ls),
(360,532,o),
(391,490,o),
(396,441,cs),
(400,403,o),
(400,382,o),
(400,350,cs),
(400,318,o),
(400,296,o),
(396,259,cs),
(390,210,o),
(360,169,o),
(304,169,cs),
(266,169,l)
);
}
);
width = 634;
}
);
metricLeft = H;
metricRight = O;
unicode = 68;
userData = {
com.schriftgestaltung.Glyphs.ColorIndex = 3;
com.schriftgestaltung.Glyphs.layer.leftMetricsKey = "==H";
com.schriftgestaltung.Glyphs.layer.rightMetricsKey = "==O";
com.schriftgestaltung.Glyphs.leftMetricsKey = H;
com.schriftgestaltung.Glyphs.rightMetricsKey = O;
};
},
{
glyphname = DZcaron;
lastChange = "2026-02-06 09:23:40 +0000";
layers = (
{
anchors = (
{
name = bottom;
pos = (809,0);
},
{
name = center;
pos = (108,350);
},
{
name = top;
pos = (809,838);
}
);
layerId = "5997FD7B-85B3-4973-BC7D-5D24E7B00D9D";
shapes = (
{
closed = 1;
nodes = (
(269,0,ls),
(420,0,o),
(497,89,o),
(508,230,cs),
(511,266,o),
(513,311,o),
(513,350,cs),
(513,389,o),
(511,434,o),
(508,470,cs),
(496,611,o),
(420,700,o),
(269,700,cs),
(105,700,l),
(105,0,l)
);
},
{
closed = 1;
nodes = (
(129,678,l),
(269,678,ls),
(411,678,o),
(475,591,o),
(485,471,cs),
(489,422,o),
(489,392,o),
(489,350,cs),
(489,308,o),
(489,278,o),
(485,229,cs),
(476,109,o),
(411,22,o),
(269,22,cs),
(129,22,l)
);
},
{
closed = 1;
nodes = (
(993,0,l),
(993,22,l),
(644,22,ls),
(635,22,o),
(632,29,o),
(640,38,cs),
(665,64,l),
(989,678,l),
(989,700,l),
(627,700,l),
(627,581,l),
(649,581,l),
(649,678,l),
(960,678,ls),
(967,678,o),
(972,672,o),
(964,663,cs),
(941,637,l),
(616,21,l),
(616,0,l)
);
},
{
closed = 1;
nodes = (
(820,795,l),
(912,933,l),
(886,933,l),
(826,840,l),
(814,817,ls),
(810,810,o),
(804,810,o),
(800,817,cs),
(788,840,l),
(728,933,l),
(702,933,l),
(794,795,l)
);
}
);
width = 1036;
},
{
anchors = (
{
name = bottom;
pos = (853,0);
},
{
name = center;
pos = (136,350);
},
{
name = top;
pos = (853,903);
}
);
layerId = "0D76174C-E7DB-4B5D-B958-B4B8505ED925";
shapes = (
{
closed = 1;
nodes = (
(273,0,ls),
(439,0,o),
(527,89,o),
(538,230,cs),
(541,266,o),
(543,311,o),
(543,350,cs),
(543,389,o),
(541,434,o),
(538,470,cs),
(526,611,o),
(439,700,o),
(273,700,cs),
(82,700,l),
(82,0,l)
);
},
{
closed = 1;
nodes = (
(194,604,l),
(273,604,ls),
(377,605,o),
(423,542,o),
(430,456,cs),
(434,413,o),
(434,387,o),
(434,350,cs),
(434,313,o),
(434,287,o),
(430,244,cs),
(423,158,o),
(377,95,o),
(273,95,cs),
(194,95,l)
);
},
{
closed = 1;
nodes = (
(1073,0,l),
(1073,103,l),
(777,103,ls),
(770,103,o),
(767,109,o),
(773,117,cs),
(807,158,l),
(1073,632,l),
(1073,700,l),
(642,700,l),
(642,530,l),
(744,530,l),
(744,606,l),
(935,606,ls),
(943,606,o),
(946,600,o),
(939,592,cs),
(906,551,l),
(636,68,l),
(636,0,l)
);
},
{
closed = 1;
nodes = (
(905,774,l),
(998,933,l),
(905,933,l),
(869,870,l),
(858,836,ls),
(855,827,o),
(849,827,o),
(846,836,cs),
(836,870,l),
(800,933,l),
(707,933,l),
(800,774,l)
);
}
);
width = 1114;
},
{
anchors = (
{
name = bottom;
pos = (920,0);
},
{
name = center;
pos = (184,350);
},
{
name = top;
pos = (920,933);
}
);
layerId = "69BA87E8-A4A5-4412-BDDB-89C34BF38660";
shapes = (
{
closed = 1;
nodes = (
(294,0,ls),
(477,0,o),
(584,89,o),
(595,230,cs),
(598,266,o),
(600,311,o),
(600,350,cs),
(600,389,o),
(598,434,o),
(595,470,cs),
(583,611,o),
(477,700,o),
(294,700,cs),
(56,700,l),
(56,0,l)
);
},
{
closed = 1;
nodes = (
(266,532,l),
(304,532,ls),
(360,532,o),
(391,490,o),
(396,441,cs),
(400,403,o),
(400,382,o),
(400,350,cs),
(400,318,o),
(400,296,o),
(396,259,cs),
(390,210,o),
(360,169,o),
(304,169,cs),
(266,169,l)
);
},
{
closed = 1;
nodes = (
(1178,0,l),
(1178,180,l),
(907,180,ls),
(885,180,o),
(885,197,o),
(903,205,cs),
(956,230,l),
(1178,539,l),
(1178,700,l),
(671,700,l),
(671,465,l),
(851,465,l),
(851,520,l),
(944,520,ls),
(963,520,o),
(966,506,o),
(950,494,cs),
(895,455,l),
(677,161,l),
(677,0,l)
);
},
{
closed = 1;
nodes = (
(1021,746,l),
(1107,933,l),
(957,933,l),
(934,884,l),
(925,850,ls),
(923,841,o),
(916,841,o),
(913,850,cs),
(903,884,l),
(884,933,l),
(734,933,l),
(821,746,l)
);
}
);
width = 1224;
}
);
unicode = 452;
},
{
glyphname = Dzcaron;
lastChange = "2026-02-06 12:40:55 +0000";
layers = (
{
anchors = (
{
name = bottom;
pos = (770,0);
},
{
name = center;
pos = (108,350);
},
{
name = top;
pos = (770,655);
}
);
layerId = "5997FD7B-85B3-4973-BC7D-5D24E7B00D9D";
shapes = (
{
closed = 1;
nodes = (
(269,0,ls),
(420,0,o),
(497,89,o),
(508,230,cs),
(511,266,o),
(513,311,o),
(513,350,cs),
(513,389,o),
(511,434,o),
(508,470,cs),
(496,611,o),
(420,700,o),
(269,700,cs),
(105,700,l),
(105,0,l)
);
},
{
closed = 1;
nodes = (
(129,678,l),
(269,678,ls),
(411,678,o),
(475,591,o),
(485,471,cs),
(489,422,o),
(489,392,o),
(489,350,cs),
(489,308,o),
(489,278,o),
(485,229,cs),
(476,109,o),
(411,22,o),
(269,22,cs),
(129,22,l)
);
},
{
closed = 1;
nodes = (
(925,0,l),
(925,22,l),
(658,22,ls),
(650,22,o),
(647,25,o),
(652,32,cs),
(684,75,l),
(925,488,l),
(925,492,l),
(615,492,l),
(615,470,l),
(883,470,ls),
(890,470,o),
(892,464,o),
(888,458,cs),
(857,417,l),
(615,3,l),
(615,0,l)
);
},
{
closed = 1;
nodes = (
(781,612,l),
(873,750,l),
(847,750,l),
(787,657,l),
(775,634,ls),
(771,627,o),
(765,627,o),
(761,634,cs),
(749,657,l),
(689,750,l),
(663,750,l),
(755,612,l)
);
}
);
width = 975;
},
{
anchors = (
{
name = bottom;
pos = (825,0);
},
{
name = center;
pos = (136,350);
},
{
name = top;
pos = (825,720);
}
);
layerId = "0D76174C-E7DB-4B5D-B958-B4B8505ED925";
shapes = (
{
closed = 1;
nodes = (
(273,0,ls),
(439,0,o),
(527,89,o),
(538,230,cs),
(541,266,o),
(543,311,o),
(543,350,cs),
(543,389,o),
(541,434,o),
(538,470,cs),
(526,611,o),
(439,700,o),
(273,700,cs),
(82,700,l),
(82,0,l)
);
},
{
closed = 1;
nodes = (
(194,604,l),
(273,604,ls),
(377,605,o),
(423,542,o),
(430,456,cs),
(434,413,o),
(434,387,o),
(434,350,cs),
(434,313,o),
(434,287,o),
(430,244,cs),
(423,158,o),
(377,95,o),
(273,95,cs),
(194,95,l)
);
},
{
closed = 1;
nodes = (
(1006,0,l),
(1006,90,l),
(775,90,ls),
(768,90,o),
(761,95,o),
(772,106,cs),
(805,137,l),
(1006,434,l),
(1006,504,l),
(643,504,l),
(643,414,l),
(873,414,ls),
(880,414,o),
(888,409,o),
(876,398,cs),
(844,367,l),
(643,70,l),
(643,0,l)
);
},
{
closed = 1;
nodes = (
(877,591,l),
(970,750,l),
(877,750,l),
(841,687,l),
(830,653,ls),
(827,644,o),
(821,644,o),
(818,653,cs),
(808,687,l),
(772,750,l),
(679,750,l),
(772,591,l)
);
}
);
width = 1054;
},
{
anchors = (
{
name = bottom;
pos = (875,0);
},
{
name = center;
pos = (184,350);
},
{
name = top;
pos = (875,750);
}
);
layerId = "69BA87E8-A4A5-4412-BDDB-89C34BF38660";
shapes = (
{
closed = 1;
nodes = (
(294,0,ls),
(477,0,o),
(584,89,o),
(595,230,cs),
(598,266,o),
(600,311,o),
(600,350,cs),
(600,389,o),
(598,434,o),
(595,470,cs),
(583,611,o),
(477,700,o),
(294,700,cs),
(56,700,l),
(56,0,l)
);
},
{
closed = 1;
nodes = (
(266,532,l),
(304,532,ls),
(360,532,o),
(391,490,o),
(396,441,cs),
(400,403,o),
(400,382,o),
(400,350,cs),
(400,318,o),
(400,296,o),
(396,259,cs),
(390,210,o),
(360,169,o),
(304,169,cs),
(266,169,l)
);
},
{
closed = 1;
nodes = (
(1084,0,l),
(1084,153,l),
(884,153,ls),
(873,153,o),
(871,162,o),
(881,169,cs),
(915,194,l),
(1084,377,l),
(1084,517,l),
(666,517,l),
(666,363,l),
(864,363,ls),
(875,363,o),
(877,354,o),
(867,347,cs),
(833,323,l),
(666,141,l),
(666,0,l)
);
},
{
closed = 1;
nodes = (
(976,563,l),
(1062,750,l),
(912,750,l),
(889,701,l),
(880,667,ls),
(878,658,o),
(871,658,o),
(868,667,cs),
(858,701,l),
(839,750,l),
(689,750,l),
(776,563,l)
);
}
);
width = 1116;
}
);
unicode = 453;
},
{
glyphname = E;
kernLeft = KO_H;
kernRight = KO_E;
lastChange = "2025-01-20 07:45:44 +0000";
layers = (
{
anchors = (
{
name = bottom;
pos = (298,0);
},
{
name = ogonek;
pos = (486,0);
},
{
name = top;
pos = (298,675);
},
{
name = topleft;
pos = (19,700);
}
);
layerId = "5997FD7B-85B3-4973-BC7D-5D24E7B00D9D";
shapes = (
{
closed = 1;
nodes = (
(486,0,l),
(486,22,l),
(129,22,l),
(129,339,l),
(469,339,l),
(469,361,l),
(129,361,l),
(129,678,l),
(486,678,l),
(486,700,l),
(105,700,l),
(105,0,l)
);
}
);
width = 554;
},
{
anchors = (
{
name = bottom;
pos = (292,0);
},
{
name = ogonek;
pos = (496,0);
},
{
name = top;
pos = (292,687);
},
{
name = topleft;
pos = (20,700);
}
);
layerId = "0D76174C-E7DB-4B5D-B958-B4B8505ED925";
shapes = (
{
closed = 1;
nodes = (
(496,0,l),
(496,103,l),
(187,103,l),
(187,301,l),
(479,301,l),
(479,399,l),
(187,399,l),
(187,597,l),
(496,597,l),
(496,700,l),
(82,700,l),
(82,0,l)
);
}
);
width = 551.8;
},
{
anchors = (
{
name = bottom;
pos = (291,0);
},
{
name = ogonek;
pos = (525,0);
},
{
name = top;
pos = (291,700);
},
{
name = topleft;
pos = (40,700);
}
);
layerId = "69BA87E8-A4A5-4412-BDDB-89C34BF38660";
shapes = (
{
closed = 1;
nodes = (
(525,0,l),
(525,180,l),
(266,180,l),
(266,270,l),
(508,270,l),
(508,430,l),
(266,430,l),
(266,520,l),
(525,520,l),
(525,700,l),
(56,700,l),
(56,0,l)
);
}
);
width = 568;
}
);
metricLeft = H;
unicode = 69;
userData = {
KernOnName = E;
com.schriftgestaltung.Glyphs.ColorIndex = 3;
com.schriftgestaltung.Glyphs.layer.leftMetricsKey = "==H";
com.schriftgestaltung.Glyphs.leftMetricsKey = H;
};
},
{
glyphname = Ecircumflexdotbelow;
kernLeft = KO_H;
kernRight = KO_E;
lastChange = "2026-02-06 09:26:27 +0000";
layers = (
{
anchors = (
{
name = bottom;
pos = (298,-173);
},
{
name = ogonek;
pos = (486,0);
},
{
name = top;
pos = (298,848);
},
{
name = topleft;
pos = (19,700);
}
);
layerId = "5997FD7B-85B3-4973-BC7D-5D24E7B00D9D";
shapes = (
{
closed = 1;
nodes = (
(310,-173,l),
(310,-85,l),
(286,-85,l),
(286,-173,l)
);
},
{
closed = 1;
nodes = (
(219,795,l),
(279,888,l),
(291,911,ls),
(295,918,o),
(301,918,o),
(305,911,cs),
(317,888,l),
(377,795,l),
(403,795,l),
(311,933,l),
(285,933,l),
(193,795,l)
);
},
{
ref = E;
}
);
width = 554;
},
{
anchors = (
{
name = bottom;
pos = (292,-193);
},
{
name = ogonek;
pos = (496,0);
},
{
name = top;
pos = (292,893);
},
{
name = topleft;
pos = (20,700);
}
);
layerId = "0D76174C-E7DB-4B5D-B958-B4B8505ED925";
shapes = (
{
closed = 1;
nodes = (
(346,-193,l),
(346,-85,l),
(238,-85,l),
(238,-193,l)
);
},
{
closed = 1;
nodes = (
(241,775,l),
(275,837,l),
(285,871,ls),
(288,880,o),
(294,880,o),
(297,871,cs),
(308,837,l),
(342,775,l),
(437,775,l),
(345,933,l),
(237,933,l),
(146,775,l)
);
},
{
ref = E;
}
);
width = 552;
},
{
anchors = (
{
name = bottom;
pos = (291,-196);
},
{
name = ogonek;
pos = (525,0);
},
{
name = top;
pos = (291,933);
},
{
name = topleft;
pos = (40,700);
}
);
layerId = "69BA87E8-A4A5-4412-BDDB-89C34BF38660";
shapes = (
{
closed = 1;
nodes = (
(389,-196,l),
(389,-63,l),
(192,-63,l),
(192,-196,l)
);
},
{
closed = 1;
nodes = (
(251,750,l),
(273,795,l),
(283,829,ls),
(286,838,o),
(293,838,o),
(295,829,cs),
(304,795,l),
(330,750,l),
(477,750,l),
(389,933,l),
(193,933,l),
(104,750,l)
);
},
{
ref = E;
}
);
width = 568;
}
);
unicode = 7878;
},
{
glyphname = Schwa;
kernRight = KO_O;
lastChange = "2025-01-19 17:48:57 +0000";
layers = (
{
anchors = (
{
name = top;
pos = (301,675);
}
);
layerId = "5997FD7B-85B3-4973-BC7D-5D24E7B00D9D";
shapes = (
{
closed = 1;
nodes = (
(509,-12,o),
(544,148,o),
(544,350,cs),
(544,467,o),
(533,568,o),
(484,634,cs),
(448,683,o),
(390,712,o),
(301,712,cs),
(202,712,o),
(144,675,o),
(94,645,c),
(102,626,l),
(145,654,o),
(198,691,o),
(301,691,cs),
(502,691,o),
(521,535,o),
(521,327,c),
(60,327,l),
(60,292,l),
(60,158,o),
(87,-12,o),
(298,-12,cs)
);
},
{
closed = 1;
nodes = (
(106,9,o),
(80,168,o),
(82,303,c),
(521,303,l),
(521,165,o),
(489,9,o),
(298,9,cs)
);
}
);
width = 604;
},
{
anchors = (
{
name = top;
pos = (304,687);
}
);
layerId = "0D76174C-E7DB-4B5D-B958-B4B8505ED925";
shapes = (
{
closed = 1;
nodes = (
(477,-12,o),
(559,97,o),
(559,350,cs),
(559,537,o),
(525,601,o),
(479,647,cs),
(436,690,o),
(364,712,o),
(292,712,cs),
(200,712,o),
(129,684,o),
(75,639,c),
(112,548,l),
(149,580,o),
(217,609,o),
(282,609,cs),
(415,609,o),
(445,520,o),
(445,378,c),
(56,378,l),
(56,305,l),
(56,74,o),
(158,-12,o),
(307,-12,cs)
);
},
{
closed = 1;
nodes = (
(200,91,o),
(174,168,o),
(171,276,c),
(443,276,l),
(444,156,o),
(402,91,o),
(307,91,cs)
);
}
);
width = 615;
},
{
anchors = (
{
name = top;
pos = (318,700);
}
);
layerId = "69BA87E8-A4A5-4412-BDDB-89C34BF38660";
shapes = (
{
closed = 1;
nodes = (
(415,-12,o),
(598,19,o),
(598,350,cs),
(598,533,o),
(554,584,o),
(499,639,cs),
(446,692,o),
(344,712,o),
(272,712,cs),
(140,712,o),
(74,665,o),
(34,639,c),
(103,478,l),
(123,496,o),
(180,529,o),
(262,529,cs),
(308,529,o),
(380,531,o),
(381,412,c),
(38,412,l),
(38,315,l),
(38,44,o),
(199,-12,o),
(318,-12,cs)
);
},
{
closed = 1;
nodes = (
(295,171,o),
(247,180,o),
(247,248,c),
(383,248,l),
(383,180,o),
(333,171,o),
(312,171,cs)
);
}
);
width = 632;
}
);
metricLeft = O;
metricRight = O;
unicode = 399;
},
{
glyphname = Ezh;
lastChange = "2025-01-19 17:48:57 +0000";
layers = (
{
anchors = (
{
name = bottom;
pos = (247,0);
},
{
name = top;
pos = (247,675);
}
);
layerId = "5997FD7B-85B3-4973-BC7D-5D24E7B00D9D";
shapes = (
{
closed = 1;
nodes = (
(360,-8,o),
(448,71,o),
(448,192,cs),
(448,318,o),
(357,395,o),
(173,389,c),
(176,380,l),
(443,692,l),
(443,700,l),
(86,700,l),
(86,678,l),
(398,678,ls),
(404,678,o),
(406,673,o),
(400,667,cs),
(365,633,l),
(153,380,l),
(153,369,l),
(208,369,ls),
(348,369,o),
(426,299,o),
(426,192,cs),
(426,85,o),
(347,14,o),
(236,14,cs),
(170,14,o),
(99,43,o),
(53,89,c),
(38,66,l),
(92,21,o),
(169,-8,o),
(236,-8,cs)
);
}
);
width = 516;
},
{
anchors = (
{
name = bottom;
pos = (242,0);
},
{
name = top;
pos = (242,687);
}
);
layerId = "0D76174C-E7DB-4B5D-B958-B4B8505ED925";
shapes = (
{
closed = 1;
nodes = (
(354,-8,o),
(478,52,o),
(478,209,cs),
(478,353,o),
(380,415,o),
(208,418,c),
(241,381,l),
(447,632,l),
(447,700,l),
(47,700,l),
(47,606,l),
(299,606,ls),
(308,606,o),
(311,600,o),
(304,593,cs),
(270,561,l),
(133,385,l),
(133,321,l),
(211,321,ls),
(324,321,o),
(370,277,o),
(370,207,cs),
(370,139,o),
(325,93,o),
(237,93,cs),
(166,93,o),
(109,116,o),
(60,158,c),
(24,66,l),
(88,14,o),
(156,-8,o),
(242,-8,cs)
);
}
);
width = 537;
},
{
anchors = (
{
name = bottom;
pos = (253,0);
},
{
name = top;
pos = (253,700);
}
);
layerId = "69BA87E8-A4A5-4412-BDDB-89C34BF38660";
shapes = (
{
closed = 1;
nodes = (
(373,-11,o),
(516,63,o),
(516,218,cs),
(516,327,o),
(435,414,o),
(325,420,c),
(318,377,l),
(479,559,l),
(479,700,l),
(34,700,l),
(34,530,l),
(215,530,ls),
(229,530,o),
(235,517,o),
(223,507,cs),
(197,485,l),
(139,410,l),
(138,292,l),
(231,292,ls),
(293,292,o),
(334,276,o),
(334,234,cs),
(334,187,o),
(295,166,o),
(234,166,cs),
(185,166,o),
(141,175,o),
(76,228,c),
(17,62,l),
(92,3,o),
(167,-11,o),
(255,-11,cs)
);
}
);
width = 547;
}
);
metricRight = B;
unicode = 439;
},
{
glyphname = F;
kernLeft = KO_H;
kernRight = KO_F;
lastChange = "2025-01-20 07:45:44 +0000";
layers = (
{
anchors = (
{
name = bottom;
pos = (260,0);
},
{
name = center;
pos = (147,179);
},
{
name = top;
pos = (260,675);
}
);
layerId = "5997FD7B-85B3-4973-BC7D-5D24E7B00D9D";
shapes = (
{
closed = 1;
nodes = (
(130,0,l),
(130,339,l),
(437,339,l),
(437,361,l),
(130,361,l),
(130,678,l),
(470,678,l),
(470,700,l),
(105,700,l),
(105,0,l)
);
}
);
width = 518;
},
{
anchors = (
{
name = bottom;
pos = (263,0);
},
{
name = center;
pos = (147,158);
},
{
name = top;
pos = (263,687);
}
);
layerId = "0D76174C-E7DB-4B5D-B958-B4B8505ED925";
shapes = (
{
closed = 1;
nodes = (
(196,0,l),
(196,299,l),
(467,299,l),
(467,401,l),
(196,401,l),
(196,597,l),
(489,597,l),
(489,700,l),
(82,700,l),
(82,0,l)
);
}
);
width = 525.2;
},
{
anchors = (
{
name = bottom;
pos = (267,0);
},
{
name = center;
pos = (184,124);
},
{
name = top;
pos = (267,700);
}
);
layerId = "69BA87E8-A4A5-4412-BDDB-89C34BF38660";
shapes = (
{
closed = 1;
nodes = (
(266,0,l),
(266,239,l),
(508,239,l),
(508,403,l),
(266,403,l),
(266,520,l),
(525,520,l),
(525,700,l),
(56,700,l),
(56,0,l)
);
}
);
width = 534;
}
);
metricLeft = H;
unicode = 70;
userData = {
KernOnName = F;
com.schriftgestaltung.Glyphs.ColorIndex = 3;
com.schriftgestaltung.Glyphs.layer.leftMetricsKey = "==H";
com.schriftgestaltung.Glyphs.leftMetricsKey = H;
};
},
{
glyphname = G;
kernLeft = KO_O;
kernRight = KO_G;
lastChange = "2025-01-20 07:45:44 +0000";
layers = (
{
anchors = (
{
name = bottom;
pos = (297,0);
},
{
name = top;
pos = (296,675);
}
);
background = {
shapes = (
{
closed = 0;
nodes = (
(496,42,l),
(496,311,l),
(570,311,l),
(570,389,l),
(332,389,l),
(332,311,l),
(413,311,l),
(413,84,l),
(395,72,o),
(352,66,o),
(315,66,cs),
(211,66,o),
(153,126,o),
(147,224,cs),
(144,272,o),
(142,308,o),
(142,350,cs),
(142,392,o),
(144,428,o),
(147,476,cs),
(154,584,o),
(215,634,o),
(319,634,cs),
(382,634,o),
(423,618,o),
(468,580,c),
(494,651,l),
(450,690,o),
(388,712,o),
(319,712,cs),
(171,712,o),
(80,641,o),
(65,486,cs),
(62,447,o),
(60,392,o),
(60,350,cs),
(60,308,o),
(63,253,o),
(66,214,c)
);
}
);
};
layerId = "5997FD7B-85B3-4973-BC7D-5D24E7B00D9D";
shapes = (
{
closed = 1;
nodes = (
(367,-12,o),
(423,22,o),
(466,72,c),
(466,339,l),
(550,339,l),
(550,361,l),
(350,361,l),
(350,339,l),
(442,339,l),
(442,78,l),
(408,39,o),
(364,9,o),
(284,9,cs),
(201,9,o),
(149,52,o),
(121,109,cs),
(87,175,o),
(84,284,o),
(84,350,cs),
(84,416,o),
(87,525,o),
(121,591,cs),
(149,648,o),
(203,690,o),
(289,690,cs),
(345,690,o),
(397,670,o),
(447,623,c),
(458,641,l),
(408,689,o),
(344,712,o),
(289,712,cs),
(191,712,o),
(134,669,o),
(100,602,cs),
(67,537,o),
(60,449,o),
(60,350,cs),
(60,251,o),
(67,163,o),
(100,98,cs),
(134,31,o),
(189,-12,o),
(284,-12,cs)
);
}
);
width = 572;
},
{
anchors = (
{
name = bottom;
pos = (304,0);
},
{
name = top;
pos = (314,687);
}
);
layerId = "0D76174C-E7DB-4B5D-B958-B4B8505ED925";
shapes = (
{
closed = 1;
nodes = (
(403,-10,o),
(460,10,o),
(506,43,c),
(506,299,l),
(575,299,l),
(575,401,l),
(328,401,l),
(328,299,l),
(404,299,l),
(404,106,l),
(383,96,o),
(346,92,o),
(313,92,cs),
(225,92,o),
(175,142,o),
(169,226,cs),
(166,274,o),
(164,309,o),
(164,350,cs),
(164,391,o),
(166,427,o),
(169,470,cs),
(176,563,o),
(227,609,o),
(324,609,cs),
(384,609,o),
(428,596,o),
(472,558,c),
(507,651,l),
(459,690,o),
(395,712,o),
(324,712,cs),
(173,712,o),
(77,638,o),
(61,486,cs),
(58,447,o),
(56,392,o),
(56,350,cs),
(56,308,o),
(59,253,o),
(62,214,cs),
(75,68,o),
(164,-12,o),
(317,-11,cs)
);
}
);
width = 601;
},
{
anchors = (
{
name = bottom;
pos = (312,0);
},
{
name = top;
pos = (324,700);
}
);
layerId = "69BA87E8-A4A5-4412-BDDB-89C34BF38660";
shapes = (
{
closed = 1;
nodes = (
(421,-5,o),
(510,19,o),
(545,45,c),
(545,270,l),
(599,270,l),
(599,430,l),
(310,430,l),
(310,270,l),
(364,270,l),
(364,174,l),
(347,168,o),
(338,166,o),
(319,166,cs),
(292,166,o),
(257,191,o),
(253,234,cs),
(250,279,o),
(248,311,o),
(248,350,cs),
(248,389,o),
(250,423,o),
(253,451,cs),
(261,502,o),
(310,531,o),
(372,531,cs),
(429,531,o),
(454,520,o),
(490,497,c),
(556,660,l),
(495,701,o),
(419,712,o),
(342,712,cs),
(189,712,o),
(58,619,o),
(41,486,cs),
(36,447,o),
(34,392,o),
(34,350,cs),
(34,308,o),
(37,253,o),
(40,214,cs),
(50,80,o),
(174,-12,o),
(314,-8,cs)
);
}
);
width = 618;
}
);
metricLeft = O;
unicode = 71;
userData = {
KernOnName = G;
com.schriftgestaltung.Glyphs.ColorIndex = 3;
com.schriftgestaltung.Glyphs.layer.leftMetricsKey = "==O";
com.schriftgestaltung.Glyphs.leftMetricsKey = O;
};
},
{
color = 9;
glyphname = G.ss01;
lastChange = "2025-01-19 15:33:47 +0000";
layers = (
{
anchors = (
{
name = bottom;
pos = (297,0);
},
{
name = top;
pos = (296,675);
}
);
layerId = "5997FD7B-85B3-4973-BC7D-5D24E7B00D9D";
shapes = (
{
closed = 1;
nodes = (
(339,-12,o),
(407,14,o),
(466,72,c),
(466,361,l),
(284,361,l),
(284,339,l),
(442,339,l),
(442,81,l),
(395,35,o),
(337,11,o),
(277,11,cs),
(161,11,o),
(93,87,o),
(87,222,cs),
(84,270,o),
(82,307,o),
(82,350,cs),
(82,393,o),
(84,429,o),
(87,478,cs),
(95,614,o),
(167,690,o),
(289,690,cs),
(342,690,o),
(401,679,o),
(471,614,c),
(478,633,l),
(418,692,o),
(354,712,o),
(289,712,cs),
(159,712,o),
(79,632,o),
(67,489,cs),
(64,450,o),
(60,392,o),
(60,350,cs),
(60,308,o),
(64,250,o),
(67,211,cs),
(78,68,o),
(154,-12,o),
(277,-12,cs)
);
}
);
width = 563;
},
{
anchors = (
{
name = bottom;
pos = (304,0);
},
{
name = top;
pos = (314,687);
}
);
layerId = "0D76174C-E7DB-4B5D-B958-B4B8505ED925";
shapes = (
{
closed = 1;
nodes = (
(403,-10,o),
(460,10,o),
(506,43,c),
(506,401,l),
(297,401,l),
(297,299,l),
(404,299,l),
(404,106,l),
(383,96,o),
(346,92,o),
(313,92,cs),
(225,92,o),
(175,142,o),
(169,226,cs),
(166,274,o),
(164,309,o),
(164,350,cs),
(164,391,o),
(166,427,o),
(169,470,cs),
(176,563,o),
(227,609,o),
(324,609,cs),
(384,609,o),
(428,596,o),
(472,558,c),
(507,651,l),
(459,690,o),
(395,712,o),
(324,712,cs),
(173,712,o),
(77,638,o),
(61,486,cs),
(58,447,o),
(56,392,o),
(56,350,cs),
(56,308,o),
(59,253,o),
(62,214,cs),
(75,68,o),
(164,-12,o),
(317,-11,cs)
);
}
);
width = 584;
},
{
anchors = (
{
name = bottom;
pos = (303,0);
},
{
name = top;
pos = (324,700);
}
);
layerId = "69BA87E8-A4A5-4412-BDDB-89C34BF38660";
shapes = (
{
closed = 1;
nodes = (
(421,-5,o),
(510,19,o),
(545,45,c),
(545,430,l),
(310,430,l),
(311,270,l),
(364,270,l),
(364,174,l),
(347,168,o),
(338,166,o),
(319,166,cs),
(292,166,o),
(257,191,o),
(253,234,cs),
(250,279,o),
(248,311,o),
(248,350,cs),
(248,389,o),
(250,423,o),
(253,451,cs),
(261,502,o),
(310,531,o),
(372,531,cs),
(429,531,o),
(454,520,o),
(490,497,c),
(556,660,l),
(495,701,o),
(419,712,o),
(342,712,cs),
(189,712,o),
(58,619,o),
(41,486,cs),
(36,447,o),
(34,392,o),
(34,350,cs),
(34,308,o),
(37,253,o),
(40,214,cs),
(50,80,o),
(174,-12,o),
(323,-8,cs)
);
}
);
width = 596;
}
);
},
{
glyphname = Gstroke;
lastChange = "2025-01-19 17:48:57 +0000";
layers = (
{
anchors = (
{
name = bottom;
pos = (305,0);
},
{
name = top;
pos = (305,675);
}
);
background = {
shapes = (
{
closed = 1;
nodes = (
(383,-15,o),
(423,1,o),
(480,40,c),
(480,364,l),
(435,364,l),
(435,41,l),
(423,24,o),
(368,15,o),
(324,15,cs),
(187,14,o),
(113,95,o),
(106,219,cs),
(103,269,o),
(101,306,o),
(101,350,cs),
(101,394,o),
(103,430,o),
(106,488,cs),
(113,626,o),
(195,684,o),
(313,684,cs),
(383,684,o),
(417,662,o),
(464,623,c),
(472,651,l),
(436,689,o),
(378,712,o),
(313,712,cs),
(171,712,o),
(90,647,o),
(76,486,cs),
(74,447,o),
(72,392,o),
(72,350,cs),
(72,308,o),
(75,253,o),
(78,214,cs),
(92,71,o),
(177,-12,o),
(316,-14,cs)
);
},
{
closed = 1;
nodes = (
(564,190,l),
(564,219,l),
(343,219,l),
(343,190,l)
);
}
);
};
layerId = "5997FD7B-85B3-4973-BC7D-5D24E7B00D9D";
shapes = (
{
closed = 1;
nodes = (
(339,-12,o),
(407,14,o),
(466,72,c),
(466,364,l),
(442,364,l),
(442,81,l),
(395,35,o),
(337,11,o),
(277,11,cs),
(161,11,o),
(93,87,o),
(87,222,cs),
(84,270,o),
(82,307,o),
(82,350,cs),
(82,393,o),
(84,429,o),
(87,478,cs),
(95,614,o),
(167,690,o),
(289,690,cs),
(342,690,o),
(401,679,o),
(471,614,c),
(478,633,l),
(418,692,o),
(354,712,o),
(289,712,cs),
(159,712,o),
(79,632,o),
(67,489,cs),
(64,450,o),
(60,392,o),
(60,350,cs),
(60,308,o),
(64,250,o),
(67,211,cs),
(78,68,o),
(154,-12,o),
(277,-12,cs)
);
},
{
closed = 1;
nodes = (
(554,194,l),
(554,216,l),
(354,216,l),
(354,194,l)
);
}
);
width = 580;
},
{
anchors = (
{
name = bottom;
pos = (298,0);
},
{
name = top;
pos = (298,687);
}
);
layerId = "0D76174C-E7DB-4B5D-B958-B4B8505ED925";
shapes = (
{
closed = 1;
nodes = (
(401,-10,o),
(458,10,o),
(504,43,c),
(504,401,l),
(402,401,l),
(402,106,l),
(381,96,o),
(344,92,o),
(311,92,cs),
(223,92,o),
(173,142,o),
(167,226,cs),
(164,274,o),
(162,309,o),
(162,350,cs),
(162,391,o),
(164,427,o),
(167,470,cs),
(174,563,o),
(225,609,o),
(322,609,cs),
(382,609,o),
(426,596,o),
(470,558,c),
(505,651,l),
(457,690,o),
(393,712,o),
(322,712,cs),
(171,712,o),
(75,638,o),
(59,486,cs),
(56,447,o),
(54,392,o),
(54,350,cs),
(54,308,o),
(57,253,o),
(60,214,cs),
(73,68,o),
(162,-12,o),
(315,-11,cs)
);
},
{
closed = 1;
nodes = (
(573,199,l),
(573,302,l),
(326,302,l),
(326,199,l)
);
}
);
width = 599.2;
},
{
anchors = (
{
name = bottom;
pos = (290,0);
},
{
name = top;
pos = (290,700);
}
);
background = {
shapes = (
{
closed = 1;
nodes = (
(420,-5,o),
(494,19,o),
(529,45,c),
(529,441,l),
(368,441,l),
(368,174,l),
(337,172,o),
(319,173,o),
(297,173,cs),
(261,174,o),
(236,191,o),
(232,234,cs),
(229,279,o),
(227,311,o),
(227,350,cs),
(227,389,o),
(229,423,o),
(232,451,cs),
(239,496,o),
(257,531,o),
(331,531,cs),
(380,531,o),
(436,526,o),
(476,490,c),
(541,651,l),
(480,692,o),
(408,712,o),
(331,712,cs),
(171,712,o),
(60,629,o),
(42,486,cs),
(37,447,o),
(35,392,o),
(35,350,cs),
(35,308,o),
(38,253,o),
(41,214,cs),
(52,66,o),
(147,-12,o),
(313,-9,cs)
);
},
{
closed = 1;
nodes = (
(583,208,l),
(583,389,l),
(309,389,l),
(309,208,l)
);
}
);
};
layerId = "69BA87E8-A4A5-4412-BDDB-89C34BF38660";
shapes = (
{
closed = 1;
nodes = (
(425,-5,o),
(514,19,o),
(549,45,c),
(549,441,l),
(368,441,l),
(368,174,l),
(351,168,o),
(342,166,o),
(323,166,cs),
(296,166,o),
(261,191,o),
(257,234,cs),
(254,279,o),
(252,311,o),
(252,350,cs),
(252,389,o),
(254,423,o),
(257,451,cs),
(265,502,o),
(314,531,o),
(376,531,cs),
(433,531,o),
(458,520,o),
(494,497,c),
(560,660,l),
(499,701,o),
(423,712,o),
(346,712,cs),
(193,712,o),
(62,619,o),
(45,486,cs),
(40,447,o),
(38,392,o),
(38,350,cs),
(38,308,o),
(41,253,o),
(44,214,cs),
(54,80,o),
(178,-12,o),
(318,-8,cs)
);
},
{
closed = 1;
nodes = (
(603,223,l),
(603,383,l),
(314,383,l),
(314,223,l)
);
}
);
width = 613;
}
);
unicode = 484;
},
{
glyphname = H;
kernLeft = KO_H;
kernRight = KO_H;
lastChange = "2025-01-20 07:45:44 +0000";
layers = (
{
anchors = (
{
name = bottom;
pos = (302,0);
},
{
name = bottomright;
pos = (499,0);
},
{
name = center;
pos = (302,514);
},
{
name = top;
pos = (302,675);
},
{
name = topleft;
pos = (20,700);
}
);
layerId = "5997FD7B-85B3-4973-BC7D-5D24E7B00D9D";
shapes = (
{
closed = 1;
nodes = (
(129,0,l),
(129,339,l),
(475,339,l),
(475,0,l),
(499,0,l),
(499,700,l),
(475,700,l),
(475,361,l),
(129,361,l),
(129,700,l),
(105,700,l),
(105,0,l)
);
}
);
width = 604;
},
{
anchors = (
{
name = bottom;
pos = (314,0);
},
{
name = bottomright;
pos = (546,0);
},
{
name = center;
pos = (314,538);
},
{
name = top;
pos = (314,687);
},
{
name = topleft;
pos = (20,700);
}
);
layerId = "0D76174C-E7DB-4B5D-B958-B4B8505ED925";
shapes = (
{
closed = 1;
nodes = (
(196,0,l),
(196,299,l),
(432,299,l),
(432,0,l),
(546,0,l),
(546,700,l),
(432,700,l),
(432,401,l),
(196,401,l),
(196,700,l),
(82,700,l),
(82,0,l)
);
}
);
width = 628;
},
{
anchors = (
{
name = bottom;
pos = (326,0);
},
{
name = bottomright;
pos = (596,0);
},
{
name = center;
pos = (326,563);
},
{
name = top;
pos = (326,700);
},
{
name = topleft;
pos = (19,700);
}
);
layerId = "69BA87E8-A4A5-4412-BDDB-89C34BF38660";
shapes = (
{
closed = 1;
nodes = (
(266,0,l),
(266,269,l),
(386,269,l),
(386,0,l),
(596,0,l),
(596,700,l),
(386,700,l),
(386,429,l),
(266,429,l),
(266,700,l),
(56,700,l),
(56,0,l)
);
}
);
width = 652;
}
);
unicode = 72;
userData = {
KernOnName = H;
com.schriftgestaltung.Glyphs.ColorIndex = 3;
};
},
{
glyphname = Hbar;
lastChange = "2026-03-11 15:22:44 +0000";
layers = (
{
anchors = (
{
name = _center;
pos = (330,514);
},
{
name = bottom;
pos = (330,0);
},
{
name = bottomright;
pos = (527,0);
},
{
name = center;
pos = (330,514);
},
{
name = top;
pos = (330,675);
},
{
name = topleft;
pos = (48,700);
}
);
layerId = "5997FD7B-85B3-4973-BC7D-5D24E7B00D9D";
shapes = (
{
closed = 1;
nodes = (
(157,0,l),
(157,339,l),
(503,339,l),
(503,0,l),
(527,0,l),
(527,503,l),
(639,503,l),
(639,525,l),
(527,525,l),
(527,700,l),
(503,700,l),
(503,525,l),
(157,525,l),
(157,700,l),
(133,700,l),
(133,525,l),
(20,525,l),
(20,503,l),
(133,503,l),
(133,0,l)
);
},
{
closed = 1;
nodes = (
(157,503,l),
(503,503,l),
(503,361,l),
(157,361,l)
);
}
);
width = 659;
},
{
anchors = (
{
name = _center;
pos = (357,538);
},
{
name = bottom;
pos = (357,0);
},
{
name = bottomright;
pos = (589,0);
},
{
name = center;
pos = (357,538);
},
{
name = top;
pos = (357,687);
},
{
name = topleft;
pos = (63,700);
}
);
layerId = "0D76174C-E7DB-4B5D-B958-B4B8505ED925";
shapes = (
{
closed = 1;
nodes = (
(239,0,l),
(239,299,l),
(475,299,l),
(475,0,l),
(589,0,l),
(589,494,l),
(690,494,l),
(690,581,l),
(589,581,l),
(589,700,l),
(475,700,l),
(475,581,l),
(239,581,l),
(239,700,l),
(125,700,l),
(125,581,l),
(23,581,l),
(23,494,l),
(125,494,l),
(125,0,l)
);
},
{
closed = 1;
nodes = (
(239,494,l),
(475,494,l),
(475,401,l),
(239,401,l)
);
}
);
width = 713;
},
{
anchors = (
{
name = _center;
pos = (380,563);
},
{
name = bottom;
pos = (379,0);
},
{
name = bottomright;
pos = (649,0);
},
{
name = center;
pos = (379,563);
},
{
name = top;
pos = (379,700);
},
{
name = topleft;
pos = (72,700);
}
);
layerId = "69BA87E8-A4A5-4412-BDDB-89C34BF38660";
shapes = (
{
closed = 1;
nodes = (
(319,0,l),
(319,269,l),
(439,269,l),
(439,0,l),
(649,0,l),
(649,492,l),
(738,492,l),
(738,636,l),
(649,636,l),
(649,700,l),
(439,700,l),
(439,636,l),
(319,636,l),
(319,700,l),
(109,700,l),
(109,636,l),
(20,636,l),
(20,492,l),
(109,492,l),
(109,0,l)
);
},
{
closed = 1;
nodes = (
(319,492,l),
(439,492,l),
(439,429,l),
(319,429,l)
);
}
);
width = 758;
}
);
metricLeft = t;
metricRight = "=|t";
unicode = 294;
},
{
color = 4;
glyphname = I;
kernLeft = KO_I;
kernRight = KO_I;
lastChange = "2025-01-20 07:45:44 +0000";
layers = (
{
anchors = (
{
name = bottom;
pos = (204,0);
},
{
name = ogonek;
pos = (357,0);
},
{
name = top;
pos = (204,675);
},
{
name = topleft;
pos = (20,700);
}
);
layerId = "5997FD7B-85B3-4973-BC7D-5D24E7B00D9D";
shapes = (
{
closed = 1;
nodes = (
(356,0,l),
(356,22,l),
(215,22,l),
(215,678,l),
(356,678,l),
(356,700,l),
(50,700,l),
(50,678,l),
(191,678,l),
(191,22,l),
(50,22,l),
(50,0,l)
);
}
);
width = 407;
},
{
anchors = (
{
name = bottom;
pos = (216,0);
},
{
name = ogonek;
pos = (381,0);
},
{
name = top;
pos = (216,687);
},
{
name = topleft;
pos = (20,700);
}
);
layerId = "0D76174C-E7DB-4B5D-B958-B4B8505ED925";
shapes = (
{
closed = 1;
nodes = (
(381,0,l),
(381,98,l),
(272,98,l),
(272,602,l),
(381,602,l),
(381,700,l),
(50,700,l),
(50,602,l),
(159,602,l),
(159,98,l),
(50,98,l),
(50,0,l)
);
}
);
width = 431;
},
{
anchors = (
{
name = bottom;
pos = (229,0);
},
{
name = ogonek;
pos = (406,0);
},
{
name = top;
pos = (229,700);
},
{
name = topleft;
pos = (20,700);
}
);
layerId = "69BA87E8-A4A5-4412-BDDB-89C34BF38660";
shapes = (
{
closed = 1;
nodes = (
(406,0,l),
(406,166,l),
(333,166,l),
(333,534,l),
(406,534,l),
(406,700,l),
(50,700,l),
(50,534,l),
(123,534,l),
(123,166,l),
(50,166,l),
(50,0,l)
);
}
);
width = 456.33333;
}
);
unicode = 73;
userData = {
KernOnName = I;
com.schriftgestaltung.Glyphs.ColorIndex = 3;
};
},
{
color = 9;
glyphname = I.ss01;
kernLeft = KO_H;
kernRight = KO_H;
lastChange = "2025-01-19 15:33:47 +0000";
layers = (
{
anchors = (
{
name = bottom;
pos = (117,0);
},
{
name = ogonek;
pos = (126,0);
},
{
name = top;
pos = (117,675);
},
{
name = topleft;
pos = (19,700);
}
);
layerId = "5997FD7B-85B3-4973-BC7D-5D24E7B00D9D";
shapes = (
{
closed = 1;
nodes = (
(129,0,l),
(129,700,l),
(105,700,l),
(105,0,l)
);
}
);
width = 234;
},
{
anchors = (
{
name = bottom;
pos = (139,0);
},
{
name = ogonek;
pos = (196,0);
},
{
name = top;
pos = (139,687);
},
{
name = topleft;
pos = (20,700);
}
);
layerId = "0D76174C-E7DB-4B5D-B958-B4B8505ED925";
shapes = (
{
closed = 1;
nodes = (
(196,0,l),
(196,700,l),
(82,700,l),
(82,0,l)
);
}
);
width = 277.8;
},
{
anchors = (
{
name = bottom;
pos = (161,0);
},
{
name = ogonek;
pos = (267,0);
},
{
name = top;
pos = (161,700);
},
{
name = topleft;
pos = (19,700);
}
);
layerId = "69BA87E8-A4A5-4412-BDDB-89C34BF38660";
shapes = (
{
closed = 1;
nodes = (
(266,0,l),
(266,700,l),
(56,700,l),
(56,0,l)
);
}
);
width = 322;
}
);
},
{
glyphname = IJ;
kernLeft = KO_I;
kernRight = KO_J;
lastChange = "2025-01-19 17:48:57 +0000";
layers = (
{
anchors = (
{
name = bottom;
pos = (204,0);
},
{
name = ogonek;
pos = (357,0);
},
{
name = top;
pos = (204,675);
},
{
name = topleft;
pos = (20,700);
}
);
layerId = "5997FD7B-85B3-4973-BC7D-5D24E7B00D9D";
shapes = (
{
closed = 1;
nodes = (
(676,-9,o),
(742,53,o),
(742,165,cs),
(742,700,l),
(419,700,l),
(419,678,l),
(718,678,l),
(718,165,ls),
(718,76,o),
(673,13,o),
(565,13,cs),
(517,13,o),
(465,30,o),
(419,64,c),
(419,40,l),
(460,9,o),
(511,-9,o),
(566,-9,cs)
);
},
{
closed = 1;
nodes = (
(356,0,l),
(356,22,l),
(215,22,l),
(215,678,l),
(356,678,l),
(356,700,l),
(50,700,l),
(50,678,l),
(191,678,l),
(191,22,l),
(50,22,l),
(50,0,l)
);
}
);
width = 847;
},
{
anchors = (
{
name = bottom;
pos = (216,0);
},
{
name = ogonek;
pos = (381,0);
},
{
name = top;
pos = (216,687);
},
{
name = topleft;
pos = (20,700);
}
);
layerId = "0D76174C-E7DB-4B5D-B958-B4B8505ED925";
shapes = (
{
closed = 1;
nodes = (
(743,-6,o),
(829,69,o),
(829,198,cs),
(829,700,l),
(455,700,l),
(455,602,l),
(716,602,l),
(716,198,ls),
(716,131,o),
(677,96,o),
(592,96,cs),
(547,96,o),
(501,110,o),
(455,133,c),
(455,30,l),
(498,7,o),
(553,-6,o),
(607,-6,cs)
);
},
{
closed = 1;
nodes = (
(381,0,l),
(381,98,l),
(272,98,l),
(272,602,l),
(381,602,l),
(381,700,l),
(50,700,l),
(50,602,l),
(159,602,l),
(159,98,l),
(50,98,l),
(50,0,l)
);
}
);
width = 911;
},
{
anchors = (
{
name = bottom;
pos = (229,0);
},
{
name = ogonek;
pos = (406,0);
},
{
name = top;
pos = (229,700);
},
{
name = topleft;
pos = (20,700);
}
);
layerId = "69BA87E8-A4A5-4412-BDDB-89C34BF38660";
shapes = (
{
closed = 1;
nodes = (
(777,-19,o),
(880,74,o),
(880,244,cs),
(880,700,l),
(480,700,l),
(480,535,l),
(668,535,l),
(668,244,ls),
(668,203,o),
(637,166,o),
(580,166,cs),
(543,166,o),
(510,175,o),
(480,195,c),
(480,9,l),
(518,-8,o),
(553,-19,o),
(610,-19,cs)
);
},
{
closed = 1;
nodes = (
(406,0,l),
(406,166,l),
(333,166,l),
(333,534,l),
(406,534,l),
(406,700,l),
(50,700,l),
(50,534,l),
(123,534,l),
(123,166,l),
(50,166,l),
(50,0,l)
);
}
);
width = 936;
}
);
unicode = 306;
},
{
color = 9;
glyphname = IJ.ss01;
kernLeft = KO_H;
lastChange = "2025-01-20 07:45:42 +0000";
layers = (
{
anchors = (
{
name = bottom;
pos = (117,0);
},
{
name = ogonek;
pos = (126,0);
},
{
name = top;
pos = (117,675);
},
{
name = topleft;
pos = (19,700);
}
);
layerId = "5997FD7B-85B3-4973-BC7D-5D24E7B00D9D";
shapes = (
{
closed = 1;
nodes = (
(398,-10,o),
(457,36,o),
(456,134,cs),
(452,700,l),
(432,700,l),
(432,134,ls),
(432,57,o),
(393,12,o),
(299,12,cs),
(270,12,o),
(239,21,o),
(212,36,c),
(212,12,l),
(229,3,o),
(266,-10,o),
(300,-10,cs)
);
},
{
closed = 1;
nodes = (
(129,0,l),
(129,700,l),
(105,700,l),
(105,0,l)
);
}
);
width = 551;
},
{
anchors = (
{
name = bottom;
pos = (139,0);
},
{
name = ogonek;
pos = (196,0);
},
{
name = top;
pos = (139,687);
},
{
name = topleft;
pos = (20,700);
}
);
layerId = "0D76174C-E7DB-4B5D-B958-B4B8505ED925";
shapes = (
{
closed = 1;
nodes = (
(500,-6,o),
(578,65,o),
(578,188,cs),
(578,700,l),
(465,700,l),
(465,188,ls),
(465,128,o),
(436,96,o),
(371,96,cs),
(339,96,o),
(307,106,o),
(274,123,c),
(274,20,l),
(303,3,o),
(340,-6,o),
(376,-6,cs)
);
},
{
closed = 1;
nodes = (
(196,0,l),
(196,700,l),
(82,700,l),
(82,0,l)
);
}
);
width = 653;
},
{
anchors = (
{
name = bottom;
pos = (161,0);
},
{
name = ogonek;
pos = (267,0);
},
{
name = top;
pos = (161,700);
},
{
name = topleft;
pos = (19,700);
}
);
layerId = "69BA87E8-A4A5-4412-BDDB-89C34BF38660";
shapes = (
{
closed = 1;
nodes = (
(604,-12,o),
(703,71,o),
(703,225,cs),
(703,700,l),
(491,700,l),
(491,225,ls),
(491,181,o),
(465,167,o),
(433,167,cs),
(400,167,o),
(371,171,o),
(336,190,c),
(336,16,l),
(375,-2,o),
(402,-12,o),
(463,-12,cs)
);
},
{
closed = 1;
nodes = (
(266,0,l),
(266,700,l),
(56,700,l),
(56,0,l)
);
}
);
width = 746;
}
);
},
{
color = 4;
glyphname = Idieresis;
kernLeft = KO_I;
kernRight = KO_I;
lastChange = "2026-02-06 09:47:51 +0000";
layers = (
{
anchors = (
{
name = bottom;
pos = (204,0);
},
{
name = ogonek;
pos = (357,0);
},
{
name = top;
pos = (204,838);
},
{
name = topleft;
pos = (20,700);
}
);
layerId = "5997FD7B-85B3-4973-BC7D-5D24E7B00D9D";
shapes = (
{
closed = 1;
nodes = (
(356,0,l),
(356,22,l),
(215,22,l),
(215,678,l),
(356,678,l),
(356,700,l),
(50,700,l),
(50,678,l),
(191,678,l),
(191,22,l),
(50,22,l),
(50,0,l)
);
},
{
closed = 1;
nodes = (
(275,795,l),
(275,883,l),
(251,883,l),
(251,795,l)
);
},
{
closed = 1;
nodes = (
(156,795,l),
(156,883,l),
(132,883,l),
(132,795,l)
);
}
);
width = 407;
},
{
anchors = (
{
name = bottom;
pos = (216,0);
},
{
name = ogonek;
pos = (381,0);
},
{
name = top;
pos = (216,870);
},
{
name = topleft;
pos = (20,700);
}
);
layerId = "0D76174C-E7DB-4B5D-B958-B4B8505ED925";
shapes = (
{
closed = 1;
nodes = (
(381,0,l),
(381,98,l),
(272,98,l),
(272,602,l),
(381,602,l),
(381,700,l),
(50,700,l),
(50,602,l),
(159,602,l),
(159,98,l),
(50,98,l),
(50,0,l)
);
},
{
closed = 1;
nodes = (
(339,775,l),
(339,883,l),
(237,883,l),
(237,775,l)
);
},
{
closed = 1;
nodes = (
(195,775,l),
(195,883,l),
(93,883,l),
(93,775,l)
);
}
);
width = 431;
},
{
anchors = (
{
name = bottom;
pos = (229,0);
},
{
name = ogonek;
pos = (406,0);
},
{
name = top;
pos = (229,883);
},
{
name = topleft;
pos = (20,700);
}
);
layerId = "69BA87E8-A4A5-4412-BDDB-89C34BF38660";
shapes = (
{
closed = 1;
nodes = (
(406,0,l),
(406,166,l),
(333,166,l),
(333,534,l),
(406,534,l),
(406,700,l),
(50,700,l),
(50,534,l),
(123,534,l),
(123,166,l),
(50,166,l),
(50,0,l)
);
},
{
closed = 1;
nodes = (
(403,750,l),
(403,883,l),
(254,883,l),
(254,750,l)
);
},
{
closed = 1;
nodes = (
(204,750,l),
(204,883,l),
(55,883,l),
(55,750,l)
);
}
);
width = 456;
}
);
unicode = 207;
},
{
glyphname = J;
kernLeft = KO_J;
kernRight = KO_J;
lastChange = "2025-01-20 07:45:44 +0000";
layers = (
{
anchors = (
{
name = bottom;
pos = (214,0);
},
{
name = top;
pos = (300,675);
}
);
layerId = "5997FD7B-85B3-4973-BC7D-5D24E7B00D9D";
shapes = (
{
closed = 1;
nodes = (
(242,-12,o),
(312,39,o),
(312,141,cs),
(312,700,l),
(112,700,l),
(112,678,l),
(288,678,l),
(288,141,ls),
(288,52,o),
(228,10,o),
(152,10,cs),
(93,10,o),
(37,41,o),
(17,86,c),
(10,58,l),
(31,17,o),
(90,-12,o),
(152,-12,cs)
);
}
);
width = 417;
},
{
anchors = (
{
name = bottom;
pos = (214,0);
},
{
name = top;
pos = (325,687);
}
);
layerId = "0D76174C-E7DB-4B5D-B958-B4B8505ED925";
shapes = (
{
closed = 1;
nodes = (
(300,-12,o),
(382,58,o),
(382,180,cs),
(382,700,l),
(117,700,l),
(117,601,l),
(269,601,l),
(269,180,ls),
(269,121,o),
(232,91,o),
(172,91,cs),
(126,91,o),
(75,105,o),
(44,139,c),
(10,46,l),
(56,7,o),
(115,-12,o),
(172,-12,cs)
);
}
);
width = 464;
},
{
anchors = (
{
name = bottom;
pos = (214,0);
},
{
name = top;
pos = (345,700);
}
);
layerId = "69BA87E8-A4A5-4412-BDDB-89C34BF38660";
shapes = (
{
closed = 1;
nodes = (
(352,-12,o),
(458,85,o),
(458,264,cs),
(458,700,l),
(122,700,l),
(122,520,l),
(248,520,l),
(248,264,ls),
(248,202,o),
(218,171,o),
(160,171,cs),
(123,171,o),
(99,178,o),
(72,194,c),
(10,33,l),
(60,4,o),
(98,-12,o),
(177,-12,cs)
);
}
);
width = 514;
}
);
metricRight = H;
unicode = 74;
userData = {
KernOnName = J;
com.schriftgestaltung.Glyphs.ColorIndex = 3;
com.schriftgestaltung.Glyphs.layer.rightMetricsKey = "==H";
com.schriftgestaltung.Glyphs.rightMetricsKey = H;
com.typemytype.robofont.layerData = {
background = {
anchors = (
);
components = (
);
contours = (
{
points = (
{
segmentType = line;
smooth = 0;
x = 455;
y = 700;
},
{
segmentType = line;
smooth = 0;
x = 313;
y = 700;
},
{
segmentType = line;
smooth = 0;
x = 313;
y = 190;
},
{
smooth = 0;
x = 313;
y = 157;
},
{
smooth = 0;
x = 305;
y = 116;
},
{
segmentType = curve;
smooth = 1;
x = 254;
y = 116;
},
{
smooth = 0;
x = 209;
y = 116;
},
{
smooth = 0;
x = 185;
y = 123;
},
{
segmentType = curve;
smooth = 0;
x = 153;
y = 139;
},
{
segmentType = line;
smooth = 0;
x = 127;
y = 19;
},
{
smooth = 0;
x = 162;
y = -1;
},
{
smooth = 0;
x = 210;
y = -12;
},
{
segmentType = curve;
smooth = 1;
x = 254;
y = -12;
},
{
smooth = 0;
x = 425;
y = -12;
},
{
smooth = 0;
x = 455;
y = 97;
},
{
segmentType = curve;
smooth = 0;
x = 455;
y = 190;
}
);
}
);
lib = {
};
name = J;
unicodes = (
);
width = 447;
};
};
};
},
{
color = 9;
glyphname = J.ss01;
lastChange = "2025-01-19 15:33:47 +0000";
layers = (
{
anchors = (
{
name = bottom;
pos = (108,0);
},
{
name = top;
pos = (242,675);
}
);
layerId = "5997FD7B-85B3-4973-BC7D-5D24E7B00D9D";
shapes = (
{
closed = 1;
nodes = (
(198,-10,o),
(257,36,o),
(256,134,cs),
(252,700,l),
(232,700,l),
(232,134,ls),
(232,57,o),
(193,12,o),
(99,12,cs),
(72,12,o),
(43,19,o),
(17,31,c),
(12,12,l),
(29,3,o),
(66,-10,o),
(100,-10,cs)
);
}
);
width = 351;
},
{
anchors = (
{
name = bottom;
pos = (190,0);
},
{
name = top;
pos = (258,687);
}
);
layerId = "0D76174C-E7DB-4B5D-B958-B4B8505ED925";
shapes = (
{
closed = 1;
nodes = (
(236,-6,o),
(314,65,o),
(314,188,cs),
(314,700,l),
(201,700,l),
(201,188,ls),
(201,128,o),
(172,96,o),
(107,96,cs),
(82,96,o),
(56,101,o),
(30,109,c),
(10,20,l),
(39,3,o),
(76,-6,o),
(112,-6,cs)
);
}
);
width = 389;
},
{
anchors = (
{
name = bottom;
pos = (195,0);
},
{
name = top;
pos = (262,700);
}
);
layerId = "69BA87E8-A4A5-4412-BDDB-89C34BF38660";
shapes = (
{
closed = 1;
nodes = (
(268,-12,o),
(367,71,o),
(367,225,cs),
(367,700,l),
(155,700,l),
(155,225,ls),
(155,181,o),
(129,167,o),
(97,167,cs),
(76,167,o),
(57,169,o),
(34,181,c),
(0,16,l),
(39,-2,o),
(66,-12,o),
(127,-12,cs)
);
}
);
width = 410;
}
);
},
{
glyphname = K;
kernLeft = KO_H;
kernRight = KO_K;
lastChange = "2025-01-19 17:48:57 +0000";
layers = (
{
anchors = (
{
name = bottom;
pos = (246,0);
},
{
name = top;
pos = (246,675);
}
);
layerId = "5997FD7B-85B3-4973-BC7D-5D24E7B00D9D";
shapes = (
{
closed = 1;
nodes = (
(129,0,l),
(129,339,l),
(212,339,l),
(436,0,l),
(465,0,l),
(232,353,l),
(457,700,l),
(428,700,l),
(209,361,l),
(129,361,l),
(129,700,l),
(105,700,l),
(105,0,l)
);
}
);
width = 499;
},
{
anchors = (
{
name = bottom;
pos = (280,0);
},
{
name = top;
pos = (280,687);
}
);
layerId = "0D76174C-E7DB-4B5D-B958-B4B8505ED925";
shapes = (
{
closed = 1;
nodes = (
(194,0,l),
(194,302,l),
(261,302,l),
(408,0,l),
(529,0,l),
(355,358,l),
(530,700,l),
(408,700,l),
(261,399,l),
(194,399,l),
(194,700,l),
(82,700,l),
(82,0,l)
);
}
);
width = 557.2;
},
{
anchors = (
{
name = bottom;
pos = (318,0);
},
{
name = top;
pos = (318,700);
}
);
layerId = "69BA87E8-A4A5-4412-BDDB-89C34BF38660";
shapes = (
{
closed = 1;
nodes = (
(266,0,l),
(266,270,l),
(311,270,l),
(382,0,l),
(602,0,l),
(489,363,l),
(612,700,l),
(388,700,l),
(311,429,l),
(266,429,l),
(266,700,l),
(56,700,l),
(56,0,l)
);
}
);
width = 626;
}
);
metricLeft = H;
unicode = 75;
userData = {
com.schriftgestaltung.Glyphs.ColorIndex = 3;
com.schriftgestaltung.Glyphs.layer.leftMetricsKey = "==H";
com.schriftgestaltung.Glyphs.leftMetricsKey = H;
};
},
{
glyphname = L;
kernLeft = KO_H;
kernRight = KO_L;
lastChange = "2025-01-20 07:45:44 +0000";
layers = (
{
anchors = (
{
name = bottom;
pos = (265,0);
},
{
name = center;
pos = (127,416);
},
{
name = top;
pos = (117,675);
},
{
name = topright;
pos = (408,700);
}
);
layerId = "5997FD7B-85B3-4973-BC7D-5D24E7B00D9D";
shapes = (
{
closed = 1;
nodes = (
(422,0,l),
(422,22,l),
(129,22,l),
(129,700,l),
(105,700,l),
(105,0,l)
);
}
);
width = 448;
},
{
anchors = (
{
name = bottom;
pos = (251,0);
},
{
name = center;
pos = (142,416);
},
{
name = top;
pos = (141,687);
},
{
name = topright;
pos = (356,700);
}
);
layerId = "0D76174C-E7DB-4B5D-B958-B4B8505ED925";
shapes = (
{
closed = 1;
nodes = (
(423,0,l),
(423,103,l),
(196,103,l),
(196,700,l),
(82,700,l),
(82,0,l)
);
}
);
width = 448.8;
},
{
anchors = (
{
name = bottom;
pos = (246,0);
},
{
name = center;
pos = (158,416);
},
{
name = top;
pos = (158,700);
},
{
name = topright;
pos = (333,700);
}
);
layerId = "69BA87E8-A4A5-4412-BDDB-89C34BF38660";
shapes = (
{
closed = 1;
nodes = (
(434,0,l),
(434,180,l),
(267,180,l),
(267,700,l),
(56,700,l),
(56,0,l)
);
}
);
width = 454;
}
);
metricLeft = H;
metricRight = T;
unicode = 76;
userData = {
KernOnName = L;
com.schriftgestaltung.Glyphs.ColorIndex = 3;
com.schriftgestaltung.Glyphs.layer.leftMetricsKey = "==H";
com.schriftgestaltung.Glyphs.leftMetricsKey = H;
};
},
{
glyphname = Ldot;
lastChange = "2025-01-20 06:16:01 +0000";
layers = (
{
anchors = (
{
name = bottom;
pos = (265,0);
},
{
name = center;
pos = (127,416);
},
{
name = top;
pos = (117,675);
},
{
name = topright;
pos = (408,700);
}
);
guides = (
{
angle = 90;
pos = (422,0);
}
);
layerId = "5997FD7B-85B3-4973-BC7D-5D24E7B00D9D";
shapes = (
{
closed = 1;
nodes = (
(422,0,l),
(422,22,l),
(129,22,l),
(129,700,l),
(105,700,l),
(105,0,l)
);
},
{
closed = 1;
nodes = (
(354,299,l),
(354,399,l),
(332,399,l),
(332,299,l)
);
}
);
width = 440;
},
{
anchors = (
{
name = bottom;
pos = (251,0);
},
{
name = center;
pos = (142,416);
},
{
name = top;
pos = (141,687);
},
{
name = topright;
pos = (376,700);
}
);
guides = (
{
pos = (209,0);
},
{
angle = 90;
pos = (423,0);
}
);
layerId = "0D76174C-E7DB-4B5D-B958-B4B8505ED925";
shapes = (
{
closed = 1;
nodes = (
(423,0,l),
(423,103,l),
(196,103,l),
(196,700,l),
(82,700,l),
(82,0,l)
);
},
{
closed = 1;
nodes = (
(423,290,l),
(423,410,l),
(309,410,l),
(309,290,l)
);
}
);
width = 449;
},
{
anchors = (
{
name = bottom;
pos = (246,0);
},
{
name = center;
pos = (158,416);
},
{
name = top;
pos = (158,700);
},
{
name = topright;
pos = (353,700);
}
);
guides = (
{
angle = 90;
pos = (434,0);
}
);
layerId = "69BA87E8-A4A5-4412-BDDB-89C34BF38660";
shapes = (
{
closed = 1;
nodes = (
(434,0,l),
(434,180,l),
(267,180,l),
(267,700,l),
(56,700,l),
(56,0,l)
);
},
{
closed = 1;
nodes = (
(468,264,l),
(468,434,l),
(325,434,l),
(325,264,l)
);
}
);
width = 454;
}
);
unicode = 319;
},
{
glyphname = Lj;
lastChange = "2026-02-06 12:41:39 +0000";
layers = (
{
anchors = (
{
name = bottom;
pos = (524,-250);
},
{
name = center;
pos = (127,416);
},
{
name = top;
pos = (523,655);
},
{
name = topright;
pos = (408,700);
}
);
layerId = "5997FD7B-85B3-4973-BC7D-5D24E7B00D9D";
shapes = (
{
closed = 1;
nodes = (
(422,0,l),
(422,22,l),
(129,22,l),
(129,700,l),
(105,700,l),
(105,0,l)
);
},
{
closed = 1;
nodes = (
(509,-176,o),
(535,-115,o),
(535,1,cs),
(535,492,l),
(457,492,l),
(457,470,l),
(511,470,l),
(511,1,ls),
(511,-105,o),
(489,-161,o),
(420,-197,c),
(432,-215,l)
);
},
{
closed = 1;
nodes = (
(535,612,l),
(535,700,l),
(511,700,l),
(511,612,l)
);
}
);
width = 620;
},
{
anchors = (
{
name = bottom;
pos = (570,-250);
},
{
name = center;
pos = (142,416);
},
{
name = top;
pos = (590,700);
},
{
name = topright;
pos = (356,700);
}
);
layerId = "0D76174C-E7DB-4B5D-B958-B4B8505ED925";
shapes = (
{
closed = 1;
nodes = (
(423,0,l),
(423,103,l),
(196,103,l),
(196,700,l),
(82,700,l),
(82,0,l)
);
},
{
closed = 1;
nodes = (
(565,-199,o),
(643,-132,o),
(643,9,cs),
(644,504,l),
(457,504,l),
(457,414,l),
(535,414,l),
(535,6,ls),
(535,-70,o),
(498,-113,o),
(441,-129,c),
(471,-222,l)
);
},
{
closed = 1;
nodes = (
(644,592,l),
(644,700,l),
(536,700,l),
(536,592,l)
);
}
);
width = 721;
},
{
anchors = (
{
name = bottom;
pos = (611,-250);
},
{
name = center;
pos = (158,416);
},
{
name = top;
pos = (646,700);
},
{
name = topright;
pos = (333,700);
}
);
layerId = "69BA87E8-A4A5-4412-BDDB-89C34BF38660";
shapes = (
{
closed = 1;
nodes = (
(434,0,l),
(434,180,l),
(267,180,l),
(267,700,l),
(56,700,l),
(56,0,l)
);
},
{
closed = 1;
nodes = (
(596,-222,o),
(745,-164,o),
(745,28,cs),
(744,517,l),
(455,517,l),
(455,358,l),
(548,358,l),
(548,28,ls),
(548,-16,o),
(508,-43,o),
(447,-49,c),
(490,-222,l)
);
},
{
closed = 1;
nodes = (
(745,567,l),
(745,700,l),
(548,700,l),
(548,567,l)
);
}
);
width = 785;
}
);
unicode = 456;
},
{
color = 9;
glyphname = Lj.ss01;
lastChange = "2026-02-13 12:04:42 +0000";
layers = (
{
anchors = (
{
name = bottom;
pos = (518,-250);
},
{
name = center;
pos = (127,416);
},
{
name = top;
pos = (518,655);
},
{
name = topright;
pos = (408,700);
}
);
layerId = "5997FD7B-85B3-4973-BC7D-5D24E7B00D9D";
shapes = (
{
closed = 1;
nodes = (
(422,0,l),
(422,22,l),
(129,22,l),
(129,700,l),
(105,700,l),
(105,0,l)
);
},
{
closed = 1;
nodes = (
(504,-176,o),
(529,-115,o),
(530,1,cs),
(530,492,l),
(506,492,l),
(506,1,l),
(506,-105,o),
(484,-161,o),
(415,-197,c),
(427,-215,l)
);
},
{
closed = 1;
nodes = (
(530,612,l),
(530,700,l),
(506,700,l),
(506,612,l)
);
}
);
width = 615;
},
{
anchors = (
{
name = bottom;
pos = (571,-250);
},
{
name = center;
pos = (142,416);
},
{
name = top;
pos = (571,700);
},
{
name = topright;
pos = (356,700);
}
);
layerId = "0D76174C-E7DB-4B5D-B958-B4B8505ED925";
shapes = (
{
closed = 1;
nodes = (
(423,0,l),
(423,103,l),
(196,103,l),
(196,700,l),
(82,700,l),
(82,0,l)
);
},
{
closed = 1;
nodes = (
(546,-199,o),
(624,-132,o),
(624,9,cs),
(625,504,l),
(516,504,l),
(516,6,ls),
(516,-70,o),
(479,-113,o),
(422,-129,c),
(452,-222,l)
);
},
{
closed = 1;
nodes = (
(625,592,l),
(625,700,l),
(517,700,l),
(517,592,l)
);
}
);
width = 702;
},
{
anchors = (
{
name = bottom;
pos = (595,-250);
},
{
name = center;
pos = (158,416);
},
{
name = top;
pos = (595,700);
},
{
name = topright;
pos = (333,700);
}
);
layerId = "69BA87E8-A4A5-4412-BDDB-89C34BF38660";
shapes = (
{
closed = 1;
nodes = (
(434,0,l),
(434,180,l),
(267,180,l),
(267,700,l),
(56,700,l),
(56,0,l)
);
},
{
closed = 1;
nodes = (
(568,-222,o),
(694,-164,o),
(694,28,cs),
(693,517,l),
(497,517,l),
(497,28,l),
(497,-16,o),
(473,-43,o),
(436,-49,c),
(479,-222,l)
);
},
{
closed = 1;
nodes = (
(694,567,l),
(694,700,l),
(497,700,l),
(497,567,l)
);
}
);
width = 734;
}
);
},
{
color = 4;
glyphname = Lslash;
lastChange = "2025-01-19 15:32:04 +0000";
layers = (
{
anchors = (
{
name = bottom;
pos = (268,0);
},
{
name = center;
pos = (130,416);
},
{
name = top;
pos = (120,675);
},
{
name = topright;
pos = (411,700);
}
);
layerId = "5997FD7B-85B3-4973-BC7D-5D24E7B00D9D";
shapes = (
{
closed = 1;
nodes = (
(425,0,l),
(425,22,l),
(132,22,l),
(132,355,l),
(304,472,l),
(304,496,l),
(132,379,l),
(132,700,l),
(108,700,l),
(108,363,l),
(20,303,l),
(20,279,l),
(108,339,l),
(108,0,l)
);
}
);
width = 451;
},
{
anchors = (
{
name = bottom;
pos = (270,0);
},
{
name = center;
pos = (161,416);
},
{
name = top;
pos = (160,687);
},
{
name = topright;
pos = (395,700);
}
);
layerId = "0D76174C-E7DB-4B5D-B958-B4B8505ED925";
shapes = (
{
closed = 1;
nodes = (
(442,0,l),
(442,103,l),
(215,103,l),
(215,364,l),
(353,459,l),
(353,559,l),
(215,464,l),
(215,700,l),
(101,700,l),
(101,385,l),
(23,331,l),
(23,231,l),
(101,285,l),
(101,0,l)
);
}
);
width = 468;
},
{
anchors = (
{
name = bottom;
pos = (276,0);
},
{
name = center;
pos = (188,416);
},
{
name = top;
pos = (188,700);
},
{
name = topright;
pos = (383,700);
}
);
layerId = "69BA87E8-A4A5-4412-BDDB-89C34BF38660";
shapes = (
{
closed = 1;
nodes = (
(464,0,l),
(464,180,l),
(297,180,l),
(297,372,l),
(400,444,l),
(400,626,l),
(297,555,l),
(297,700,l),
(86,700,l),
(86,409,l),
(20,363,l),
(20,180,l),
(86,226,l),
(86,0,l)
);
}
);
width = 484;
}
);
metricLeft = t;
metricRight = L;
unicode = 321;
},
{
glyphname = M;
kernLeft = KO_H;
kernRight = KO_H;
lastChange = "2025-01-19 17:48:57 +0000";
layers = (
{
anchors = (
{
name = bottom;
pos = (334,0);
},
{
name = bottomright;
pos = (561,0);
},
{
name = top;
pos = (334,675);
}
);
layerId = "5997FD7B-85B3-4973-BC7D-5D24E7B00D9D";
shapes = (
{
closed = 1;
nodes = (
(129,0,l),
(129,589,l),
(122,641,ls),
(121,650,o),
(129,652,o),
(133,644,cs),
(321,294,l),
(345,294,l),
(533,644,ls),
(537,652,o),
(545,650,o),
(544,641,cs),
(537,589,l),
(537,0,l),
(561,0,l),
(561,700,l),
(539,700,l),
(340,327,ls),
(336,319,o),
(330,319,o),
(326,327,cs),
(127,700,l),
(105,700,l),
(105,0,l)
);
}
);
width = 666;
},
{
anchors = (
{
name = bottom;
pos = (338,0);
},
{
name = bottomright;
pos = (592,0);
},
{
name = top;
pos = (338,687);
}
);
layerId = "0D76174C-E7DB-4B5D-B958-B4B8505ED925";
shapes = (
{
closed = 1;
nodes = (
(190,0,l),
(190,390,l),
(178,463,ls),
(177,472,o),
(187,477,o),
(193,467,c),
(311,251,l),
(362,251,l),
(481,467,ls),
(487,477,o),
(497,472,o),
(495,463,cs),
(484,390,l),
(484,0,l),
(592,0,l),
(592,700,l),
(498,700,l),
(346,414,ls),
(341,404,o),
(332,404,o),
(328,414,cs),
(176,700,l),
(82,700,l),
(82,0,l)
);
}
);
width = 673.6;
},
{
anchors = (
{
name = bottom;
pos = (371,0);
},
{
name = bottomright;
pos = (673,0);
},
{
name = top;
pos = (371,700);
}
);
layerId = "69BA87E8-A4A5-4412-BDDB-89C34BF38660";
shapes = (
{
closed = 1;
nodes = (
(256,0,l),
(256,199,l),
(228,360,ls),
(226,371,o),
(239,377,o),
(246,368,c),
(338,195,l),
(391,195,l),
(483,368,l),
(490,377,o),
(503,371,o),
(501,360,cs),
(473,199,l),
(473,0,l),
(673,0,l),
(673,700,l),
(473,700,l),
(375,495,ls),
(370,484,o),
(360,484,o),
(355,495,cs),
(256,700,l),
(56,700,l),
(56,0,l)
);
}
);
width = 729;
}
);
metricLeft = H;
metricRight = H;
unicode = 77;
userData = {
com.schriftgestaltung.Glyphs.ColorIndex = 3;
com.schriftgestaltung.Glyphs.layer.leftMetricsKey = "==H";
com.schriftgestaltung.Glyphs.layer.rightMetricsKey = "==H";
com.schriftgestaltung.Glyphs.leftMetricsKey = H;
com.schriftgestaltung.Glyphs.rightMetricsKey = H;
};
},
{
glyphname = N;
kernLeft = KO_H;
kernRight = KO_H;
lastChange = "2025-01-19 17:48:57 +0000";
layers = (
{
anchors = (
{
name = bottom;
pos = (305,0);
},
{
name = part.hook;
pos = (105,0);
},
{
name = top;
pos = (305,675);
}
);
layerId = "5997FD7B-85B3-4973-BC7D-5D24E7B00D9D";
shapes = (
{
closed = 1;
nodes = (
(129,0,l),
(129,586,l),
(123,640,ls),
(122,648,o),
(130,650,o),
(134,643,cs),
(479,0,l),
(502,0,l),
(502,700,l),
(478,700,l),
(478,120,l),
(486,60,ls),
(487,51,o),
(479,49,o),
(475,56,cs),
(130,700,l),
(105,700,l),
(105,0,l)
);
}
);
width = 607;
},
{
anchors = (
{
name = bottom;
pos = (315,0);
},
{
name = part.hook;
pos = (82,0);
},
{
name = top;
pos = (315,687);
}
);
layerId = "0D76174C-E7DB-4B5D-B958-B4B8505ED925";
shapes = (
{
closed = 1;
nodes = (
(190,0,l),
(190,385,l),
(178,460,ls),
(176,470,o),
(187,475,o),
(193,464,cs),
(448,0,l),
(548,0,l),
(548,700,l),
(440,700,l),
(440,299,l),
(452,224,ls),
(454,214,o),
(444,208,o),
(438,218,cs),
(175,700,l),
(82,700,l),
(82,0,l)
);
}
);
width = 629.8;
},
{
anchors = (
{
name = bottom;
pos = (343,0);
},
{
name = part.hook;
pos = (56,0);
},
{
name = top;
pos = (334,700);
}
);
background = {
shapes = (
{
closed = 1;
nodes = (
(229,0,l),
(229,290,l),
(215,378,ls),
(213,388,o),
(225,394,o),
(231,384,cs),
(449,0,l),
(579,0,l),
(579,700,l),
(429,700,l),
(429,410,l),
(444,322,ls),
(446,312,o),
(434,306,o),
(428,316,cs),
(209,700,l),
(79,700,l),
(79,0,l)
);
}
);
};
layerId = "69BA87E8-A4A5-4412-BDDB-89C34BF38660";
shapes = (
{
closed = 1;
nodes = (
(266,0,l),
(266,224,l),
(251,321,ls),
(249,334,o),
(264,341,o),
(269,329,cs),
(414,0,l),
(604,0,l),
(604,700,l),
(394,700,l),
(394,493,l),
(411,397,ls),
(414,381,o),
(398,375,o),
(391,391,cs),
(256,700,l),
(56,700,l),
(56,0,l)
);
}
);
width = 660;
}
);
metricLeft = H;
metricRight = H;
unicode = 78;
userData = {
com.schriftgestaltung.Glyphs.ColorIndex = 3;
com.schriftgestaltung.Glyphs.layer.leftMetricsKey = "==H";
com.schriftgestaltung.Glyphs.layer.rightMetricsKey = "==H";
com.schriftgestaltung.Glyphs.leftMetricsKey = H;
com.schriftgestaltung.Glyphs.rightMetricsKey = H;
};
},
{
glyphname = Nj;
lastChange = "2026-02-06 12:41:43 +0000";
layers = (
{
anchors = (
{
name = bottom;
pos = (697,-250);
},
{
name = part.hook;
pos = (105,0);
},
{
name = top;
pos = (696,655);
}
);
layerId = "5997FD7B-85B3-4973-BC7D-5D24E7B00D9D";
shapes = (
{
closed = 1;
nodes = (
(129,0,l),
(129,586,l),
(123,640,ls),
(122,648,o),
(130,650,o),
(134,643,cs),
(479,0,l),
(502,0,l),
(502,700,l),
(478,700,l),
(478,120,l),
(486,60,ls),
(487,51,o),
(479,49,o),
(475,56,cs),
(130,700,l),
(105,700,l),
(105,0,l)
);
},
{
closed = 1;
nodes = (
(682,-176,o),
(708,-115,o),
(708,1,cs),
(708,492,l),
(630,492,l),
(630,470,l),
(684,470,l),
(684,1,ls),
(684,-105,o),
(662,-161,o),
(593,-197,c),
(605,-215,l)
);
},
{
closed = 1;
nodes = (
(708,612,l),
(708,700,l),
(684,700,l),
(684,612,l)
);
}
);
width = 793;
},
{
anchors = (
{
name = bottom;
pos = (767,-250);
},
{
name = part.hook;
pos = (82,0);
},
{
name = top;
pos = (787,700);
}
);
layerId = "0D76174C-E7DB-4B5D-B958-B4B8505ED925";
shapes = (
{
closed = 1;
nodes = (
(190,0,l),
(190,385,l),
(178,460,ls),
(176,470,o),
(187,475,o),
(193,464,cs),
(448,0,l),
(548,0,l),
(548,700,l),
(440,700,l),
(440,299,l),
(452,224,ls),
(454,214,o),
(444,208,o),
(438,218,cs),
(175,700,l),
(82,700,l),
(82,0,l)
);
},
{
closed = 1;
nodes = (
(762,-199,o),
(840,-132,o),
(840,9,cs),
(841,504,l),
(654,504,l),
(654,414,l),
(732,414,l),
(732,6,ls),
(732,-70,o),
(695,-113,o),
(638,-129,c),
(668,-222,l)
);
},
{
closed = 1;
nodes = (
(841,592,l),
(841,700,l),
(733,700,l),
(733,592,l)
);
}
);
width = 918;
},
{
anchors = (
{
name = bottom;
pos = (834,-250);
},
{
name = part.hook;
pos = (56,0);
},
{
name = top;
pos = (869,700);
}
);
layerId = "69BA87E8-A4A5-4412-BDDB-89C34BF38660";
shapes = (
{
closed = 1;
nodes = (
(266,0,l),
(266,224,l),
(251,321,ls),
(249,334,o),
(264,341,o),
(269,329,cs),
(414,0,l),
(604,0,l),
(604,700,l),
(394,700,l),
(394,493,l),
(411,397,ls),
(414,381,o),
(398,375,o),
(391,391,cs),
(256,700,l),
(56,700,l),
(56,0,l)
);
},
{
closed = 1;
nodes = (
(819,-222,o),
(968,-164,o),
(968,28,cs),
(967,517,l),
(678,517,l),
(678,358,l),
(771,358,l),
(771,28,ls),
(771,-16,o),
(731,-43,o),
(670,-49,c),
(713,-222,l)
);
},
{
closed = 1;
nodes = (
(968,567,l),
(968,700,l),
(771,700,l),
(771,567,l)
);
}
);
width = 1008;
}
);
unicode = 459;
},
{
color = 9;
glyphname = Nj.ss01;
lastChange = "2026-02-13 12:04:24 +0000";
layers = (
{
anchors = (
{
name = bottom;
pos = (689,-250);
},
{
name = part.hook;
pos = (105,0);
},
{
name = top;
pos = (689,655);
}
);
layerId = "5997FD7B-85B3-4973-BC7D-5D24E7B00D9D";
shapes = (
{
closed = 1;
nodes = (
(129,0,l),
(129,586,l),
(123,640,ls),
(122,648,o),
(130,650,o),
(134,643,cs),
(479,0,l),
(502,0,l),
(502,700,l),
(478,700,l),
(478,120,l),
(486,60,ls),
(487,51,o),
(479,49,o),
(475,56,cs),
(130,700,l),
(105,700,l),
(105,0,l)
);
},
{
closed = 1;
nodes = (
(675,-176,o),
(700,-115,o),
(701,1,cs),
(701,492,l),
(677,492,l),
(677,1,l),
(677,-105,o),
(655,-161,o),
(586,-197,c),
(598,-215,l)
);
},
{
closed = 1;
nodes = (
(701,612,l),
(701,700,l),
(677,700,l),
(677,612,l)
);
}
);
width = 786;
},
{
anchors = (
{
name = bottom;
pos = (754,-250);
},
{
name = part.hook;
pos = (82,0);
},
{
name = top;
pos = (754,700);
}
);
layerId = "0D76174C-E7DB-4B5D-B958-B4B8505ED925";
shapes = (
{
closed = 1;
nodes = (
(190,0,l),
(190,385,l),
(178,460,ls),
(176,470,o),
(187,475,o),
(193,464,cs),
(448,0,l),
(548,0,l),
(548,700,l),
(440,700,l),
(440,299,l),
(452,224,ls),
(454,214,o),
(444,208,o),
(438,218,cs),
(175,700,l),
(82,700,l),
(82,0,l)
);
},
{
closed = 1;
nodes = (
(729,-199,o),
(807,-132,o),
(807,9,cs),
(808,504,l),
(699,504,l),
(699,6,ls),
(699,-70,o),
(662,-113,o),
(605,-129,c),
(635,-222,l)
);
},
{
closed = 1;
nodes = (
(808,592,l),
(808,700,l),
(700,700,l),
(700,592,l)
);
}
);
width = 885;
},
{
anchors = (
{
name = bottom;
pos = (793,-250);
},
{
name = part.hook;
pos = (56,0);
},
{
name = top;
pos = (793,700);
}
);
layerId = "69BA87E8-A4A5-4412-BDDB-89C34BF38660";
shapes = (
{
closed = 1;
nodes = (
(266,0,l),
(266,224,l),
(251,321,ls),
(249,334,o),
(264,341,o),
(269,329,cs),
(414,0,l),
(604,0,l),
(604,700,l),
(394,700,l),
(394,493,l),
(411,397,ls),
(414,381,o),
(398,375,o),
(391,391,cs),
(256,700,l),
(56,700,l),
(56,0,l)
);
},
{
closed = 1;
nodes = (
(766,-222,o),
(892,-164,o),
(892,28,cs),
(891,517,l),
(695,517,l),
(695,28,l),
(695,-16,o),
(671,-43,o),
(634,-49,c),
(677,-222,l)
);
},
{
closed = 1;
nodes = (
(892,567,l),
(892,700,l),
(695,700,l),
(695,567,l)
);
}
);
width = 932;
}
);
},
{
glyphname = Eng;
kernLeft = KO_H;
kernRight = KO_H;
lastChange = "2025-01-19 17:48:57 +0000";
layers = (
{
anchors = (
{
name = bottom;
pos = (305,0);
},
{
name = top;
pos = (305,675);
}
);
layerId = "5997FD7B-85B3-4973-BC7D-5D24E7B00D9D";
shapes = (
{
closed = 1;
nodes = (
(129,0,l),
(129,586,l),
(123,640,ls),
(122,648,o),
(130,650,o),
(134,643,cs),
(478,2,l),
(478,-59,ls),
(478,-148,o),
(418,-190,o),
(342,-190,cs),
(293,-190,o),
(247,-164,o),
(221,-135,c),
(216,-158,l),
(242,-185,o),
(291,-212,o),
(342,-212,cs),
(432,-212,o),
(502,-161,o),
(502,-59,cs),
(502,700,l),
(478,700,l),
(478,120,l),
(486,60,ls),
(487,51,o),
(479,49,o),
(475,56,cs),
(130,700,l),
(105,700,l),
(105,0,l)
);
}
);
width = 607;
},
{
anchors = (
{
name = bottom;
pos = (315,0);
},
{
name = top;
pos = (315,687);
}
);
layerId = "0D76174C-E7DB-4B5D-B958-B4B8505ED925";
shapes = (
{
closed = 1;
nodes = (
(190,0,l),
(190,385,l),
(178,460,ls),
(176,470,o),
(187,475,o),
(193,464,cs),
(435,24,l),
(435,-12,ls),
(435,-78,o),
(399,-112,o),
(342,-111,cs),
(303,-111,o),
(263,-96,o),
(232,-61,c),
(198,-154,l),
(245,-193,o),
(294,-212,o),
(358,-212,cs),
(470,-212,o),
(548,-142,o),
(548,-20,cs),
(548,700,l),
(440,700,l),
(440,299,l),
(452,224,ls),
(454,214,o),
(444,208,o),
(438,218,cs),
(175,700,l),
(82,700,l),
(82,0,l)
);
}
);
width = 629.8;
},
{
anchors = (
{
name = bottom;
pos = (343,0);
},
{
name = top;
pos = (334,700);
}
);
layerId = "69BA87E8-A4A5-4412-BDDB-89C34BF38660";
shapes = (
{
closed = 1;
nodes = (
(266,0,l),
(266,224,l),
(251,321,ls),
(249,334,o),
(264,341,o),
(269,329,cs),
(395,43,l),
(395,30,ls),
(395,-9,o),
(379,-29,o),
(347,-29,cs),
(323,-29,o),
(307,-22,o),
(289,-6,c),
(227,-167,l),
(274,-196,o),
(320,-212,o),
(384,-212,cs),
(522,-212,o),
(604,-137,o),
(604,0,c),
(604,700,l),
(394,700,l),
(394,493,l),
(411,397,ls),
(414,381,o),
(398,375,o),
(391,391,cs),
(256,700,l),
(56,700,l),
(56,0,l)
);
}
);
width = 660;
}
);
metricLeft = N;
metricRight = N;
unicode = 330;
},
{
glyphname = O;
kernLeft = KO_O;
kernRight = KO_O;
lastChange = "2025-01-20 07:45:44 +0000";
layers = (
{
anchors = (
{
name = bottom;
pos = (297,0);
},
{
name = center;
pos = (297,350);
},
{
name = ogonek;
pos = (372,0);
},
{
name = top;
pos = (297,675);
},
{
name = topleft;
pos = (20,700);
},
{
name = topright;
pos = (403,700);
}
);
background = {
shapes = (
{
closed = 1;
nodes = (
(408,-12,o),
(471,30,o),
(506,98,cs),
(539,163,o),
(546,251,o),
(546,350,cs),
(546,449,o),
(539,537,o),
(506,602,cs),
(471,670,o),
(408,712,o),
(303,712,cs),
(198,712,o),
(135,670,o),
(100,602,cs),
(67,537,o),
(60,449,o),
(60,350,cs),
(60,251,o),
(67,163,o),
(100,98,cs),
(135,30,o),
(198,-12,o),
(303,-12,cs)
);
},
{
closed = 1;
nodes = (
(210,9,o),
(150,51,o),
(121,109,cs),
(87,175,o),
(84,284,o),
(84,350,cs),
(84,416,o),
(87,525,o),
(121,591,cs),
(150,649,o),
(210,691,o),
(303,691,cs),
(396,691,o),
(456,649,o),
(485,591,cs),
(519,525,o),
(520,416,o),
(522,350,cs),
(524,284,o),
(519,175,o),
(485,109,cs),
(456,51,o),
(396,9,o),
(303,9,cs)
);
},
{
closed = 1;
nodes = (
(408,-12,o),
(471,30,o),
(506,98,cs),
(539,163,o),
(546,251,o),
(546,350,cs),
(546,449,o),
(539,537,o),
(506,602,cs),
(471,670,o),
(408,712,o),
(303,712,cs),
(198,712,o),
(135,670,o),
(100,602,cs),
(67,537,o),
(60,449,o),
(60,350,cs),
(60,251,o),
(67,163,o),
(100,98,cs),
(135,30,o),
(198,-12,o),
(303,-12,cs)
);
},
{
closed = 1;
nodes = (
(210,9,o),
(150,51,o),
(121,109,cs),
(87,175,o),
(84,284,o),
(84,350,cs),
(84,416,o),
(87,525,o),
(121,591,cs),
(150,649,o),
(210,691,o),
(303,691,cs),
(396,691,o),
(456,649,o),
(485,591,cs),
(519,525,o),
(520,416,o),
(522,350,cs),
(524,284,o),
(519,175,o),
(485,109,cs),
(456,51,o),
(396,9,o),
(303,9,cs)
);
}
);
};
layerId = "5997FD7B-85B3-4973-BC7D-5D24E7B00D9D";
shapes = (
{
closed = 1;
nodes = (
(408,-12,o),
(471,30,o),
(506,98,cs),
(539,163,o),
(546,251,o),
(546,350,cs),
(546,449,o),
(539,537,o),
(506,602,cs),
(471,670,o),
(408,712,o),
(303,712,cs),
(198,712,o),
(135,670,o),
(100,602,cs),
(67,537,o),
(60,449,o),
(60,350,cs),
(60,251,o),
(67,163,o),
(100,98,cs),
(135,30,o),
(198,-12,o),
(303,-12,cs)
);
},
{
closed = 1;
nodes = (
(210,9,o),
(150,51,o),
(121,109,cs),
(87,175,o),
(84,284,o),
(84,350,cs),
(84,416,o),
(87,525,o),
(121,591,cs),
(150,649,o),
(210,691,o),
(303,691,cs),
(396,691,o),
(456,649,o),
(485,591,cs),
(519,525,o),
(520,416,o),
(522,350,cs),
(524,284,o),
(519,175,o),
(485,109,cs),
(456,51,o),
(396,9,o),
(303,9,cs)
);
}
);
width = 606;
},
{
anchors = (
{
name = bottom;
pos = (308,0);
},
{
name = center;
pos = (312,350);
},
{
name = ogonek;
pos = (384,0);
},
{
name = top;
pos = (308,689);
},
{
name = topleft;
pos = (26,700);
},
{
name = topright;
pos = (408,700);
}
);
background = {
shapes = (
{
closed = 1;
nodes = (
(379,-12,o),
(440,10,o),
(484,54,cs),
(528,98,o),
(560,164,o),
(560,350,cs),
(560,536,o),
(528,602,o),
(484,646,cs),
(440,690,o),
(379,712,o),
(308,712,cs),
(237,712,o),
(176,690,o),
(132,646,cs),
(87,602,o),
(56,536,o),
(56,350,cs),
(56,164,o),
(87,98,o),
(132,54,cs),
(176,10,o),
(237,-12,o),
(308,-12,cs)
);
},
{
closed = 1;
nodes = (
(266,91,o),
(233,104,o),
(210,128,cs),
(189,150,o),
(177,181,o),
(175,219,cs),
(172,269,o),
(170,308,o),
(170,350,cs),
(170,392,o),
(172,431,o),
(175,481,cs),
(177,519,o),
(189,550,o),
(210,572,cs),
(232,596,o),
(265,609,o),
(308,609,cs),
(350,609,o),
(383,596,o),
(406,572,cs),
(426,550,o),
(438,519,o),
(440,481,cs),
(444,431,o),
(446,392,o),
(446,350,cs),
(446,308,o),
(444,269,o),
(440,219,cs),
(438,181,o),
(426,150,o),
(406,128,cs),
(383,104,o),
(350,91,o),
(308,91,cs)
);
}
);
};
layerId = "0D76174C-E7DB-4B5D-B958-B4B8505ED925";
shapes = (
{
closed = 1;
nodes = (
(379,-12,o),
(440,10,o),
(484,54,cs),
(529,98,o),
(560,164,o),
(560,350,cs),
(560,536,o),
(529,602,o),
(484,646,cs),
(440,690,o),
(379,712,o),
(308,712,cs),
(237,712,o),
(176,690,o),
(132,646,cs),
(87,602,o),
(56,536,o),
(56,350,cs),
(56,164,o),
(87,98,o),
(132,54,cs),
(176,10,o),
(237,-12,o),
(308,-12,cs)
);
},
{
closed = 1;
nodes = (
(265,91,o),
(232,104,o),
(210,128,cs),
(182,157,o),
(170,195,o),
(170,350,cs),
(170,505,o),
(182,543,o),
(210,572,cs),
(232,596,o),
(265,609,o),
(308,609,cs),
(351,609,o),
(384,596,o),
(406,572,cs),
(434,543,o),
(446,505,o),
(446,350,cs),
(446,195,o),
(434,157,o),
(406,128,cs),
(384,104,o),
(351,91,o),
(308,91,cs)
);
}
);
width = 616;
},
{
anchors = (
{
name = bottom;
pos = (314,0);
},
{
name = center;
pos = (314,350);
},
{
name = ogonek;
pos = (393,0);
},
{
name = top;
pos = (314,700);
},
{
name = topleft;
pos = (19,700);
},
{
name = topright;
pos = (428,700);
}
);
layerId = "69BA87E8-A4A5-4412-BDDB-89C34BF38660";
shapes = (
{
closed = 1;
nodes = (
(380,-12,o),
(456,8,o),
(511,63,cs),
(560,112,o),
(593,169,o),
(593,350,cs),
(593,531,o),
(560,588,o),
(511,637,cs),
(456,692,o),
(380,712,o),
(314,712,cs),
(247,712,o),
(171,692,o),
(116,637,cs),
(67,588,o),
(34,531,o),
(34,350,cs),
(34,169,o),
(67,112,o),
(116,63,cs),
(171,8,o),
(247,-12,o),
(313,-12,cs)
);
},
{
closed = 1;
nodes = (
(296,171,o),
(280,178,o),
(269,192,cs),
(255,209,o),
(248,229,o),
(248,350,cs),
(248,471,o),
(255,491,o),
(269,508,cs),
(280,522,o),
(296,529,o),
(314,529,cs),
(331,529,o),
(347,522,o),
(358,508,cs),
(372,491,o),
(379,471,o),
(379,350,cs),
(379,229,o),
(372,209,o),
(358,192,cs),
(347,178,o),
(331,171,o),
(313,171,cs)
);
}
);
width = 627;
}
);
unicode = 79;
userData = {
KernOnName = O;
com.schriftgestaltung.Glyphs.ColorIndex = 3;
};
},
{
glyphname = Ocircumflexdotbelow;
kernLeft = KO_O;
kernRight = KO_O;
lastChange = "2026-02-06 09:28:11 +0000";
layers = (
{
anchors = (
{
name = bottom;
pos = (297,-173);
},
{
name = center;
pos = (297,350);
},
{
name = ogonek;
pos = (372,0);
},
{
name = top;
pos = (297,848);
},
{
name = topleft;
pos = (20,700);
},
{
name = topright;
pos = (403,700);
}
);
layerId = "5997FD7B-85B3-4973-BC7D-5D24E7B00D9D";
shapes = (
{
closed = 1;
nodes = (
(309,-173,l),
(309,-85,l),
(285,-85,l),
(285,-173,l)
);
},
{
closed = 1;
nodes = (
(218,795,l),
(278,888,l),
(290,911,ls),
(294,918,o),
(300,918,o),
(304,911,cs),
(316,888,l),
(376,795,l),
(402,795,l),
(310,933,l),
(284,933,l),
(192,795,l)
);
},
{
ref = O;
}
);
width = 606;
},
{
anchors = (
{
name = bottom;
pos = (308,-193);
},
{
name = center;
pos = (312,350);
},
{
name = ogonek;
pos = (384,0);
},
{
name = top;
pos = (308,895);
},
{
name = topleft;
pos = (26,700);
},
{
name = topright;
pos = (408,700);
}
);
layerId = "0D76174C-E7DB-4B5D-B958-B4B8505ED925";
shapes = (
{
closed = 1;
nodes = (
(362,-193,l),
(362,-85,l),
(254,-85,l),
(254,-193,l)
);
},
{
closed = 1;
nodes = (
(257,777,l),
(291,839,l),
(301,873,ls),
(304,882,o),
(310,882,o),
(313,873,cs),
(324,839,l),
(358,777,l),
(453,777,l),
(361,935,l),
(253,935,l),
(162,777,l)
);
},
{
ref = O;
}
);
width = 616;
},
{
anchors = (
{
name = bottom;
pos = (314,-196);
},
{
name = center;
pos = (314,350);
},
{
name = ogonek;
pos = (393,0);
},
{
name = top;
pos = (314,933);
},
{
name = topleft;
pos = (19,700);
},
{
name = topright;
pos = (428,700);
}
);
layerId = "69BA87E8-A4A5-4412-BDDB-89C34BF38660";
shapes = (
{
closed = 1;
nodes = (
(412,-196,l),
(412,-63,l),
(215,-63,l),
(215,-196,l)
);
},
{
closed = 1;
nodes = (
(274,750,l),
(296,795,l),
(306,829,ls),
(309,838,o),
(316,838,o),
(318,829,cs),
(327,795,l),
(353,750,l),
(500,750,l),
(412,933,l),
(216,933,l),
(127,750,l)
);
},
{
ref = O;
}
);
width = 627;
}
);
unicode = 7896;
},
{
glyphname = Ohorn;
kernLeft = KO_O;
kernRight = KO_O;
lastChange = "2026-02-06 09:28:27 +0000";
layers = (
{
anchors = (
{
name = bottom;
pos = (297,0);
},
{
name = center;
pos = (297,350);
},
{
name = ogonek;
pos = (372,0);
},
{
name = top;
pos = (297,675);
},
{
name = topleft;
pos = (20,700);
},
{
name = topright;
pos = (491,784);
}
);
background = {
shapes = (
{
ref = O;
},
{
pos = (353,208);
ref = horncomb;
}
);
};
layerId = "5997FD7B-85B3-4973-BC7D-5D24E7B00D9D";
shapes = (
{
closed = 1;
nodes = (
(408,-12,o),
(471,30,o),
(506,98,cs),
(539,163,o),
(546,251,o),
(546,350,cs),
(546,449,o),
(539,537,o),
(506,602,cs),
(471,670,o),
(408,712,o),
(303,712,cs),
(198,712,o),
(135,670,o),
(100,602,cs),
(67,537,o),
(60,449,o),
(60,350,cs),
(60,251,o),
(67,163,o),
(100,98,cs),
(135,30,o),
(198,-12,o),
(303,-12,cs)
);
},
{
closed = 1;
nodes = (
(210,9,o),
(150,51,o),
(121,109,cs),
(87,175,o),
(84,284,o),
(84,350,cs),
(84,416,o),
(87,525,o),
(121,591,cs),
(150,649,o),
(210,691,o),
(303,691,cs),
(396,691,o),
(456,649,o),
(485,591,cs),
(519,525,o),
(520,416,o),
(522,350,cs),
(524,284,o),
(519,175,o),
(485,109,cs),
(456,51,o),
(396,9,o),
(303,9,cs)
);
},
{
closed = 1;
nodes = (
(447,680,o),
(491,710,o),
(491,784,c),
(469,784,l),
(469,722,o),
(439,700,o),
(403,700,c),
(383,700,l),
(383,680,l),
(403,680,l)
);
}
);
width = 606;
},
{
anchors = (
{
name = bottom;
pos = (308,0);
},
{
name = center;
pos = (312,350);
},
{
name = ogonek;
pos = (384,0);
},
{
name = top;
pos = (308,689);
},
{
name = topleft;
pos = (26,700);
},
{
name = topright;
pos = (535,790);
}
);
background = {
shapes = (
{
ref = O;
},
{
pos = (358,196);
ref = horncomb;
}
);
};
layerId = "0D76174C-E7DB-4B5D-B958-B4B8505ED925";
shapes = (
{
closed = 1;
nodes = (
(379,-12,o),
(440,10,o),
(484,54,cs),
(529,98,o),
(560,164,o),
(560,350,cs),
(560,536,o),
(529,602,o),
(484,646,cs),
(440,690,o),
(379,712,o),
(308,712,cs),
(237,712,o),
(176,690,o),
(132,646,cs),
(87,602,o),
(56,536,o),
(56,350,cs),
(56,164,o),
(87,98,o),
(132,54,cs),
(176,10,o),
(237,-12,o),
(308,-12,cs)
);
},
{
closed = 1;
nodes = (
(265,91,o),
(232,104,o),
(210,128,cs),
(182,157,o),
(170,195,o),
(170,350,cs),
(170,505,o),
(182,543,o),
(210,572,cs),
(232,596,o),
(265,609,o),
(308,609,cs),
(351,609,o),
(384,596,o),
(406,572,cs),
(434,543,o),
(446,505,o),
(446,350,cs),
(446,195,o),
(434,157,o),
(406,128,cs),
(384,104,o),
(351,91,o),
(308,91,cs)
);
},
{
closed = 1;
nodes = (
(471,640,o),
(535,673,o),
(535,790,c),
(460,790,l),
(460,714,o),
(437,700,o),
(407,700,c),
(360,700,l),
(360,640,l),
(408,640,l)
);
}
);
width = 616;
},
{
anchors = (
{
name = bottom;
pos = (314,0);
},
{
name = center;
pos = (314,350);
},
{
name = ogonek;
pos = (393,0);
},
{
name = top;
pos = (314,700);
},
{
name = topleft;
pos = (19,700);
},
{
name = topright;
pos = (590,794);
}
);
background = {
shapes = (
{
ref = O;
},
{
pos = (378,183);
ref = horncomb;
}
);
};
layerId = "69BA87E8-A4A5-4412-BDDB-89C34BF38660";
shapes = (
{
closed = 1;
nodes = (
(380,-12,o),
(456,8,o),
(511,63,cs),
(560,112,o),
(593,169,o),
(593,350,cs),
(593,531,o),
(560,588,o),
(511,637,cs),
(456,692,o),
(380,712,o),
(314,712,cs),
(247,712,o),
(171,692,o),
(116,637,cs),
(67,588,o),
(34,531,o),
(34,350,cs),
(34,169,o),
(67,112,o),
(116,63,cs),
(171,8,o),
(247,-12,o),
(313,-12,cs)
);
},
{
closed = 1;
nodes = (
(296,171,o),
(280,178,o),
(269,192,cs),
(255,209,o),
(248,229,o),
(248,350,cs),
(248,471,o),
(255,491,o),
(269,508,cs),
(280,522,o),
(296,529,o),
(314,529,cs),
(331,529,o),
(347,522,o),
(358,508,cs),
(372,491,o),
(379,471,o),
(379,350,cs),
(379,229,o),
(372,209,o),
(358,192,cs),
(347,178,o),
(331,171,o),
(313,171,cs)
);
},
{
closed = 1;
nodes = (
(509,612,o),
(590,652,o),
(590,794,c),
(460,794,l),
(460,714,o),
(446,700,o),
(427,700,c),
(348,700,l),
(348,612,l),
(428,612,l)
);
}
);
width = 627;
}
);
unicode = 416;
},
{
glyphname = Ohorntilde;
kernLeft = KO_O;
lastChange = "2025-01-19 17:48:57 +0000";
layers = (
{
layerId = "5997FD7B-85B3-4973-BC7D-5D24E7B00D9D";
shapes = (
{
closed = 1;
nodes = (
(408,-12,o),
(471,30,o),
(506,98,cs),
(539,163,o),
(546,251,o),
(546,350,cs),
(546,481,o),
(536,624,o),
(429,684,c),
(463,694,o),
(491,725,o),
(491,784,c),
(469,784,l),
(469,722,o),
(439,700,o),
(403,700,cs),
(390,700,l),
(365,708,o),
(336,712,o),
(303,712,cs),
(198,712,o),
(135,670,o),
(100,602,cs),
(67,537,o),
(60,449,o),
(60,350,cs),
(60,251,o),
(67,163,o),
(100,98,cs),
(135,30,o),
(198,-12,o),
(303,-12,cs)
);
},
{
closed = 1;
nodes = (
(210,9,o),
(150,51,o),
(121,109,cs),
(87,175,o),
(84,284,o),
(84,350,cs),
(84,416,o),
(87,525,o),
(121,591,cs),
(150,649,o),
(210,691,o),
(303,691,cs),
(396,691,o),
(456,649,o),
(485,591,cs),
(519,525,o),
(520,416,o),
(522,350,cs),
(524,284,o),
(519,175,o),
(485,109,cs),
(456,51,o),
(396,9,o),
(303,9,cs)
);
},
{
closed = 1;
nodes = (
(206,842,o),
(220,852,o),
(242,852,cs),
(280,852,o),
(299,802,o),
(352,802,cs),
(378,802,o),
(405,816,o),
(424,855,c),
(414,865,l),
(388,834,o),
(375,824,o),
(352,824,cs),
(315,824,o),
(295,874,o),
(242,874,cs),
(216,874,o),
(189,860,o),
(170,821,c),
(180,811,l)
);
}
);
width = 606;
},
{
layerId = "0D76174C-E7DB-4B5D-B958-B4B8505ED925";
shapes = (
{
closed = 1;
nodes = (
(377,-12,o),
(438,10,o),
(482,54,cs),
(527,98,o),
(558,164,o),
(558,350,cs),
(558,550,o),
(538,592,o),
(479,649,c),
(524,671,o),
(553,711,o),
(553,790,c),
(478,790,l),
(478,714,o),
(455,700,o),
(426,700,cs),
(391,700,l),
(365,708,o),
(336,712,o),
(306,712,cs),
(235,712,o),
(174,690,o),
(130,646,cs),
(85,602,o),
(54,536,o),
(54,350,cs),
(54,164,o),
(85,98,o),
(130,54,cs),
(174,10,o),
(235,-12,o),
(306,-12,cs)
);
},
{
closed = 1;
nodes = (
(263,91,o),
(230,104,o),
(208,128,cs),
(180,157,o),
(168,195,o),
(168,350,cs),
(168,505,o),
(180,543,o),
(208,572,cs),
(230,596,o),
(263,609,o),
(306,609,cs),
(349,609,o),
(382,596,o),
(404,572,cs),
(432,543,o),
(444,505,o),
(444,350,cs),
(444,195,o),
(432,157,o),
(404,128,cs),
(382,104,o),
(349,91,o),
(306,91,cs)
);
},
{
closed = 1;
nodes = (
(175,790,o),
(195,803,o),
(223,803,cs),
(268,803,o),
(288,766,o),
(357,766,cs),
(395,766,o),
(427,780,o),
(452,813,c),
(425,882,l),
(403,856,o),
(383,843,o),
(356,843,cs),
(310,843,o),
(291,880,o),
(222,880,cs),
(184,880,o),
(152,866,o),
(127,833,c),
(154,764,l)
);
}
);
width = 628;
},
{
layerId = "69BA87E8-A4A5-4412-BDDB-89C34BF38660";
shapes = (
{
closed = 1;
nodes = (
(384,-12,o),
(460,8,o),
(515,63,cs),
(564,112,o),
(597,169,o),
(597,350,cs),
(597,513,o),
(570,575,o),
(529,622,c),
(584,641,o),
(628,690,o),
(628,794,c),
(498,794,l),
(498,714,o),
(484,700,o),
(466,700,cs),
(405,700,l),
(376,708,o),
(346,712,o),
(318,712,cs),
(251,712,o),
(175,692,o),
(120,637,cs),
(71,588,o),
(38,531,o),
(38,350,cs),
(38,169,o),
(71,112,o),
(120,63,cs),
(175,8,o),
(251,-12,o),
(317,-12,cs)
);
},
{
closed = 1;
nodes = (
(300,171,o),
(284,178,o),
(273,192,cs),
(259,209,o),
(252,229,o),
(252,350,cs),
(252,471,o),
(259,491,o),
(273,508,cs),
(284,522,o),
(300,529,o),
(318,529,cs),
(335,529,o),
(351,522,o),
(362,508,cs),
(376,491,o),
(383,471,o),
(383,350,cs),
(383,229,o),
(376,209,o),
(362,192,cs),
(351,178,o),
(335,171,o),
(317,171,cs)
);
},
{
closed = 1;
nodes = (
(153,754,o),
(179,769,o),
(212,769,cs),
(263,769,o),
(281,738,o),
(360,738,cs),
(406,738,o),
(440,752,o),
(471,789,c),
(427,896,l),
(410,880,o),
(384,866,o),
(351,866,cs),
(301,866,o),
(282,896,o),
(204,896,cs),
(157,896,o),
(123,882,o),
(92,846,c),
(137,738,l)
);
}
);
width = 635;
}
);
unicode = 7904;
},
{
glyphname = Oslash;
lastChange = "2026-03-11 15:28:13 +0000";
layers = (
{
anchors = (
{
name = bottom;
pos = (366,0);
},
{
name = top;
pos = (366,675);
}
);
layerId = "5997FD7B-85B3-4973-BC7D-5D24E7B00D9D";
shapes = (
{
closed = 1;
nodes = (
(87,0,l),
(658,700,l),
(631,700,l),
(60,0,l)
);
},
{
closed = 1;
nodes = (
(471,-12,o),
(534,30,o),
(569,98,cs),
(602,163,o),
(609,251,o),
(609,350,cs),
(609,449,o),
(602,537,o),
(569,602,cs),
(534,670,o),
(471,712,o),
(366,712,cs),
(261,712,o),
(198,670,o),
(163,602,cs),
(130,537,o),
(123,449,o),
(123,350,cs),
(123,251,o),
(130,163,o),
(163,98,cs),
(198,30,o),
(261,-12,o),
(366,-12,cs)
);
},
{
closed = 1;
nodes = (
(273,9,o),
(213,51,o),
(184,109,cs),
(150,175,o),
(147,284,o),
(147,350,cs),
(147,416,o),
(150,525,o),
(184,591,cs),
(213,649,o),
(273,691,o),
(366,691,cs),
(459,691,o),
(519,649,o),
(548,591,cs),
(582,525,o),
(583,416,o),
(585,350,cs),
(587,284,o),
(582,175,o),
(548,109,cs),
(519,51,o),
(459,9,o),
(366,9,cs)
);
}
);
width = 718;
},
{
anchors = (
{
name = bottom;
pos = (380,0);
},
{
name = top;
pos = (380,687);
}
);
layerId = "0D76174C-E7DB-4B5D-B958-B4B8505ED925";
shapes = (
{
closed = 1;
nodes = (
(156,0,l),
(695,700,l),
(596,700,l),
(56,0,l)
);
},
{
closed = 1;
nodes = (
(467,-12,o),
(536,20,o),
(580,82,cs),
(621,139,o),
(640,212,o),
(640,350,cs),
(640,488,o),
(621,561,o),
(580,618,cs),
(536,680,o),
(467,712,o),
(380,712,cs),
(293,712,o),
(224,680,o),
(179,618,cs),
(139,561,o),
(120,488,o),
(120,350,cs),
(120,212,o),
(139,139,o),
(179,82,cs),
(224,20,o),
(293,-12,o),
(380,-12,cs)
);
},
{
closed = 1;
nodes = (
(322,85,o),
(283,111,o),
(262,148,cs),
(238,191,o),
(233,258,o),
(233,350,cs),
(233,442,o),
(238,509,o),
(262,552,cs),
(283,589,o),
(322,615,o),
(380,615,cs),
(437,615,o),
(477,589,o),
(497,552,cs),
(522,509,o),
(526,442,o),
(527,350,cs),
(528,258,o),
(522,191,o),
(497,148,cs),
(477,111,o),
(437,85,o),
(380,85,cs)
);
}
);
width = 751;
},
{
anchors = (
{
name = bottom;
pos = (375,0);
},
{
name = top;
pos = (375,700);
}
);
layerId = "69BA87E8-A4A5-4412-BDDB-89C34BF38660";
shapes = (
{
closed = 1;
nodes = (
(194,0,l),
(716,700,l),
(556,700,l),
(34,0,l)
);
},
{
closed = 1;
nodes = (
(441,-12,o),
(517,8,o),
(572,63,cs),
(621,112,o),
(654,169,o),
(654,350,cs),
(654,531,o),
(621,588,o),
(572,637,cs),
(517,692,o),
(441,712,o),
(375,712,cs),
(308,712,o),
(232,692,o),
(177,637,cs),
(128,588,o),
(95,531,o),
(95,350,cs),
(95,169,o),
(128,112,o),
(177,63,cs),
(232,8,o),
(308,-12,o),
(374,-12,cs)
);
},
{
closed = 1;
nodes = (
(350,138,o),
(327,146,o),
(312,163,cs),
(292,183,o),
(282,207,o),
(282,350,cs),
(282,493,o),
(292,517,o),
(312,537,cs),
(328,553,o),
(350,562,o),
(375,562,cs),
(399,562,o),
(422,554,o),
(437,537,cs),
(457,517,o),
(467,493,o),
(467,350,cs),
(467,207,o),
(457,183,o),
(437,163,cs),
(422,146,o),
(399,138,o),
(374,138,cs)
);
}
);
width = 750;
}
);
metricLeft = O;
metricRight = O;
unicode = 216;
},
{
glyphname = OE;
kernLeft = KO_O;
kernRight = KO_E;
lastChange = "2025-01-19 17:48:57 +0000";
layers = (
{
anchors = (
{
name = bottom;
pos = (466,0);
},
{
name = top;
pos = (466,675);
}
);
layerId = "5997FD7B-85B3-4973-BC7D-5D24E7B00D9D";
shapes = (
{
closed = 1;
nodes = (
(380,-12,o),
(435,11,o),
(472,50,c),
(506,98,ls),
(514,109,o),
(522,110,o),
(522,95,cs),
(522,0,l),
(903,0,l),
(903,22,l),
(546,22,l),
(546,339,l),
(886,339,l),
(886,361,l),
(546,361,l),
(546,678,l),
(903,678,l),
(903,700,l),
(522,700,l),
(522,615,ls),
(522,599,o),
(513,597,o),
(502,611,cs),
(468,654,l),
(431,691,o),
(377,712,o),
(303,712,cs),
(198,712,o),
(135,670,o),
(100,602,cs),
(67,537,o),
(60,449,o),
(60,350,cs),
(60,251,o),
(67,163,o),
(100,98,cs),
(135,30,o),
(198,-12,o),
(303,-12,cs)
);
},
{
closed = 1;
nodes = (
(151,9,o),
(101,110,o),
(88,233,cs),
(85,270,o),
(84,310,o),
(83,350,cs),
(84,390,o),
(85,430,o),
(88,467,cs),
(101,590,o),
(141,691,o),
(303,691,cs),
(465,691,o),
(505,590,o),
(518,467,cs),
(520,442,o),
(522,415,o),
(522,349,cs),
(522,285,o),
(520,258,o),
(518,233,cs),
(505,110,o),
(455,9,o),
(303,9,cs)
);
}
);
width = 971;
},
{
anchors = (
{
name = bottom;
pos = (464,0);
},
{
name = top;
pos = (464,687);
}
);
layerId = "0D76174C-E7DB-4B5D-B958-B4B8505ED925";
shapes = (
{
closed = 1;
nodes = (
(347,-12,o),
(383,-5,o),
(414,9,c),
(451,41,ls),
(459,48,o),
(464,44,o),
(464,35,cs),
(464,0,l),
(870,0,l),
(870,103,l),
(561,103,l),
(561,301,l),
(853,301,l),
(853,399,l),
(561,399,l),
(561,597,l),
(870,597,l),
(870,700,l),
(464,700,l),
(464,665,ls),
(464,656,o),
(458,652,o),
(451,659,cs),
(417,690,l),
(385,704,o),
(348,712,o),
(308,712,cs),
(237,712,o),
(176,690,o),
(132,646,cs),
(87,602,o),
(56,536,o),
(56,350,cs),
(56,164,o),
(87,98,o),
(132,54,cs),
(176,10,o),
(237,-12,o),
(308,-12,cs)
);
},
{
closed = 1;
nodes = (
(226,91,o),
(180,140,o),
(175,219,cs),
(172,269,o),
(170,308,o),
(170,350,cs),
(170,392,o),
(172,431,o),
(175,481,cs),
(180,560,o),
(226,609,o),
(308,609,cs),
(390,609,o),
(436,560,o),
(440,481,cs),
(444,431,o),
(446,392,o),
(446,350,cs),
(446,308,o),
(444,269,o),
(440,219,cs),
(436,140,o),
(390,91,o),
(308,91,cs)
);
}
);
width = 926;
},
{
anchors = (
{
name = bottom;
pos = (445,0);
},
{
name = top;
pos = (445,700);
}
);
layerId = "69BA87E8-A4A5-4412-BDDB-89C34BF38660";
shapes = (
{
closed = 1;
nodes = (
(346,-12,o),
(380,-8,o),
(412,12,c),
(436,40,ls),
(448,53,o),
(460,48,o),
(460,31,cs),
(460,0,l),
(849,0,l),
(849,180,l),
(590,180,l),
(590,270,l),
(832,270,l),
(832,430,l),
(590,430,l),
(590,520,l),
(849,520,l),
(849,700,l),
(460,700,l),
(460,669,ls),
(460,652,o),
(448,647,o),
(436,660,cs),
(411,688,l),
(379,708,o),
(346,712,o),
(314,712,cs),
(247,712,o),
(171,692,o),
(116,637,cs),
(67,588,o),
(34,531,o),
(34,350,cs),
(34,169,o),
(67,112,o),
(116,63,cs),
(171,8,o),
(247,-12,o),
(314,-12,cs)
);
},
{
closed = 1;
nodes = (
(286,171,o),
(255,195,o),
(252,236,cs),
(250,260,o),
(248,306,o),
(248,350,cs),
(248,394,o),
(250,440,o),
(252,464,cs),
(255,505,o),
(286,529,o),
(314,529,cs),
(341,529,o),
(372,505,o),
(375,464,cs),
(378,440,o),
(380,394,o),
(380,350,cs),
(380,306,o),
(378,260,o),
(375,236,cs),
(372,195,o),
(341,171,o),
(314,171,cs)
);
}
);
width = 892;
}
);
metricLeft = O;
metricRight = E;
unicode = 338;
userData = {
com.schriftgestaltung.Glyphs.leftMetricsKey = O;
com.schriftgestaltung.Glyphs.rightMetricsKey = E;
};
},
{
glyphname = P;
kernLeft = KO_H;
kernRight = KO_P;
lastChange = "2025-01-20 07:45:44 +0000";
layers = (
{
anchors = (
{
name = bottom;
pos = (266,0);
},
{
name = top;
pos = (266,675);
}
);
layerId = "5997FD7B-85B3-4973-BC7D-5D24E7B00D9D";
shapes = (
{
closed = 1;
nodes = (
(129,0,l),
(129,339,l),
(325,339,ls),
(433,339,o),
(500,408,o),
(500,517,cs),
(500,629,o),
(433,700,o),
(325,700,cs),
(105,700,l),
(105,0,l)
);
},
{
closed = 1;
nodes = (
(129,678,l),
(317,678,ls),
(420,678,o),
(477,619,o),
(477,514,cs),
(477,416,o),
(420,361,o),
(317,361,cs),
(129,361,l)
);
}
);
width = 530;
},
{
anchors = (
{
name = bottom;
pos = (282,0);
},
{
name = top;
pos = (282,687);
}
);
layerId = "0D76174C-E7DB-4B5D-B958-B4B8505ED925";
shapes = (
{
closed = 1;
nodes = (
(194,0,l),
(194,299,l),
(332,299,ls),
(457,299,o),
(534,375,o),
(534,496,cs),
(534,621,o),
(457,700,o),
(332,700,cs),
(82,700,l),
(82,0,l)
);
},
{
closed = 1;
nodes = (
(194,606,l),
(326,606,ls),
(389,606,o),
(427,565,o),
(427,497,cs),
(427,434,o),
(389,394,o),
(326,394,cs),
(194,394,l)
);
}
);
width = 563.8;
},
{
anchors = (
{
name = bottom;
pos = (297,0);
},
{
name = top;
pos = (297,700);
}
);
background = {
shapes = (
{
closed = 1;
nodes = (
(228,0,l),
(228,280,l),
(334,280,ls),
(467,280,o),
(549,361,o),
(549,486,cs),
(549,619,o),
(467,700,o),
(334,700,cs),
(69,700,l),
(69,0,l)
);
},
{
closed = 1;
nodes = (
(228,570,l),
(334,570,ls),
(378,570,o),
(404,541,o),
(404,489,cs),
(404,443,o),
(378,410,o),
(334,410,cs),
(228,410,l)
);
}
);
};
layerId = "69BA87E8-A4A5-4412-BDDB-89C34BF38660";
shapes = (
{
closed = 1;
nodes = (
(266,0,l),
(266,239,l),
(346,239,ls),
(489,239,o),
(576,336,o),
(576,470,cs),
(576,616,o),
(489,700,o),
(346,700,cs),
(56,700,l),
(56,0,l)
);
},
{
closed = 1;
nodes = (
(266,520,l),
(340,520,ls),
(377,520,o),
(398,499,o),
(398,460,cs),
(398,424,o),
(377,403,o),
(340,403,cs),
(266,403,l)
);
}
);
width = 606;
}
);
metricLeft = H;
unicode = 80;
userData = {
KernOnName = P;
com.schriftgestaltung.Glyphs.ColorIndex = 3;
com.schriftgestaltung.Glyphs.layer.leftMetricsKey = "==H";
com.schriftgestaltung.Glyphs.leftMetricsKey = H;
};
},
{
glyphname = Thorn;
kernLeft = KO_H;
lastChange = "2026-03-11 15:22:44 +0000";
layers = (
{
anchors = (
{
name = bottom;
pos = (211,0);
},
{
name = top;
pos = (211,675);
}
);
background = {
anchors = (
{
name = bottom;
pos = (212,0);
},
{
name = top;
pos = (212,700);
}
);
shapes = (
{
closed = 1;
nodes = (
(68,0,l),
(68,177,l),
(271,177,ls),
(379,177,o),
(446,244,o),
(446,358,cs),
(446,467,o),
(379,543,o),
(271,543,cs),
(68,543,l),
(68,700,l),
(51,700,l),
(51,0,l)
);
},
{
closed = 1;
nodes = (
(68,519,l),
(253,519,ls),
(353,519,o),
(417,454,o),
(417,355,cs),
(417,257,o),
(353,204,o),
(253,204,cs),
(68,204,l)
);
}
);
};
layerId = "5997FD7B-85B3-4973-BC7D-5D24E7B00D9D";
shapes = (
{
closed = 1;
nodes = (
(74,0,l),
(74,180,l),
(270,180,ls),
(378,180,o),
(445,248,o),
(445,357,cs),
(445,469,o),
(378,540,o),
(270,540,cs),
(74,540,l),
(74,700,l),
(50,700,l),
(50,0,l)
);
},
{
closed = 1;
nodes = (
(74,518,l),
(262,518,ls),
(365,518,o),
(422,459,o),
(422,354,cs),
(422,256,o),
(365,202,o),
(262,202,cs),
(74,202,l)
);
}
);
width = 471;
},
{
anchors = (
{
name = bottom;
pos = (250,0);
},
{
name = top;
pos = (250,687);
}
);
layerId = "0D76174C-E7DB-4B5D-B958-B4B8505ED925";
shapes = (
{
closed = 1;
nodes = (
(162,0,l),
(162,159,l),
(300,159,ls),
(425,159,o),
(502,235,o),
(502,357,cs),
(502,482,o),
(425,561,o),
(300,561,cs),
(162,561,l),
(162,700,l),
(50,700,l),
(50,0,l)
);
},
{
closed = 1;
nodes = (
(162,466,l),
(294,466,ls),
(357,466,o),
(395,425,o),
(395,358,cs),
(395,294,o),
(357,255,o),
(294,255,cs),
(162,255,l)
);
}
);
width = 527;
},
{
anchors = (
{
name = bottom;
pos = (291,0);
},
{
name = top;
pos = (291,700);
}
);
background = {
anchors = (
{
name = bottom;
pos = (292,0);
},
{
name = top;
pos = (292,700);
}
);
shapes = (
{
closed = 1;
nodes = (
(261,0,l),
(261,140,l),
(331,140,ls),
(474,140,o),
(561,226,o),
(561,355,cs),
(561,497,o),
(474,580,o),
(331,580,cs),
(261,580,l),
(261,700,l),
(50,700,l),
(50,0,l)
);
},
{
closed = 1;
nodes = (
(261,411,l),
(338,411,ls),
(361,411,o),
(373,395,o),
(373,360,cs),
(373,334,o),
(361,308,o),
(338,308,cs),
(261,308,l)
);
}
);
};
layerId = "69BA87E8-A4A5-4412-BDDB-89C34BF38660";
shapes = (
{
closed = 1;
nodes = (
(260,0,l),
(260,135,l),
(340,135,ls),
(483,135,o),
(570,231,o),
(570,365,cs),
(570,511,o),
(483,595,o),
(340,595,cs),
(260,595,l),
(260,700,l),
(50,700,l),
(50,0,l)
);
},
{
closed = 1;
nodes = (
(260,415,l),
(334,415,ls),
(371,415,o),
(392,394,o),
(392,355,cs),
(392,319,o),
(371,298,o),
(334,298,cs),
(260,298,l)
);
}
);
width = 595;
}
);
metricLeft = I;
metricRight = "=I/2";
unicode = 222;
userData = {
com.schriftgestaltung.Glyphs.leftMetricsKey = H;
};
},
{
glyphname = Q;
kernLeft = KO_O;
kernRight = KO_O;
lastChange = "2025-01-20 07:45:44 +0000";
layers = (
{
anchors = (
{
name = bottom;
pos = (285,0);
},
{
name = top;
pos = (285,675);
}
);
layerId = "5997FD7B-85B3-4973-BC7D-5D24E7B00D9D";
shapes = (
{
closed = 1;
nodes = (
(454,-128,l),
(390,0,l),
(445,17,o),
(482,51,o),
(506,98,cs),
(539,163,o),
(546,251,o),
(546,350,cs),
(546,449,o),
(539,537,o),
(506,602,cs),
(471,670,o),
(408,712,o),
(303,712,cs),
(198,712,o),
(135,670,o),
(100,602,cs),
(67,537,o),
(60,449,o),
(60,350,cs),
(60,251,o),
(67,163,o),
(100,98,cs),
(135,30,o),
(198,-12,o),
(303,-12,cs),
(327,-12,o),
(349,-10,o),
(369,-5,c),
(434,-137,l)
);
},
{
closed = 1;
nodes = (
(210,9,o),
(150,51,o),
(121,109,cs),
(87,175,o),
(84,284,o),
(84,350,cs),
(84,416,o),
(87,525,o),
(121,591,cs),
(150,649,o),
(210,691,o),
(303,691,cs),
(396,691,o),
(456,649,o),
(485,591,cs),
(519,525,o),
(520,416,o),
(522,350,cs),
(524,284,o),
(519,175,o),
(485,109,cs),
(465,69,o),
(430,36,o),
(380,20,c),
(302,175,l),
(281,166,l),
(339,49,l),
(359,30,ls),
(367,22,o),
(362,15,o),
(350,13,cs),
(335,10,o),
(320,9,o),
(303,9,cs)
);
}
);
width = 606;
},
{
anchors = (
{
name = bottom;
pos = (308,0);
},
{
name = top;
pos = (308,687);
}
);
layerId = "0D76174C-E7DB-4B5D-B958-B4B8505ED925";
shapes = (
{
closed = 1;
nodes = (
(503,-76,l),
(452,28,l),
(464,36,o),
(474,44,o),
(484,54,cs),
(529,98,o),
(560,164,o),
(560,350,cs),
(560,536,o),
(529,602,o),
(484,646,cs),
(440,690,o),
(379,712,o),
(308,712,cs),
(237,712,o),
(176,690,o),
(132,646,cs),
(87,602,o),
(56,536,o),
(56,350,cs),
(56,164,o),
(87,98,o),
(132,54,cs),
(176,10,o),
(237,-12,o),
(308,-12,cs),
(325,-12,o),
(342,-11,o),
(358,-8,c),
(412,-117,l)
);
},
{
closed = 1;
nodes = (
(265,91,o),
(232,104,o),
(210,128,cs),
(182,157,o),
(170,195,o),
(170,350,cs),
(170,505,o),
(182,543,o),
(210,572,cs),
(232,596,o),
(265,609,o),
(308,609,cs),
(351,609,o),
(384,596,o),
(406,572,cs),
(434,543,o),
(446,505,o),
(446,350,cs),
(446,195,o),
(434,157,o),
(408,130,cs),
(407,129,o),
(406,128,o),
(405,127,c),
(336,268,l),
(248,227,l),
(287,143,l),
(327,113,ls),
(335,106,o),
(335,95,o),
(325,92,cs),
(320,91,o),
(314,91,o),
(308,91,cs)
);
}
);
width = 616;
},
{
anchors = (
{
name = bottom;
pos = (314,0);
},
{
name = top;
pos = (314,700);
}
);
layerId = "69BA87E8-A4A5-4412-BDDB-89C34BF38660";
shapes = (
{
closed = 1;
nodes = (
(561,-34,l),
(515,68,l),
(524,76,o),
(525,77,o),
(536,90,cs),
(553,110,o),
(593,169,o),
(593,350,cs),
(593,531,o),
(561,588,o),
(511,637,cs),
(456,692,o),
(381,712,o),
(314,712,cs),
(247,712,o),
(171,692,o),
(116,637,cs),
(67,588,o),
(34,531,o),
(34,350,cs),
(34,169,o),
(67,112,o),
(116,63,cs),
(171,8,o),
(247,-12,o),
(314,-12,cs),
(328,-12,o),
(352,-10,o),
(367,-8,c),
(408,-104,l)
);
},
{
closed = 1;
nodes = (
(267,133,o),
(240,176,o),
(235,229,cs),
(233,250,o),
(231,301,o),
(231,350,cs),
(231,394,o),
(233,436,o),
(235,460,cs),
(240,506,o),
(278,530,o),
(314,530,cs),
(349,530,o),
(387,506,o),
(392,460,cs),
(394,436,o),
(396,394,o),
(396,350,cs),
(396,306,o),
(395,254,o),
(394,233,c),
(391,199,o),
(425,200,o),
(445,225,c),
(407,312,l),
(261,243,l),
(287,180,l),
(334,158,ls),
(345,153,o),
(345,136,o),
(332,134,cs),
(327,133,o),
(321,133,o),
(316,133,cs)
);
}
);
width = 627;
}
);
metricLeft = O;
metricRight = O;
unicode = 81;
userData = {
KernOnName = Q;
com.schriftgestaltung.Glyphs.ColorIndex = 3;
com.schriftgestaltung.Glyphs.layer.leftMetricsKey = "==O";
com.schriftgestaltung.Glyphs.layer.rightMetricsKey = "==O";
com.schriftgestaltung.Glyphs.leftMetricsKey = O;
com.schriftgestaltung.Glyphs.rightMetricsKey = O;
};
},
{
glyphname = R;
kernLeft = KO_H;
kernRight = KO_R;
lastChange = "2025-01-20 07:45:44 +0000";
layers = (
{
anchors = (
{
name = bottom;
pos = (267,0);
},
{
name = top;
pos = (267,675);
}
);
layerId = "5997FD7B-85B3-4973-BC7D-5D24E7B00D9D";
shapes = (
{
closed = 1;
nodes = (
(129,0,l),
(129,339,l),
(325,339,l),
(447,0,l),
(474,0,l),
(374,274,l),
(349,323,ls),
(344,333,o),
(348,340,o),
(357,341,cs),
(446,354,o),
(500,419,o),
(500,517,cs),
(500,629,o),
(433,700,o),
(325,700,cs),
(105,700,l),
(105,0,l)
);
},
{
closed = 1;
nodes = (
(129,678,l),
(317,678,ls),
(420,678,o),
(477,619,o),
(477,514,cs),
(477,416,o),
(420,361,o),
(317,361,cs),
(129,361,l)
);
}
);
width = 532;
},
{
anchors = (
{
name = bottom;
pos = (289,0);
},
{
name = top;
pos = (289,687);
}
);
layerId = "0D76174C-E7DB-4B5D-B958-B4B8505ED925";
shapes = (
{
closed = 1;
nodes = (
(194,0,l),
(194,299,l),
(300,299,l),
(409,0,l),
(526,0,l),
(438,243,l),
(406,291,ls),
(400,301,o),
(402,308,o),
(411,311,cs),
(493,338,o),
(542,405,o),
(542,497,cs),
(542,626,o),
(461,700,o),
(323,700,cs),
(82,700,l),
(82,0,l)
);
},
{
closed = 1;
nodes = (
(194,606,l),
(326,606,ls),
(394,606,o),
(436,567,o),
(436,497,cs),
(436,431,o),
(394,394,o),
(326,394,cs),
(194,394,l)
);
}
);
width = 577.8;
},
{
anchors = (
{
name = bottom;
pos = (311,0);
},
{
name = top;
pos = (311,700);
}
);
layerId = "69BA87E8-A4A5-4412-BDDB-89C34BF38660";
shapes = (
{
closed = 1;
nodes = (
(266,0,l),
(266,239,l),
(307,239,l),
(394,0,l),
(609,0,l),
(524,209,l),
(483,258,ls),
(476,267,o),
(479,277,o),
(489,283,cs),
(552,322,o),
(601,384,o),
(601,470,cs),
(601,616,o),
(509,700,o),
(366,700,cs),
(56,700,l),
(56,0,l)
);
},
{
closed = 1;
nodes = (
(266,520,l),
(360,520,ls),
(397,520,o),
(423,499,o),
(423,460,cs),
(423,424,o),
(397,403,o),
(360,403,cs),
(266,403,l)
);
}
);
width = 645;
}
);
metricLeft = H;
unicode = 82;
userData = {
KernOnName = R;
com.schriftgestaltung.Glyphs.ColorIndex = 3;
com.schriftgestaltung.Glyphs.layer.leftMetricsKey = "==H";
com.schriftgestaltung.Glyphs.leftMetricsKey = H;
};
},
{
glyphname = S;
kernLeft = KO_S;
kernRight = KO_S;
lastChange = "2025-01-20 07:45:44 +0000";
layers = (
{
anchors = (
{
name = bottom;
pos = (257,0);
},
{
name = top;
pos = (257,675);
}
);
background = {
shapes = (
{
closed = 1;
nodes = (
(393,-10,o),
(476,80,o),
(476,201,cs),
(476,310,o),
(411,388,o),
(290,401,cs),
(242,406,ls),
(178,413,o),
(136,447,o),
(136,518,cs),
(136,587,o),
(189,635,o),
(285,635,cs),
(333,635,o),
(387,623,o),
(435,590,c),
(460,660,l),
(406,694,o),
(343,710,o),
(284,710,cs),
(142,710,o),
(54,626,o),
(54,513,cs),
(54,404,o),
(120,340,o),
(232,328,cs),
(280,323,ls),
(364,314,o),
(395,260,o),
(395,196,cs),
(395,120,o),
(347,67,o),
(252,67,cs),
(190,67,o),
(127,89,o),
(83,128,c),
(53,58,l),
(102,17,o),
(179,-10,o),
(256,-10,cs)
);
}
);
};
layerId = "5997FD7B-85B3-4973-BC7D-5D24E7B00D9D";
shapes = (
{
closed = 1;
nodes = (
(391,-10,o),
(472,71,o),
(472,187,cs),
(472,284,o),
(415,355,o),
(303,371,cs),
(228,382,ls),
(144,394,o),
(81,425,o),
(81,528,cs),
(81,620,o),
(160,686,o),
(273,686,cs),
(323,686,o),
(380,672,o),
(426,645,c),
(435,664,l),
(387,691,o),
(325,708,o),
(273,708,cs),
(146,708,o),
(57,633,o),
(57,527,cs),
(57,429,o),
(112,374,o),
(226,358,cs),
(303,347,ls),
(404,333,o),
(448,266,o),
(448,187,cs),
(448,85,o),
(375,12,o),
(254,12,cs),
(188,12,o),
(112,37,o),
(56,78,c),
(45,61,l),
(100,17,o),
(182,-10,o),
(255,-10,cs)
);
}
);
width = 531;
},
{
anchors = (
{
name = bottom;
pos = (272,0);
},
{
name = top;
pos = (272,687);
}
);
layerId = "0D76174C-E7DB-4B5D-B958-B4B8505ED925";
shapes = (
{
closed = 1;
nodes = (
(408,-10,o),
(494,75,o),
(494,207,cs),
(494,323,o),
(425,401,o),
(300,415,cs),
(255,420,ls),
(200,426,o),
(166,455,o),
(166,513,cs),
(166,569,o),
(209,611,o),
(297,611,cs),
(347,611,o),
(398,599,o),
(446,569,c),
(478,658,l),
(430,691,o),
(365,711,o),
(295,711,cs),
(142,711,o),
(56,626,o),
(56,506,cs),
(56,392,o),
(130,328,o),
(241,316,cs),
(284,311,ls),
(356,302,o),
(385,258,o),
(385,202,cs),
(385,134,o),
(340,91,o),
(258,91,cs),
(195,91,o),
(140,111,o),
(89,149,c),
(52,56,l),
(108,15,o),
(180,-10,o),
(262,-10,cs)
);
}
);
width = 549;
},
{
anchors = (
{
name = bottom;
pos = (278,0);
},
{
name = top;
pos = (278,700);
}
);
layerId = "69BA87E8-A4A5-4412-BDDB-89C34BF38660";
shapes = (
{
closed = 1;
nodes = (
(433,-10,o),
(548,60,o),
(548,228,cs),
(548,363,o),
(446,439,o),
(307,459,cs),
(272,464,ls),
(247,468,o),
(236,479,o),
(236,496,cs),
(236,510,o),
(248,533,o),
(314,533,cs),
(368,533,o),
(411,521,o),
(457,502,c),
(518,658,l),
(485,685,o),
(398,713,o),
(306,713,cs),
(121,713,o),
(31,626,o),
(31,483,cs),
(31,352,o),
(139,287,o),
(246,269,cs),
(275,264,ls),
(306,259,o),
(336,250,o),
(336,219,cs),
(336,186,o),
(296,176,o),
(256,176,cs),
(203,176,o),
(153,189,o),
(90,222,c),
(37,50,l),
(113,7,o),
(179,-10,o),
(260,-10,cs)
);
}
);
width = 578;
}
);
unicode = 83;
userData = {
KernOnName = S;
com.schriftgestaltung.Glyphs.ColorIndex = 3;
com.typemytype.robofont.layerData = {
background = {
anchors = (
);
components = (
);
contours = (
{
points = (
{
smooth = 0;
x = 389;
y = 562;
},
{
smooth = 0;
x = 346;
y = 574;
},
{
segmentType = curve;
smooth = 1;
x = 290;
y = 574;
},
{
smooth = 0;
x = 204;
y = 574;
},
{
smooth = 0;
x = 174;
y = 537;
},
{
segmentType = curve;
smooth = 1;
x = 174;
y = 499;
},
{
smooth = 0;
x = 174;
y = 463;
},
{
smooth = 0;
x = 196;
y = 444;
},
{
segmentType = curve;
smooth = 1;
x = 238;
y = 441;
},
{
segmentType = line;
smooth = 1;
x = 311;
y = 435;
},
{
smooth = 0;
x = 434;
y = 425;
},
{
smooth = 0;
x = 509;
y = 341;
},
{
segmentType = curve;
smooth = 1;
x = 509;
y = 224;
},
{
smooth = 0;
x = 509;
y = 82;
},
{
smooth = 0;
x = 419;
y = -10;
},
{
segmentType = curve;
smooth = 1;
x = 249;
y = -10;
},
{
smooth = 0;
x = 154;
y = -10;
},
{
smooth = 0;
x = 93;
y = 11;
},
{
segmentType = curve;
smooth = 0;
x = 23;
y = 64;
},
{
segmentType = line;
smooth = 0;
x = 69;
y = 190;
},
{
smooth = 0;
x = 135;
y = 143;
},
{
smooth = 0;
x = 175;
y = 128;
},
{
segmentType = curve;
smooth = 1;
x = 245;
y = 128;
},
{
smooth = 0;
x = 318;
y = 128;
},
{
smooth = 0;
x = 359;
y = 160;
},
{
segmentType = curve;
smooth = 1;
x = 359;
y = 218;
},
{
smooth = 0;
x = 359;
y = 259;
},
{
smooth = 0;
x = 335;
y = 287;
},
{
segmentType = curve;
smooth = 1;
x = 280;
y = 292;
},
{
segmentType = line;
smooth = 1;
x = 210;
y = 298;
},
{
smooth = 0;
x = 103;
y = 307;
},
{
smooth = 0;
x = 24;
y = 377;
},
{
segmentType = curve;
smooth = 1;
x = 24;
y = 489;
},
{
smooth = 0;
x = 24;
y = 615;
},
{
smooth = 0;
x = 112;
y = 712;
},
{
segmentType = curve;
smooth = 1;
x = 285;
y = 712;
},
{
smooth = 0;
x = 378;
y = 712;
},
{
smooth = 0;
x = 435;
y = 686;
},
{
segmentType = curve;
smooth = 0;
x = 483;
y = 655;
},
{
segmentType = line;
smooth = 0;
x = 439;
y = 537;
}
);
}
);
lib = {
};
name = S;
unicodes = (
);
width = 503;
};
};
};
},
{
glyphname = Sdotbelowdotaccent;
lastChange = "2026-02-06 09:29:12 +0000";
layers = (
{
anchors = (
{
name = bottom;
pos = (257,-173);
},
{
name = top;
pos = (257,838);
}
);
layerId = "5997FD7B-85B3-4973-BC7D-5D24E7B00D9D";
shapes = (
{
closed = 1;
nodes = (
(269,-173,l),
(269,-85,l),
(245,-85,l),
(245,-173,l)
);
},
{
closed = 1;
nodes = (
(269,795,l),
(269,883,l),
(245,883,l),
(245,795,l)
);
},
{
ref = S;
}
);
width = 531;
},
{
anchors = (
{
name = bottom;
pos = (272,-193);
},
{
name = top;
pos = (272,883);
}
);
layerId = "0D76174C-E7DB-4B5D-B958-B4B8505ED925";
shapes = (
{
closed = 1;
nodes = (
(326,-193,l),
(326,-85,l),
(218,-85,l),
(218,-193,l)
);
},
{
closed = 1;
nodes = (
(326,775,l),
(326,883,l),
(218,883,l),
(218,775,l)
);
},
{
ref = S;
}
);
width = 549;
},
{
anchors = (
{
name = bottom;
pos = (278,-196);
},
{
name = top;
pos = (278,883);
}
);
layerId = "69BA87E8-A4A5-4412-BDDB-89C34BF38660";
shapes = (
{
closed = 1;
nodes = (
(376,-196,l),
(376,-63,l),
(179,-63,l),
(179,-196,l)
);
},
{
closed = 1;
nodes = (
(377,750,l),
(377,883,l),
(180,883,l),
(180,750,l)
);
},
{
ref = S;
}
);
width = 578;
}
);
unicode = 7784;
},
{
glyphname = Germandbls;
lastChange = "2026-03-11 15:22:44 +0000";
layers = (
{
anchors = (
{
name = bottom;
pos = (281,0);
},
{
name = top;
pos = (281,675);
}
);
layerId = "5997FD7B-85B3-4973-BC7D-5D24E7B00D9D";
shapes = (
{
closed = 1;
nodes = (
(71,0,l),
(71,700,l),
(50,700,l),
(50,0,l)
);
},
{
closed = 1;
nodes = (
(457,-8,o),
(545,71,o),
(545,192,cs),
(545,318,o),
(454,395,o),
(270,389,c),
(273,380,l),
(540,692,l),
(540,700,l),
(61,700,l),
(61,678,l),
(492,678,ls),
(498,678,o),
(500,673,o),
(494,667,cs),
(459,633,l),
(250,380,l),
(250,369,l),
(305,369,ls),
(445,369,o),
(523,299,o),
(523,192,cs),
(523,85,o),
(444,14,o),
(333,14,cs),
(291,14,o),
(245,30,o),
(216,56,c),
(205,37,l),
(242,9,o),
(288,-8,o),
(333,-8,cs)
);
}
);
width = 613;
},
{
anchors = (
{
name = bottom;
pos = (340,0);
},
{
name = top;
pos = (340,687);
}
);
layerId = "0D76174C-E7DB-4B5D-B958-B4B8505ED925";
shapes = (
{
closed = 1;
nodes = (
(164,0,l),
(164,700,l),
(50,700,l),
(50,0,l)
);
},
{
closed = 1;
nodes = (
(537,-8,o),
(661,52,o),
(661,209,cs),
(661,353,o),
(563,415,o),
(391,418,c),
(424,381,l),
(630,632,l),
(630,700,l),
(112,700,l),
(112,606,l),
(482,606,ls),
(491,606,o),
(494,600,o),
(487,593,cs),
(453,561,l),
(316,385,l),
(316,321,l),
(394,321,ls),
(507,321,o),
(553,277,o),
(553,207,cs),
(553,139,o),
(508,93,o),
(420,93,cs),
(371,93,o),
(331,109,o),
(297,139,c),
(261,47,l),
(305,15,o),
(360,-8,o),
(425,-8,cs)
);
}
);
width = 720;
},
{
anchors = (
{
name = bottom;
pos = (384,0);
},
{
name = top;
pos = (384,700);
}
);
layerId = "69BA87E8-A4A5-4412-BDDB-89C34BF38660";
shapes = (
{
closed = 1;
nodes = (
(261,0,l),
(261,700,l),
(50,700,l),
(50,0,l)
);
},
{
closed = 1;
nodes = (
(596,-11,o),
(739,63,o),
(739,218,cs),
(739,327,o),
(658,414,o),
(548,420,c),
(541,377,l),
(702,559,l),
(702,700,l),
(195,700,l),
(195,530,l),
(438,530,ls),
(452,530,o),
(458,517,o),
(446,507,cs),
(420,485,l),
(362,410,l),
(361,292,l),
(454,292,ls),
(516,292,o),
(557,276,o),
(557,234,cs),
(557,187,o),
(518,166,o),
(457,166,cs),
(426,166,o),
(399,170,o),
(358,193,c),
(299,27,l),
(355,-4,o),
(412,-11,o),
(478,-11,cs)
);
}
);
width = 770;
}
);
metricLeft = I;
metricRight = B;
unicode = 7838;
},
{
glyphname = T;
kernLeft = KO_T;
kernRight = KO_T;
lastChange = "2025-01-20 07:45:44 +0000";
layers = (
{
anchors = (
{
name = bottom;
pos = (227,0);
},
{
name = bottomright;
pos = (239,0);
},
{
name = center;
pos = (227,350);
},
{
name = top;
pos = (227,675);
}
);
layerId = "5997FD7B-85B3-4973-BC7D-5D24E7B00D9D";
shapes = (
{
closed = 1;
nodes = (
(239,0,l),
(239,678,l),
(428,678,l),
(428,700,l),
(26,700,l),
(26,678,l),
(215,678,l),
(215,0,l)
);
}
);
width = 454;
},
{
anchors = (
{
name = bottom;
pos = (247,0);
},
{
name = bottomright;
pos = (305,0);
},
{
name = center;
pos = (248,350);
},
{
name = top;
pos = (248,687);
}
);
layerId = "0D76174C-E7DB-4B5D-B958-B4B8505ED925";
shapes = (
{
closed = 1;
nodes = (
(305,0,l),
(305,597,l),
(471,597,l),
(471,700,l),
(26,700,l),
(26,597,l),
(191,597,l),
(191,0,l)
);
}
);
width = 496.8;
},
{
anchors = (
{
name = bottom;
pos = (269,0);
},
{
name = bottomright;
pos = (374,0);
},
{
name = center;
pos = (269,350);
},
{
name = top;
pos = (269,700);
}
);
layerId = "69BA87E8-A4A5-4412-BDDB-89C34BF38660";
shapes = (
{
closed = 1;
nodes = (
(374,0,l),
(374,520,l),
(517,520,l),
(517,700,l),
(20,700,l),
(20,520,l),
(164,520,l),
(164,0,l)
);
}
);
width = 537;
}
);
unicode = 84;
userData = {
KernOnName = T;
com.schriftgestaltung.Glyphs.ColorIndex = 3;
};
},
{
glyphname = U;
kernLeft = KO_U;
kernRight = KO_U;
lastChange = "2025-01-20 07:45:44 +0000";
layers = (
{
anchors = (
{
name = bottom;
pos = (308,0);
},
{
name = ogonek;
pos = (376,0);
},
{
name = top;
pos = (308,675);
},
{
name = topright;
pos = (510,700);
}
);
layerId = "5997FD7B-85B3-4973-BC7D-5D24E7B00D9D";
shapes = (
{
closed = 1;
nodes = (
(428,-10,o),
(511,71,o),
(511,189,cs),
(510,700,l),
(486,700,l),
(486,189,ls),
(486,85,o),
(415,12,o),
(307,12,cs),
(200,12,o),
(127,85,o),
(127,189,cs),
(129,700,l),
(105,700,l),
(105,189,ls),
(105,71,o),
(187,-10,o),
(307,-10,cs)
);
}
);
width = 616;
},
{
anchors = (
{
name = bottom;
pos = (311,0);
},
{
name = ogonek;
pos = (385,0);
},
{
name = top;
pos = (311,687);
},
{
name = topright;
pos = (539,700);
}
);
layerId = "0D76174C-E7DB-4B5D-B958-B4B8505ED925";
shapes = (
{
closed = 1;
nodes = (
(445,-10,o),
(537,78,o),
(538,207,cs),
(539,700,l),
(425,700,l),
(425,206,ls),
(425,138,o),
(378,92,o),
(310,92,cs),
(242,92,o),
(196,138,o),
(196,206,cs),
(196,700,l),
(82,700,l),
(82,207,ls),
(82,78,o),
(175,-10,o),
(310,-10,cs)
);
}
);
width = 621;
},
{
anchors = (
{
name = bottom;
pos = (312,0);
},
{
name = ogonek;
pos = (392,0);
},
{
name = top;
pos = (312,700);
},
{
name = topright;
pos = (569,700);
}
);
layerId = "69BA87E8-A4A5-4412-BDDB-89C34BF38660";
shapes = (
{
closed = 1;
nodes = (
(461,-10,o),
(564,86,o),
(565,226,cs),
(569,700,l),
(359,700,l),
(359,221,ls),
(359,193,o),
(337,174,o),
(313,174,cs),
(285,174,o),
(267,193,o),
(267,221,cs),
(266,700,l),
(56,700,l),
(56,226,ls),
(56,86,o),
(161,-10,o),
(313,-10,cs)
);
}
);
width = 625;
}
);
metricLeft = H;
metricRight = H;
unicode = 85;
userData = {
com.schriftgestaltung.Glyphs.ColorIndex = 3;
};
},
{
glyphname = Uhorn;
kernLeft = KO_U;
lastChange = "2026-02-06 09:29:34 +0000";
layers = (
{
anchors = (
{
name = bottom;
pos = (308,0);
},
{
name = ogonek;
pos = (376,0);
},
{
name = top;
pos = (308,675);
},
{
name = topright;
pos = (598,784);
}
);
layerId = "5997FD7B-85B3-4973-BC7D-5D24E7B00D9D";
shapes = (
{
closed = 1;
nodes = (
(428,-10,o),
(511,71,o),
(511,189,cs),
(510,700,l),
(486,700,l),
(486,189,ls),
(486,85,o),
(415,12,o),
(307,12,cs),
(200,12,o),
(127,85,o),
(127,189,cs),
(129,700,l),
(105,700,l),
(105,189,ls),
(105,71,o),
(187,-10,o),
(307,-10,cs)
);
},
{
closed = 1;
nodes = (
(554,680,o),
(598,710,o),
(598,784,c),
(576,784,l),
(576,722,o),
(546,700,o),
(510,700,c),
(490,700,l),
(490,680,l),
(510,680,l)
);
}
);
width = 616;
},
{
anchors = (
{
name = bottom;
pos = (311,0);
},
{
name = ogonek;
pos = (385,0);
},
{
name = top;
pos = (311,687);
},
{
name = topright;
pos = (666,790);
}
);
layerId = "0D76174C-E7DB-4B5D-B958-B4B8505ED925";
shapes = (
{
closed = 1;
nodes = (
(445,-10,o),
(537,78,o),
(538,207,cs),
(539,700,l),
(425,700,l),
(425,206,ls),
(425,138,o),
(378,92,o),
(310,92,cs),
(242,92,o),
(196,138,o),
(196,206,cs),
(196,700,l),
(82,700,l),
(82,207,ls),
(82,78,o),
(175,-10,o),
(310,-10,cs)
);
},
{
closed = 1;
nodes = (
(602,640,o),
(666,673,o),
(666,790,c),
(591,790,l),
(591,714,o),
(568,700,o),
(538,700,c),
(491,700,l),
(491,640,l),
(539,640,l)
);
}
);
width = 621;
},
{
anchors = (
{
name = bottom;
pos = (312,0);
},
{
name = ogonek;
pos = (392,0);
},
{
name = top;
pos = (312,700);
},
{
name = topright;
pos = (731,794);
}
);
layerId = "69BA87E8-A4A5-4412-BDDB-89C34BF38660";
shapes = (
{
closed = 1;
nodes = (
(461,-10,o),
(564,86,o),
(565,226,cs),
(569,700,l),
(359,700,l),
(359,221,ls),
(359,193,o),
(337,174,o),
(313,174,cs),
(285,174,o),
(267,193,o),
(267,221,cs),
(266,700,l),
(56,700,l),
(56,226,ls),
(56,86,o),
(161,-10,o),
(313,-10,cs)
);
},
{
closed = 1;
nodes = (
(650,612,o),
(731,652,o),
(731,794,c),
(601,794,l),
(601,714,o),
(587,700,o),
(568,700,c),
(489,700,l),
(489,612,l),
(569,612,l)
);
}
);
width = 625;
}
);
unicode = 431;
},
{
glyphname = V;
kernLeft = KO_V;
kernRight = KO_V;
lastChange = "2025-01-20 07:45:44 +0000";
layers = (
{
anchors = (
{
name = bottom;
pos = (258,0);
},
{
name = top;
pos = (258,675);
}
);
background = {
shapes = (
{
pos = (40,0);
ref = v;
}
);
};
layerId = "5997FD7B-85B3-4973-BC7D-5D24E7B00D9D";
shapes = (
{
closed = 1;
nodes = (
(270,0,l),
(495,700,l),
(470,700,l),
(270,78,l),
(264,42,ls),
(262,32,o),
(254,33,o),
(252,42,cs),
(246,78,l),
(45,700,l),
(20,700,l),
(246,0,l)
);
}
);
width = 515;
},
{
anchors = (
{
name = bottom;
pos = (275,0);
},
{
name = top;
pos = (275,687);
}
);
layerId = "0D76174C-E7DB-4B5D-B958-B4B8505ED925";
shapes = (
{
closed = 1;
nodes = (
(355,0,l),
(528,700,l),
(414,700,l),
(289,166,l),
(282,99,ls),
(281,89,o),
(268,89,o),
(267,99,cs),
(259,166,l),
(136,700,l),
(22,700,l),
(193,0,l)
);
}
);
width = 550;
},
{
anchors = (
{
name = bottom;
pos = (290,0);
},
{
name = top;
pos = (290,700);
}
);
layerId = "69BA87E8-A4A5-4412-BDDB-89C34BF38660";
shapes = (
{
closed = 1;
nodes = (
(421,0,l),
(558,700,l),
(353,700,l),
(299,294,l),
(295,180,ls),
(294,165,o),
(276,165,o),
(275,180,cs),
(273,294,l),
(227,700,l),
(20,700,l),
(151,0,l)
);
}
);
width = 577.66667;
}
);
unicode = 86;
userData = {
KernOnName = V;
com.schriftgestaltung.Glyphs.ColorIndex = 3;
};
},
{
glyphname = W;
kernLeft = KO_W;
kernRight = KO_W;
lastChange = "2025-01-19 17:48:57 +0000";
layers = (
{
anchors = (
{
name = bottom;
pos = (305,0);
},
{
name = top;
pos = (305,675);
}
);
layerId = "5997FD7B-85B3-4973-BC7D-5D24E7B00D9D";
shapes = (
{
closed = 1;
nodes = (
(206,0,l),
(293,431,ls),
(296,444,o),
(306,444,o),
(309,431,cs),
(395,0,l),
(434,0,l),
(581,700,l),
(556,700,l),
(426,75,l),
(422,42,ls),
(421,30,o),
(409,30,o),
(407,42,cs),
(320,492,l),
(281,492,l),
(194,42,ls),
(192,30,o),
(180,30,o),
(179,42,cs),
(176,75,l),
(45,700,l),
(20,700,l),
(167,0,l)
);
}
);
width = 601;
},
{
anchors = (
{
name = bottom;
pos = (308,0);
},
{
name = top;
pos = (308,687);
}
);
layerId = "0D76174C-E7DB-4B5D-B958-B4B8505ED925";
shapes = (
{
closed = 1;
nodes = (
(225,0,l),
(298,284,ls),
(302,298,o),
(314,298,o),
(317,284,cs),
(390,0,l),
(496,0,l),
(593,700,l),
(493,700,l),
(430,279,l),
(429,206,ls),
(429,192,o),
(417,192,o),
(414,203,cs),
(339,504,l),
(276,504,l),
(201,203,ls),
(198,192,o),
(186,192,o),
(186,206,cs),
(185,279,l),
(123,700,l),
(22,700,l),
(119,0,l)
);
}
);
width = 615;
},
{
anchors = (
{
name = bottom;
pos = (328,0);
},
{
name = top;
pos = (328,700);
}
);
layerId = "69BA87E8-A4A5-4412-BDDB-89C34BF38660";
shapes = (
{
closed = 1;
nodes = (
(293,0,l),
(321,177,ls),
(322,182,o),
(334,182,o),
(335,177,cs),
(363,0,l),
(581,0,l),
(636,700,l),
(433,700,l),
(433,534,l),
(434,308,ls),
(434,289,o),
(416,294,o),
(415,303,cs),
(389,517,l),
(267,517,l),
(242,303,ls),
(241,294,o),
(223,291,o),
(223,308,cs),
(224,534,l),
(223,700,l),
(20,700,l),
(75,0,l)
);
}
);
width = 656;
}
);
unicode = 87;
userData = {
com.schriftgestaltung.Glyphs.ColorIndex = 3;
};
},
{
glyphname = X;
kernLeft = KO_X;
kernRight = KO_X;
lastChange = "2026-03-11 15:22:44 +0000";
layers = (
{
anchors = (
{
name = bottom;
pos = (242,0);
},
{
name = bottomright;
pos = (454,0);
},
{
name = top;
pos = (242,675);
}
);
layerId = "5997FD7B-85B3-4973-BC7D-5D24E7B00D9D";
shapes = (
{
closed = 1;
nodes = (
(48,0,l),
(223,288,l),
(236,321,ls),
(239,330,o),
(247,330,o),
(250,321,cs),
(262,288,l),
(436,0,l),
(464,0,l),
(255,346,l),
(464,700,l),
(436,700,l),
(260,402,l),
(249,371,ls),
(245,360,o),
(240,360,o),
(236,371,cs),
(224,404,l),
(48,700,l),
(20,700,l),
(230,346,l),
(20,0,l)
);
}
);
width = 484;
},
{
anchors = (
{
name = bottom;
pos = (273,0);
},
{
name = bottomright;
pos = (483,0);
},
{
name = top;
pos = (273,687);
}
);
layerId = "0D76174C-E7DB-4B5D-B958-B4B8505ED925";
shapes = (
{
closed = 1;
nodes = (
(146,0,l),
(253,239,l),
(265,294,ls),
(267,303,o),
(277,303,o),
(280,294,cs),
(293,239,l),
(399,0,l),
(523,0,l),
(354,352,l),
(523,700,l),
(399,700,l),
(293,465,l),
(280,410,ls),
(277,401,o),
(267,401,o),
(265,410,cs),
(253,465,l),
(146,700,l),
(22,700,l),
(191,352,l),
(22,0,l)
);
}
);
width = 545;
},
{
anchors = (
{
name = bottom;
pos = (301,0);
},
{
name = bottomright;
pos = (542,0);
},
{
name = top;
pos = (301,700);
}
);
layerId = "69BA87E8-A4A5-4412-BDDB-89C34BF38660";
shapes = (
{
closed = 1;
nodes = (
(239,0,l),
(281,180,l),
(291,282,ls),
(293,299,o),
(308,299,o),
(310,282,cs),
(321,180,l),
(363,0,l),
(582,0,l),
(464,351,l),
(582,700,l),
(363,700,l),
(321,523,l),
(310,420,ls),
(308,405,o),
(292,405,o),
(291,420,cs),
(281,523,l),
(239,700,l),
(20,700,l),
(134,351,l),
(20,0,l)
);
}
);
width = 602;
}
);
metricLeft = V;
metricRight = V;
unicode = 88;
userData = {
KernOnName = X;
com.schriftgestaltung.Glyphs.ColorIndex = 3;
com.schriftgestaltung.Glyphs.layer.leftMetricsKey = "==V";
com.schriftgestaltung.Glyphs.layer.rightMetricsKey = "==V";
com.schriftgestaltung.Glyphs.leftMetricsKey = T;
com.schriftgestaltung.Glyphs.rightMetricsKey = T;
};
},
{
glyphname = Y;
kernLeft = KO_Y;
kernRight = KO_Y;
lastChange = "2025-01-20 07:45:44 +0000";
layers = (
{
anchors = (
{
name = bottom;
pos = (231,0);
},
{
name = top;
pos = (231,675);
},
{
name = topleft;
pos = (20,700);
}
);
layerId = "5997FD7B-85B3-4973-BC7D-5D24E7B00D9D";
shapes = (
{
closed = 1;
nodes = (
(243,0,l),
(243,333,l),
(451,700,l),
(423,700,l),
(248,391,l),
(239,364,ls),
(235,353,o),
(227,353,o),
(223,364,cs),
(214,391,l),
(38,700,l),
(10,700,l),
(219,333,l),
(219,0,l)
);
}
);
width = 461.2;
},
{
anchors = (
{
name = bottom;
pos = (246,0);
},
{
name = top;
pos = (246,687);
},
{
name = topleft;
pos = (20,700);
}
);
layerId = "0D76174C-E7DB-4B5D-B958-B4B8505ED925";
shapes = (
{
closed = 1;
nodes = (
(302,0,l),
(302,300,l),
(492,700,l),
(372,700,l),
(267,467,l),
(254,411,ls),
(251,402,o),
(241,402,o),
(239,411,cs),
(227,467,l),
(121,700,l),
(0,700,l),
(190,300,l),
(190,0,l)
);
}
);
width = 492.4;
},
{
anchors = (
{
name = bottom;
pos = (263,0);
},
{
name = top;
pos = (263,700);
},
{
name = topleft;
pos = (20,700);
}
);
layerId = "69BA87E8-A4A5-4412-BDDB-89C34BF38660";
shapes = (
{
closed = 1;
nodes = (
(369,0,l),
(369,225,l),
(525,700,l),
(323,700,l),
(284,537,l),
(273,424,ls),
(271,408,o),
(255,409,o),
(254,424,cs),
(244,537,l),
(206,700,l),
(0,700,l),
(156,225,l),
(156,0,l)
);
}
);
width = 525;
}
);
unicode = 89;
userData = {
KernOnName = Y;
com.schriftgestaltung.Glyphs.ColorIndex = 3;
};
},
{
glyphname = Z;
kernLeft = KO_Z;
kernRight = KO_Z;
lastChange = "2026-03-11 15:22:44 +0000";
layers = (
{
anchors = (
{
name = bottom;
pos = (218,0);
},
{
name = top;
pos = (218,675);
}
);
layerId = "5997FD7B-85B3-4973-BC7D-5D24E7B00D9D";
shapes = (
{
closed = 1;
nodes = (
(402,0,l),
(402,22,l),
(53,22,ls),
(44,22,o),
(41,29,o),
(49,38,cs),
(74,64,l),
(398,678,l),
(398,700,l),
(36,700,l),
(36,581,l),
(58,581,l),
(58,678,l),
(369,678,ls),
(376,678,o),
(381,672,o),
(373,663,cs),
(350,637,l),
(25,21,l),
(25,0,l)
);
}
);
width = 428;
},
{
anchors = (
{
name = bottom;
pos = (242,0);
},
{
name = top;
pos = (242,687);
}
);
layerId = "0D76174C-E7DB-4B5D-B958-B4B8505ED925";
shapes = (
{
closed = 1;
nodes = (
(462,0,l),
(462,103,l),
(166,103,ls),
(159,103,o),
(156,109,o),
(162,117,cs),
(196,158,l),
(462,632,l),
(462,700,l),
(31,700,l),
(31,530,l),
(133,530,l),
(133,606,l),
(324,606,ls),
(332,606,o),
(335,600,o),
(328,592,cs),
(295,551,l),
(25,68,l),
(25,0,l)
);
}
);
width = 487;
},
{
anchors = (
{
name = bottom;
pos = (274,0);
},
{
name = top;
pos = (274,700);
}
);
layerId = "69BA87E8-A4A5-4412-BDDB-89C34BF38660";
shapes = (
{
closed = 1;
nodes = (
(532,0,l),
(532,180,l),
(261,180,ls),
(239,180,o),
(239,197,o),
(257,205,cs),
(310,230,l),
(532,539,l),
(532,700,l),
(25,700,l),
(25,465,l),
(205,465,l),
(205,520,l),
(298,520,ls),
(317,520,o),
(320,506,o),
(304,494,cs),
(249,455,l),
(31,161,l),
(31,0,l)
);
}
);
width = 557;
}
);
metricLeft = "=I/2";
metricRight = "=I/2";
unicode = 90;
userData = {
com.schriftgestaltung.Glyphs.ColorIndex = 3;
com.schriftgestaltung.Glyphs.layer.leftMetricsKey = "==H/2";
com.schriftgestaltung.Glyphs.layer.rightMetricsKey = "==H/2";
};
},
{
color = 9;
glyphname = Z.ss01;
kernRight = KO_Z;
lastChange = "2025-01-19 15:33:47 +0000";
layers = (
{
anchors = (
{
name = bottom;
pos = (236,0);
},
{
name = top;
pos = (236,675);
}
);
layerId = "5997FD7B-85B3-4973-BC7D-5D24E7B00D9D";
shapes = (
{
closed = 1;
nodes = (
(420,0,l),
(420,22,l),
(71,22,ls),
(62,22,o),
(59,29,o),
(67,38,cs),
(92,64,l),
(416,678,l),
(416,700,l),
(54,700,l),
(54,678,l),
(387,678,l),
(394,678,o),
(399,672,o),
(391,663,cs),
(368,637,l),
(43,21,l),
(43,0,l)
);
}
);
width = 463;
},
{
anchors = (
{
name = bottom;
pos = (258,0);
},
{
name = top;
pos = (258,687);
}
);
layerId = "0D76174C-E7DB-4B5D-B958-B4B8505ED925";
shapes = (
{
closed = 1;
nodes = (
(478,0,l),
(478,103,l),
(182,103,ls),
(175,103,o),
(172,109,o),
(178,117,cs),
(212,158,l),
(478,632,l),
(478,700,l),
(47,700,l),
(47,606,l),
(340,606,l),
(348,606,o),
(351,600,o),
(344,592,cs),
(311,551,l),
(41,68,l),
(41,0,l)
);
}
);
width = 519;
},
{
anchors = (
{
name = bottom;
pos = (289,0);
},
{
name = top;
pos = (289,700);
}
);
layerId = "69BA87E8-A4A5-4412-BDDB-89C34BF38660";
shapes = (
{
closed = 1;
nodes = (
(553,0,l),
(553,180,l),
(282,180,ls),
(260,180,o),
(260,197,o),
(278,205,cs),
(331,230,l),
(553,539,l),
(553,700,l),
(46,700,l),
(46,520,l),
(319,520,l),
(338,520,o),
(341,506,o),
(325,494,cs),
(270,455,l),
(52,161,l),
(52,0,l)
);
}
);
width = 599;
}
);
},
{
glyphname = Saltillo;
lastChange = "2025-01-19 17:48:57 +0000";
layers = (
{
layerId = "5997FD7B-85B3-4973-BC7D-5D24E7B00D9D";
shapes = (
{
closed = 1;
nodes = (
(102,370,l),
(102,700,l),
(80,700,l),
(80,370,l)
);
}
);
width = 182;
},
{
layerId = "0D76174C-E7DB-4B5D-B958-B4B8505ED925";
shapes = (
{
closed = 1;
nodes = (
(156,312,l),
(156,700,l),
(66,700,l),
(66,312,l)
);
}
);
width = 222;
},
{
layerId = "69BA87E8-A4A5-4412-BDDB-89C34BF38660";
shapes = (
{
closed = 1;
nodes = (
(204,257,l),
(204,700,l),
(50,700,l),
(50,257,l)
);
}
);
width = 254;
}
);
metricLeft = quotesingle;
metricRight = quotesingle;
unicode = 42891;
},
{
glyphname = a;
kernLeft = KO_a;
kernRight = KO_a;
lastChange = "2025-01-20 07:45:44 +0000";
layers = (
{
anchors = (
{
name = bottom;
pos = (212,0);
},
{
name = ogonek;
pos = (372,-6);
},
{
name = top;
pos = (213,492);
}
);
layerId = "5997FD7B-85B3-4973-BC7D-5D24E7B00D9D";
shapes = (
{
closed = 1;
nodes = (
(392,7,l),
(357,62,l),
(357,366,ls),
(357,444,o),
(304,504,o),
(202,504,cs),
(141,504,o),
(94,487,o),
(48,443,c),
(58,424,l),
(99,462,o),
(141,481,o),
(201,481,cs),
(289,481,o),
(333,429,o),
(333,364,cs),
(333,256,l),
(193,256,ls),
(92,256,o),
(39,207,o),
(39,128,cs),
(39,44,o),
(98,-10,o),
(188,-10,cs),
(258,-10,o),
(307,15,o),
(329,40,cs),
(335,46,o),
(339,46,o),
(343,39,cs),
(372,-6,l)
);
},
{
closed = 1;
nodes = (
(110,12,o),
(63,58,o),
(63,129,cs),
(63,198,o),
(114,234,o),
(194,234,cs),
(294,234,l),
(324,241,ls),
(330,242,o),
(333,240,o),
(333,235,cs),
(333,91,ls),
(333,42,o),
(256,12,o),
(188,12,cs)
);
}
);
width = 437;
},
{
anchors = (
{
name = bottom;
pos = (249,0);
},
{
name = ogonek;
pos = (449,35);
},
{
name = top;
pos = (249,504);
}
);
layerId = "0D76174C-E7DB-4B5D-B958-B4B8505ED925";
shapes = (
{
closed = 1;
nodes = (
(464,44,l),
(417,113,l),
(417,346,ls),
(417,444,o),
(355,516,o),
(226,516,cs),
(162,516,o),
(108,500,o),
(57,465,c),
(88,378,l),
(130,407,o),
(170,423,o),
(219,423,cs),
(286,423,o),
(317,391,o),
(317,340,cs),
(317,278,l),
(212,278,ls),
(114,278,o),
(46,227,o),
(46,135,cs),
(46,50,o),
(106,-10,o),
(202,-10,cs),
(258,-10,o),
(292,11,o),
(324,37,cs),
(330,42,o),
(336,42,o),
(341,35,cs),
(374,-12,l)
);
},
{
closed = 1;
nodes = (
(175,74,o),
(146,101,o),
(146,137,cs),
(146,173,o),
(172,194,o),
(216,194,cs),
(251,194,l),
(299,205,ls),
(310,208,o),
(317,203,o),
(317,194,cs),
(317,161,ls),
(317,109,o),
(279,74,o),
(217,74,cs)
);
}
);
width = 499;
},
{
anchors = (
{
name = bottom;
pos = (269,0);
},
{
name = ogonek;
pos = (474,54);
},
{
name = top;
pos = (269,517);
}
);
layerId = "69BA87E8-A4A5-4412-BDDB-89C34BF38660";
shapes = (
{
closed = 1;
nodes = (
(513,74,l),
(460,148,l),
(460,331,ls),
(460,446,o),
(387,529,o),
(224,529,cs),
(155,529,o),
(77,506,o),
(35,472,c),
(82,340,l),
(116,360,o),
(169,377,o),
(219,377,cs),
(261,377,o),
(288,366,o),
(288,335,cs),
(288,302,l),
(221,302,ls),
(121,302,o),
(34,251,o),
(34,150,cs),
(34,61,o),
(92,-12,o),
(192,-12,cs),
(244,-12,o),
(288,9,o),
(319,30,cs),
(331,38,o),
(337,39,o),
(345,29,cs),
(377,-12,l)
);
},
{
closed = 1;
nodes = (
(203,121,o),
(185,136,o),
(185,159,cs),
(185,181,o),
(203,194,o),
(225,194,cs),
(244,194,l),
(269,206,ls),
(278,210,o),
(288,206,o),
(288,195,cs),
(288,185,ls),
(288,159,o),
(267,121,o),
(230,121,cs)
);
}
);
width = 523;
}
);
unicode = 97;
userData = {
KernOnName = a;
com.schriftgestaltung.Glyphs.ColorIndex = 3;
com.typemytype.robofont.layerData = {
background = {
anchors = (
);
components = (
{
baseGlyph = n;
transformation = (
1,
0,
0,
1,
-5,
0
);
}
);
contours = (
);
lib = {
};
name = a;
unicodes = (
);
width = 491;
};
};
};
},
{
glyphname = abrevedotbelow;
kernLeft = KO_adieresis;
kernRight = KO_a;
lastChange = "2026-02-06 09:30:22 +0000";
layers = (
{
anchors = (
{
name = bottom;
pos = (212,-173);
},
{
name = ogonek;
pos = (372,-6);
},
{
name = top;
pos = (213,655);
}
);
layerId = "5997FD7B-85B3-4973-BC7D-5D24E7B00D9D";
shapes = (
{
closed = 1;
nodes = (
(224,-173,l),
(224,-85,l),
(200,-85,l),
(200,-173,l)
);
},
{
closed = 1;
nodes = (
(284,602,o),
(322,652,o),
(333,711,c),
(318,716,l),
(300,660,o),
(272,622,o),
(213,622,cs),
(154,622,o),
(126,660,o),
(108,716,c),
(93,711,l),
(104,652,o),
(142,602,o),
(213,602,cs)
);
},
{
ref = a;
}
);
width = 437;
},
{
anchors = (
{
name = bottom;
pos = (249,-193);
},
{
name = ogonek;
pos = (449,35);
},
{
name = top;
pos = (249,700);
}
);
layerId = "0D76174C-E7DB-4B5D-B958-B4B8505ED925";
shapes = (
{
closed = 1;
nodes = (
(303,-193,l),
(303,-85,l),
(195,-85,l),
(195,-193,l)
);
},
{
closed = 1;
nodes = (
(334,582,o),
(392,624,o),
(414,701,c),
(337,721,l),
(323,679,o),
(295,655,o),
(249,655,cs),
(203,655,o),
(175,679,o),
(161,721,c),
(84,701,l),
(106,624,o),
(164,582,o),
(249,582,cs)
);
},
{
ref = a;
}
);
width = 499;
},
{
anchors = (
{
name = bottom;
pos = (269,-196);
},
{
name = ogonek;
pos = (474,54);
},
{
name = top;
pos = (269,710);
}
);
layerId = "69BA87E8-A4A5-4412-BDDB-89C34BF38660";
shapes = (
{
closed = 1;
nodes = (
(367,-196,l),
(367,-63,l),
(170,-63,l),
(170,-196,l)
);
},
{
closed = 1;
nodes = (
(390,557,o),
(445,616,o),
(468,693,c),
(349,713,l),
(328,687,o),
(300,676,o),
(269,676,cs),
(237,676,o),
(209,687,o),
(188,713,c),
(70,693,l),
(93,616,o),
(148,557,o),
(269,557,cs)
);
},
{
ref = a;
}
);
width = 523;
}
);
unicode = 7863;
},
{
glyphname = acircumflexdotbelow;
kernLeft = KO_adieresis;
kernRight = KO_a;
lastChange = "2026-02-06 09:30:52 +0000";
layers = (
{
anchors = (
{
name = bottom;
pos = (212,-173);
},
{
name = ogonek;
pos = (372,-6);
},
{
name = top;
pos = (213,665);
}
);
layerId = "5997FD7B-85B3-4973-BC7D-5D24E7B00D9D";
shapes = (
{
closed = 1;
nodes = (
(224,-173,l),
(224,-85,l),
(200,-85,l),
(200,-173,l)
);
},
{
closed = 1;
nodes = (
(134,612,l),
(194,705,l),
(206,728,ls),
(210,735,o),
(216,735,o),
(220,728,cs),
(232,705,l),
(292,612,l),
(318,612,l),
(226,750,l),
(200,750,l),
(108,612,l)
);
},
{
ref = a;
}
);
width = 437;
},
{
anchors = (
{
name = bottom;
pos = (249,-193);
},
{
name = ogonek;
pos = (449,35);
},
{
name = top;
pos = (249,710);
}
);
layerId = "0D76174C-E7DB-4B5D-B958-B4B8505ED925";
shapes = (
{
closed = 1;
nodes = (
(303,-193,l),
(303,-85,l),
(195,-85,l),
(195,-193,l)
);
},
{
closed = 1;
nodes = (
(198,592,l),
(232,654,l),
(242,688,ls),
(245,697,o),
(251,697,o),
(254,688,cs),
(265,654,l),
(299,592,l),
(394,592,l),
(302,750,l),
(194,750,l),
(103,592,l)
);
},
{
ref = a;
}
);
width = 499;
},
{
anchors = (
{
name = bottom;
pos = (269,-196);
},
{
name = ogonek;
pos = (474,54);
},
{
name = top;
pos = (269,750);
}
);
layerId = "69BA87E8-A4A5-4412-BDDB-89C34BF38660";
shapes = (
{
closed = 1;
nodes = (
(367,-196,l),
(367,-63,l),
(170,-63,l),
(170,-196,l)
);
},
{
closed = 1;
nodes = (
(229,567,l),
(251,612,l),
(261,646,ls),
(264,655,o),
(271,655,o),
(273,646,cs),
(282,612,l),
(308,567,l),
(455,567,l),
(367,750,l),
(171,750,l),
(82,567,l)
);
},
{
ref = a;
}
);
width = 523;
}
);
unicode = 7853;
},
{
glyphname = ae;
kernLeft = KO_ae;
kernRight = KO_e;
lastChange = "2025-01-19 17:48:57 +0000";
layers = (
{
anchors = (
{
name = bottom;
pos = (361,0);
},
{
name = top;
pos = (361,500);
}
);
layerId = "5997FD7B-85B3-4973-BC7D-5D24E7B00D9D";
shapes = (
{
closed = 1;
nodes = (
(239,-10,o),
(293,8,o),
(333,42,c),
(349,66,ls),
(354,74,o),
(360,73,o),
(364,66,cs),
(378,42,l),
(410,6,o),
(447,-10,o),
(499,-10,cs),
(549,-10,o),
(600,4,o),
(663,50,c),
(651,72,l),
(606,35,o),
(560,12,o),
(499,12,cs),
(367,12,o),
(358,151,o),
(358,253,c),
(646,253,l),
(666,306,l),
(666,328,o),
(676,502,o),
(510,502,cs),
(447,502,o),
(400,476,o),
(371,432,c),
(362,408,ls),
(358,398,o),
(350,399,o),
(347,408,cs),
(341,432,l),
(318,477,o),
(272,504,o),
(202,504,cs),
(141,504,o),
(94,487,o),
(48,443,c),
(58,424,l),
(99,462,o),
(141,481,o),
(201,481,cs),
(289,481,o),
(333,432,o),
(333,364,cs),
(333,256,l),
(193,256,ls),
(92,256,o),
(39,207,o),
(39,128,cs),
(39,44,o),
(98,-10,o),
(188,-10,cs)
);
},
{
closed = 1;
nodes = (
(110,12,o),
(63,58,o),
(63,129,cs),
(63,198,o),
(114,234,o),
(194,234,cs),
(294,234,l),
(324,241,ls),
(330,242,o),
(333,240,o),
(333,235,cs),
(333,100,ls),
(333,44,o),
(256,12,o),
(188,12,cs)
);
},
{
closed = 1;
nodes = (
(358,384,o),
(388,478,o),
(509,478,cs),
(625,478,o),
(647,373,o),
(644,275,c),
(358,275,l)
);
}
);
width = 711;
},
{
anchors = (
{
name = bottom;
pos = (375,0);
},
{
name = top;
pos = (375,504);
}
);
layerId = "0D76174C-E7DB-4B5D-B958-B4B8505ED925";
shapes = (
{
closed = 1;
nodes = (
(254,-10,o),
(303,5,o),
(346,39,c),
(360,60,ls),
(364,66,o),
(370,67,o),
(375,60,cs),
(390,39,l),
(426,8,o),
(476,-10,o),
(541,-10,cs),
(602,-10,o),
(646,4,o),
(697,39,c),
(667,119,l),
(628,94,o),
(586,80,o),
(541,80,cs),
(451,80,o),
(419,130,o),
(419,227,c),
(699,227,l),
(720,279,l),
(720,397,o),
(677,514,o),
(522,514,cs),
(474,514,o),
(436,500,o),
(405,479,c),
(386,456,ls),
(381,450,o),
(376,450,o),
(371,456,cs),
(351,480,l),
(321,503,o),
(281,516,o),
(226,516,cs),
(162,516,o),
(108,500,o),
(57,465,c),
(88,378,l),
(130,407,o),
(170,423,o),
(219,423,cs),
(286,423,o),
(317,391,o),
(317,340,cs),
(317,278,l),
(212,278,ls),
(114,278,o),
(46,227,o),
(46,135,cs),
(46,50,o),
(107,-10,o),
(206,-10,cs)
);
},
{
closed = 1;
nodes = (
(175,74,o),
(146,101,o),
(146,137,cs),
(146,173,o),
(172,194,o),
(216,194,cs),
(251,194,l),
(299,205,l),
(310,208,o),
(317,203,o),
(317,194,cs),
(317,161,ls),
(317,109,o),
(279,74,o),
(217,74,cs)
);
},
{
closed = 1;
nodes = (
(423,380,o),
(456,425,o),
(522,425,cs),
(600,425,o),
(618,367,o),
(620,309,c),
(421,309,l)
);
}
);
width = 761;
},
{
anchors = (
{
name = bottom;
pos = (383,0);
},
{
name = top;
pos = (383,510);
}
);
layerId = "69BA87E8-A4A5-4412-BDDB-89C34BF38660";
shapes = (
{
closed = 1;
nodes = (
(267,-12,o),
(303,6,o),
(345,32,c),
(365,56,ls),
(371,63,o),
(377,63,o),
(382,56,cs),
(399,32,l),
(434,6,o),
(470,-10,o),
(551,-10,cs),
(607,-10,o),
(690,4,o),
(729,28,c),
(661,168,l),
(639,155,o),
(589,148,o),
(569,148,cs),
(541,148,o),
(481,147,o),
(469,210,c),
(735,210,l),
(757,262,l),
(757,469,o),
(656,527,o),
(521,527,cs),
(480,527,o),
(443,519,o),
(413,505,c),
(394,482,ls),
(387,473,o),
(382,474,o),
(374,482,cs),
(351,505,l),
(317,521,o),
(275,529,o),
(224,529,cs),
(155,529,o),
(77,506,o),
(35,472,c),
(82,340,l),
(116,360,o),
(169,377,o),
(219,377,cs),
(261,377,o),
(288,366,o),
(288,335,cs),
(288,302,l),
(221,302,ls),
(121,302,o),
(34,251,o),
(34,150,cs),
(34,61,o),
(92,-12,o),
(183,-12,cs)
);
},
{
closed = 1;
nodes = (
(203,121,o),
(185,136,o),
(185,159,cs),
(185,181,o),
(203,194,o),
(225,194,cs),
(244,194,l),
(269,206,ls),
(278,210,o),
(288,206,o),
(288,195,cs),
(288,185,ls),
(288,159,o),
(267,121,o),
(230,121,cs)
);
},
{
closed = 1;
nodes = (
(474,367,o),
(488,388,o),
(524,388,cs),
(561,388,o),
(574,357,o),
(581,322,c),
(469,322,l)
);
}
);
width = 789;
}
);
metricLeft = a;
metricRight = e;
unicode = 230;
userData = {
com.schriftgestaltung.Glyphs.leftMetricsKey = a;
com.schriftgestaltung.Glyphs.rightMetricsKey = e;
};
},
{
glyphname = b;
kernLeft = KO_h;
kernRight = KO_p;
lastChange = "2025-01-20 07:45:44 +0000";
layers = (
{
anchors = (
{
name = bottom;
pos = (241,0);
},
{
name = center;
pos = (102,608);
},
{
name = top;
pos = (209,492);
}
);
background = {
anchors = (
{
name = bottom;
pos = (254,0);
},
{
name = center;
pos = (254,246);
},
{
name = ogonek;
pos = (446,10);
},
{
name = top;
pos = (254,492);
},
{
name = topright;
pos = (474,492);
}
);
shapes = (
{
pos = (447,0);
ref = a;
scale = (-1,1);
}
);
};
layerId = "5997FD7B-85B3-4973-BC7D-5D24E7B00D9D";
shapes = (
{
closed = 1;
nodes = (
(104,39,ls),
(108,45,o),
(112,46,o),
(118,40,c),
(137,18,o),
(179,-10,o),
(256,-10,cs),
(363,-10,o),
(414,69,o),
(426,166,cs),
(429,194,o),
(430,219,o),
(430,246,cs),
(430,271,o),
(429,295,o),
(426,324,cs),
(415,431,o),
(351,500,o),
(252,500,cs),
(188,500,o),
(142,475,o),
(114,444,c),
(114,750,l),
(90,750,l),
(90,62,l),
(55,7,l),
(75,-6,l)
);
},
{
closed = 1;
nodes = (
(164,12,o),
(114,53,o),
(114,118,cs),
(114,374,ls),
(114,435,o),
(170,478,o),
(252,478,cs),
(331,478,o),
(394,419,o),
(402,328,cs),
(406,278,o),
(409,211,o),
(402,161,cs),
(392,93,o),
(355,12,o),
(250,12,cs)
);
}
);
width = 484;
},
{
anchors = (
{
name = bottom;
pos = (288,0);
},
{
name = center;
pos = (149,623);
},
{
name = top;
pos = (304,504);
}
);
background = {
shapes = (
{
pos = (511,0);
ref = a;
scale = (-1,1);
}
);
};
layerId = "0D76174C-E7DB-4B5D-B958-B4B8505ED925";
shapes = (
{
closed = 1;
nodes = (
(168,31,ls),
(173,39,o),
(181,39,o),
(190,33,cs),
(220,9,o),
(258,-10,o),
(309,-10,cs),
(430,-10,o),
(495,59,o),
(504,167,cs),
(507,201,o),
(509,227,o),
(509,253,cs),
(509,283,o),
(508,311,o),
(504,347,cs),
(493,449,o),
(436,515,o),
(317,515,cs),
(271,515,o),
(227,498,o),
(202,475,c),
(202,750,l),
(94,750,l),
(94,112,l),
(47,44,l),
(137,-12,l)
);
},
{
closed = 1;
nodes = (
(237,81,o),
(202,114,o),
(202,163,cs),
(202,341,ls),
(202,392,o),
(235,423,o),
(299,423,cs),
(365,423,o),
(394,385,o),
(398,335,cs),
(403,280,o),
(403,224,o),
(398,169,cs),
(393,121,o),
(366,81,o),
(299,81,cs)
);
}
);
width = 564;
},
{
anchors = (
{
name = bottom;
pos = (303,0);
},
{
name = center;
pos = (162,633);
},
{
name = top;
pos = (369,517);
}
);
background = {
shapes = (
{
pos = (523,0);
ref = a;
scale = (-1,1);
}
);
};
layerId = "69BA87E8-A4A5-4412-BDDB-89C34BF38660";
shapes = (
{
closed = 1;
nodes = (
(177,27,ls),
(185,38,o),
(194,39,o),
(205,31,cs),
(252,-2,o),
(295,-10,o),
(330,-10,cs),
(464,-10,o),
(548,55,o),
(557,182,cs),
(560,214,o),
(562,237,o),
(562,261,cs),
(562,296,o),
(561,328,o),
(557,371,cs),
(546,478,o),
(489,530,o),
(387,530,cs),
(324,530,o),
(285,511,o),
(259,488,c),
(259,750,l),
(63,750,l),
(63,148,l),
(10,74,l),
(146,-12,l)
);
},
{
closed = 1;
nodes = (
(283,156,o),
(259,182,o),
(259,213,cs),
(259,306,ls),
(259,338,o),
(280,363,o),
(317,363,cs),
(349,363,o),
(370,340,o),
(372,316,cs),
(376,274,o),
(376,245,o),
(372,203,cs),
(370,179,o),
(351,156,o),
(317,156,cs)
);
}
);
width = 594;
}
);
metricRight = o;
unicode = 98;
userData = {
com.schriftgestaltung.Glyphs.ColorIndex = 3;
com.schriftgestaltung.Glyphs.layer.leftMetricsKey = "==h-45";
com.schriftgestaltung.Glyphs.layer.rightMetricsKey = "==o";
com.schriftgestaltung.Glyphs.leftMetricsKey = "=h-45";
com.typemytype.robofont.layerData = {
background = {
anchors = (
);
components = (
{
baseGlyph = a;
transformation = (
-1,
0,
0,
1,
491,
0
);
}
);
contours = (
);
lib = {
};
name = b;
unicodes = (
);
width = 527;
};
};
};
},
{
glyphname = c;
kernLeft = KO_o;
kernRight = KO_c;
lastChange = "2025-01-20 07:45:44 +0000";
layers = (
{
anchors = (
{
name = bottom;
pos = (227,0);
},
{
name = top;
pos = (227,492);
}
);
background = {
anchors = (
{
name = bottom;
pos = (230,0);
},
{
name = center;
pos = (230,246);
},
{
name = ogonek;
pos = (422,10);
},
{
name = top;
pos = (230,492);
},
{
name = topright;
pos = (450,492);
}
);
};
layerId = "5997FD7B-85B3-4973-BC7D-5D24E7B00D9D";
shapes = (
{
closed = 1;
nodes = (
(298,-11,o),
(336,6,o),
(377,32,c),
(368,52,l),
(332,26,o),
(289,12,o),
(230,11,cs),
(140,11,o),
(90,81,o),
(82,161,cs),
(77,211,o),
(77,278,o),
(82,328,cs),
(90,409,o),
(140,478,o),
(230,478,cs),
(280,478,o),
(320,467,o),
(352,443,c),
(360,463,l),
(326,488,o),
(284,501,o),
(230,501,cs),
(126,501,o),
(66,421,o),
(58,324,cs),
(55,295,o),
(54,268,o),
(54,243,cs),
(54,219,o),
(55,194,o),
(58,166,cs),
(66,69,o),
(126,-11,o),
(230,-11,cs)
);
}
);
width = 401;
},
{
anchors = (
{
name = bottom;
pos = (268,0);
},
{
name = top;
pos = (268,504);
}
);
layerId = "0D76174C-E7DB-4B5D-B958-B4B8505ED925";
shapes = (
{
closed = 1;
nodes = (
(323,-13,o),
(368,1,o),
(417,35,c),
(388,114,l),
(350,90,o),
(313,80,o),
(273,80,cs),
(205,80,o),
(167,122,o),
(163,173,cs),
(158,230,o),
(159,272,o),
(163,330,cs),
(167,381,o),
(205,424,o),
(272,424,cs),
(317,424,o),
(348,411,o),
(383,387,c),
(413,470,l),
(372,500,o),
(328,516,o),
(267,516,cs),
(144,516,o),
(74,442,o),
(61,341,cs),
(57,308,o),
(55,280,o),
(55,252,cs),
(55,224,o),
(57,195,o),
(61,162,cs),
(73,62,o),
(144,-13,o),
(268,-13,cs)
);
}
);
width = 443;
},
{
anchors = (
{
name = bottom;
pos = (275,0);
},
{
name = top;
pos = (275,517);
}
);
layerId = "69BA87E8-A4A5-4412-BDDB-89C34BF38660";
shapes = (
{
closed = 1;
nodes = (
(341,-11,o),
(402,3,o),
(443,39,c),
(395,177,l),
(359,155,o),
(332,148,o),
(302,148,cs),
(264,148,o),
(225,175,o),
(221,214,cs),
(217,245,o),
(217,275,o),
(221,302,cs),
(227,346,o),
(264,372,o),
(302,372,cs),
(343,372,o),
(370,360,o),
(394,338,c),
(445,478,l),
(414,509,o),
(350,529,o),
(282,529,cs),
(138,529,o),
(54,455,o),
(38,351,cs),
(33,318,o),
(32,289,o),
(32,261,cs),
(32,233,o),
(34,201,o),
(38,170,cs),
(52,67,o),
(138,-11,o),
(287,-11,cs)
);
}
);
width = 470;
}
);
metricLeft = o;
unicode = 99;
userData = {
KernOnName = c;
com.schriftgestaltung.Glyphs.ColorIndex = 3;
com.schriftgestaltung.Glyphs.layer.leftMetricsKey = "==o";
com.schriftgestaltung.Glyphs.leftMetricsKey = o;
};
},
{
color = 4;
glyphname = d;
kernLeft = KO_d;
kernRight = KO_d;
lastChange = "2025-01-20 07:45:44 +0000";
layers = (
{
anchors = (
{
name = bottom;
pos = (249,0);
},
{
name = center;
pos = (379,608);
},
{
name = top;
pos = (249,492);
},
{
name = topright;
pos = (464,750);
}
);
layerId = "5997FD7B-85B3-4973-BC7D-5D24E7B00D9D";
shapes = (
{
closed = 1;
nodes = (
(273,-10,o),
(311,2,o),
(339,31,c),
(356,48,ls),
(360,52,o),
(366,51,o),
(366,44,cs),
(366,0,l),
(390,0,l),
(390,750,l),
(366,750,l),
(366,433,l),
(343,469,o),
(294,500,o),
(228,500,cs),
(124,500,o),
(65,422,o),
(57,324,cs),
(55,296,o),
(54,271,o),
(54,246,cs),
(54,222,o),
(54,199,o),
(57,168,cs),
(66,68,o),
(124,-10,o),
(228,-10,cs)
);
},
{
closed = 1;
nodes = (
(127,12,o),
(86,99,o),
(81,169,cs),
(78,220,o),
(76,272,o),
(82,328,cs),
(90,409,o),
(139,478,o),
(230,478,cs),
(305,478,o),
(366,430,o),
(366,367,cs),
(366,119,ls),
(366,62,o),
(306,12,o),
(230,12,cs)
);
}
);
width = 475;
},
{
anchors = (
{
name = bottom;
pos = (275,0);
},
{
name = center;
pos = (415,623);
},
{
name = top;
pos = (275,504);
},
{
name = topright;
pos = (532,750);
}
);
layerId = "0D76174C-E7DB-4B5D-B958-B4B8505ED925";
shapes = (
{
closed = 1;
nodes = (
(262,-10,o),
(272,-8,o),
(286,-5,c),
(341,29,ls),
(354,37,o),
(362,32,o),
(362,20,cs),
(362,0,l),
(470,0,l),
(470,750,l),
(362,750,l),
(362,480,l),
(337,501,o),
(293,515,o),
(247,515,cs),
(129,515,o),
(69,449,o),
(59,347,cs),
(56,311,o),
(55,283,o),
(55,253,cs),
(55,225,o),
(56,196,o),
(59,159,cs),
(68,56,o),
(127,-10,o),
(243,-10,cs)
);
},
{
closed = 1;
nodes = (
(198,80,o),
(170,120,o),
(166,168,cs),
(162,224,o),
(161,281,o),
(166,336,cs),
(171,385,o),
(199,423,o),
(266,423,cs),
(329,423,o),
(362,392,o),
(362,342,cs),
(362,162,ls),
(362,114,o),
(327,80,o),
(266,80,cs)
);
}
);
width = 547;
},
{
anchors = (
{
name = bottom;
pos = (279,0);
},
{
name = center;
pos = (428,633);
},
{
name = top;
pos = (279,517);
},
{
name = topright;
pos = (593,750);
}
);
layerId = "69BA87E8-A4A5-4412-BDDB-89C34BF38660";
shapes = (
{
closed = 1;
nodes = (
(220,-10,o),
(233,-10,o),
(240,-7,c),
(314,34,ls),
(330,43,o),
(335,37,o),
(335,26,cs),
(335,0,l),
(531,0,l),
(531,750,l),
(335,750,l),
(335,488,l),
(309,511,o),
(270,530,o),
(207,530,cs),
(129,530,o),
(50,478,o),
(38,371,cs),
(33,328,o),
(32,296,o),
(32,261,cs),
(32,227,o),
(35,194,o),
(38,149,cs),
(47,43,o),
(100,-10,o),
(216,-10,cs)
);
},
{
closed = 1;
nodes = (
(243,156,o),
(224,179,o),
(222,203,cs),
(218,245,o),
(218,274,o),
(222,316,cs),
(224,340,o),
(245,363,o),
(277,363,cs),
(314,363,o),
(335,338,o),
(335,306,cs),
(335,213,ls),
(335,182,o),
(311,156,o),
(277,156,cs)
);
}
);
width = 571;
}
);
metricLeft = o;
unicode = 100;
userData = {
KernOnName = d;
com.schriftgestaltung.Glyphs.ColorIndex = 3;
com.schriftgestaltung.Glyphs.layer.leftMetricsKey = "==o";
com.schriftgestaltung.Glyphs.layer.rightMetricsKey = "==i";
com.schriftgestaltung.Glyphs.rightMetricsKey = l;
};
},
{
glyphname = dzcaron;
lastChange = "2026-02-06 09:31:25 +0000";
layers = (
{
anchors = (
{
name = bottom;
pos = (669,0);
},
{
name = center;
pos = (379,608);
},
{
name = top;
pos = (669,655);
},
{
name = topright;
pos = (464,750);
}
);
layerId = "5997FD7B-85B3-4973-BC7D-5D24E7B00D9D";
shapes = (
{
closed = 1;
nodes = (
(273,-10,o),
(311,2,o),
(339,31,c),
(356,48,ls),
(360,52,o),
(366,51,o),
(366,44,cs),
(366,0,l),
(390,0,l),
(390,750,l),
(366,750,l),
(366,433,l),
(343,469,o),
(294,500,o),
(228,500,cs),
(124,500,o),
(65,422,o),
(57,324,cs),
(55,296,o),
(54,271,o),
(54,246,cs),
(54,222,o),
(54,199,o),
(57,168,cs),
(66,68,o),
(124,-10,o),
(228,-10,cs)
);
},
{
closed = 1;
nodes = (
(127,12,o),
(86,99,o),
(81,169,cs),
(78,220,o),
(76,272,o),
(82,328,cs),
(90,409,o),
(139,478,o),
(230,478,cs),
(305,478,o),
(366,430,o),
(366,367,cs),
(366,119,ls),
(366,62,o),
(306,12,o),
(230,12,cs)
);
},
{
closed = 1;
nodes = (
(824,0,l),
(824,22,l),
(557,22,ls),
(549,22,o),
(546,25,o),
(551,32,cs),
(583,75,l),
(824,488,l),
(824,492,l),
(514,492,l),
(514,470,l),
(782,470,ls),
(789,470,o),
(791,464,o),
(787,458,cs),
(756,417,l),
(514,3,l),
(514,0,l)
);
},
{
closed = 1;
nodes = (
(680,612,l),
(772,750,l),
(746,750,l),
(686,657,l),
(674,634,ls),
(670,627,o),
(664,627,o),
(660,634,cs),
(648,657,l),
(588,750,l),
(562,750,l),
(654,612,l)
);
}
);
width = 874;
},
{
anchors = (
{
name = bottom;
pos = (773,0);
},
{
name = center;
pos = (415,623);
},
{
name = top;
pos = (773,720);
},
{
name = topright;
pos = (532,750);
}
);
layerId = "0D76174C-E7DB-4B5D-B958-B4B8505ED925";
shapes = (
{
closed = 1;
nodes = (
(262,-10,o),
(272,-8,o),
(286,-5,c),
(341,29,ls),
(354,37,o),
(362,32,o),
(362,20,cs),
(362,0,l),
(470,0,l),
(470,750,l),
(362,750,l),
(362,480,l),
(337,501,o),
(293,515,o),
(247,515,cs),
(129,515,o),
(69,449,o),
(59,347,cs),
(56,311,o),
(55,283,o),
(55,253,cs),
(55,225,o),
(56,196,o),
(59,159,cs),
(68,56,o),
(127,-10,o),
(243,-10,cs)
);
},
{
closed = 1;
nodes = (
(198,80,o),
(170,120,o),
(166,168,cs),
(162,224,o),
(161,281,o),
(166,336,cs),
(171,385,o),
(199,423,o),
(266,423,cs),
(329,423,o),
(362,392,o),
(362,342,cs),
(362,162,ls),
(362,114,o),
(327,80,o),
(266,80,cs)
);
},
{
closed = 1;
nodes = (
(954,0,l),
(954,90,l),
(723,90,ls),
(716,90,o),
(709,95,o),
(720,106,cs),
(753,137,l),
(954,434,l),
(954,504,l),
(591,504,l),
(591,414,l),
(821,414,ls),
(828,414,o),
(836,409,o),
(824,398,cs),
(792,367,l),
(591,70,l),
(591,0,l)
);
},
{
closed = 1;
nodes = (
(825,591,l),
(918,750,l),
(825,750,l),
(789,687,l),
(778,653,ls),
(775,644,o),
(769,644,o),
(766,653,cs),
(756,687,l),
(720,750,l),
(627,750,l),
(720,591,l)
);
}
);
width = 1002;
},
{
anchors = (
{
name = bottom;
pos = (815,0);
},
{
name = center;
pos = (428,633);
},
{
name = top;
pos = (815,750);
},
{
name = topright;
pos = (593,750);
}
);
layerId = "69BA87E8-A4A5-4412-BDDB-89C34BF38660";
shapes = (
{
closed = 1;
nodes = (
(220,-10,o),
(233,-10,o),
(240,-7,c),
(314,34,ls),
(330,43,o),
(335,37,o),
(335,26,cs),
(335,0,l),
(531,0,l),
(531,750,l),
(335,750,l),
(335,488,l),
(309,511,o),
(270,530,o),
(207,530,cs),
(129,530,o),
(50,478,o),
(38,371,cs),
(33,328,o),
(32,296,o),
(32,261,cs),
(32,227,o),
(35,194,o),
(38,149,cs),
(47,43,o),
(100,-10,o),
(216,-10,cs)
);
},
{
closed = 1;
nodes = (
(243,156,o),
(224,179,o),
(222,203,cs),
(218,245,o),
(218,274,o),
(222,316,cs),
(224,340,o),
(245,363,o),
(277,363,cs),
(314,363,o),
(335,338,o),
(335,306,cs),
(335,213,ls),
(335,182,o),
(311,156,o),
(277,156,cs)
);
},
{
closed = 1;
nodes = (
(1024,0,l),
(1024,153,l),
(824,153,ls),
(813,153,o),
(811,162,o),
(821,169,cs),
(855,194,l),
(1024,377,l),
(1024,517,l),
(606,517,l),
(606,363,l),
(804,363,ls),
(815,363,o),
(817,354,o),
(807,347,cs),
(773,323,l),
(606,141,l),
(606,0,l)
);
},
{
closed = 1;
nodes = (
(916,563,l),
(1002,750,l),
(852,750,l),
(829,701,l),
(820,667,ls),
(818,658,o),
(811,658,o),
(808,667,cs),
(798,701,l),
(779,750,l),
(629,750,l),
(716,563,l)
);
}
);
width = 1056;
}
);
unicode = 454;
},
{
glyphname = eth;
lastChange = "2026-03-11 15:22:44 +0000";
layers = (
{
layerId = "5997FD7B-85B3-4973-BC7D-5D24E7B00D9D";
shapes = (
{
closed = 1;
nodes = (
(252,585,l),
(362,402,ls),
(370,389,o),
(360,381,o),
(346,391,cs),
(321,408,l),
(302,413,o),
(286,414,o),
(266,414,cs),
(177,414,o),
(54,371,o),
(54,199,cs),
(54,77,o),
(138,-12,o),
(257,-12,cs),
(370,-12,o),
(460,77,o),
(460,199,cs),
(460,275,o),
(429,326,o),
(367,434,cs),
(271,601,l),
(366,678,l),
(350,693,l),
(260,620,l),
(214,700,l),
(184,700,l),
(241,604,l),
(144,525,l),
(160,510,l)
);
},
{
closed = 1;
nodes = (
(145,12,o),
(78,94,o),
(76,199,cs),
(76,309,o),
(143,386,o),
(257,390,cs),
(363,396,o),
(439,309,o),
(438,199,cs),
(436,94,o),
(367,12,o),
(257,12,cs)
);
}
);
width = 514;
},
{
layerId = "0D76174C-E7DB-4B5D-B958-B4B8505ED925";
shapes = (
{
closed = 1;
nodes = (
(276,540,l),
(352,430,ls),
(361,417,o),
(354,407,o),
(340,414,cs),
(294,438,l),
(283,440,o),
(273,441,o),
(263,441,cs),
(160,441,o),
(55,365,o),
(55,219,cs),
(55,80,o),
(153,-12,o),
(296,-12,cs),
(443,-12,o),
(538,80,o),
(538,219,cs),
(538,292,o),
(517,347,o),
(445,461,cs),
(362,594,l),
(436,640,l),
(395,700,l),
(323,656,l),
(295,700,l),
(166,700,l),
(234,601,l),
(158,555,l),
(200,493,l)
);
},
{
closed = 1;
nodes = (
(213,88,o),
(161,139,o),
(162,219,cs),
(162,299,o),
(215,350,o),
(296,350,cs),
(378,350,o),
(431,299,o),
(432,219,cs),
(432,139,o),
(379,88,o),
(296,88,cs)
);
}
);
width = 593;
},
{
layerId = "69BA87E8-A4A5-4412-BDDB-89C34BF38660";
shapes = (
{
closed = 1;
nodes = (
(275,514,l),
(310,466,ls),
(319,453,o),
(316,443,o),
(298,450,cs),
(252,468,l),
(245,469,o),
(237,470,o),
(230,470,cs),
(119,470,o),
(32,359,o),
(32,240,cs),
(32,82,o),
(147,-12,o),
(317,-12,cs),
(500,-12,o),
(599,82,o),
(599,240,cs),
(599,309,o),
(589,370,o),
(506,489,cs),
(440,584,l),
(485,604,l),
(426,700,l),
(374,678,l),
(359,700,l),
(139,700,l),
(206,609,l),
(153,587,l),
(206,484,l)
);
},
{
closed = 1;
nodes = (
(256,152,o),
(222,184,o),
(224,241,cs),
(224,298,o),
(258,330,o),
(315,330,cs),
(372,330,o),
(406,298,o),
(407,241,cs),
(409,184,o),
(375,152,o),
(315,152,cs)
);
}
);
width = 631;
}
);
metricLeft = o;
metricRight = o;
unicode = 240;
userData = {
com.schriftgestaltung.Glyphs.leftMetricsKey = six;
com.schriftgestaltung.Glyphs.rightMetricsKey = six;
};
},
{
glyphname = e;
kernLeft = KO_e;
kernRight = KO_e;
lastChange = "2025-01-20 07:45:44 +0000";
layers = (
{
anchors = (
{
name = bottom;
pos = (229,0);
},
{
name = ogonek;
pos = (287,3);
},
{
name = top;
pos = (229,492);
}
);
layerId = "5997FD7B-85B3-4973-BC7D-5D24E7B00D9D";
shapes = (
{
closed = 1;
nodes = (
(270,-10,o),
(321,4,o),
(384,50,c),
(372,72,l),
(327,35,o),
(281,12,o),
(220,12,cs),
(119,12,o),
(93,91,o),
(84,160,cs),
(74,241,o),
(81,323,o),
(86,355,cs),
(96,420,o),
(146,478,o),
(230,478,cs),
(346,478,o),
(368,373,o),
(365,275,c),
(68,275,l),
(68,253,l),
(367,253,l),
(387,306,l),
(387,328,o),
(397,502,o),
(231,502,cs),
(127,502,o),
(69,431,o),
(60,338,cs),
(56,305,o),
(54,277,o),
(54,249,cs),
(54,221,o),
(56,193,o),
(60,161,cs),
(69,64,o),
(109,-10,o),
(220,-10,cs)
);
}
);
width = 432;
},
{
anchors = (
{
name = bottom;
pos = (257,0);
},
{
name = ogonek;
pos = (378,10);
},
{
name = top;
pos = (259,504);
}
);
layerId = "0D76174C-E7DB-4B5D-B958-B4B8505ED925";
shapes = (
{
closed = 1;
nodes = (
(339,-10,o),
(383,4,o),
(434,39,c),
(405,119,l),
(366,94,o),
(324,80,o),
(278,80,cs),
(205,80,o),
(166,118,o),
(160,180,cs),
(154,238,o),
(156,288,o),
(159,322,cs),
(163,380,o),
(195,425,o),
(260,425,cs),
(337,425,o),
(356,367,o),
(357,309,c),
(106,309,l),
(107,227,l),
(437,227,l),
(457,279,l),
(457,397,o),
(415,514,o),
(259,514,cs),
(143,514,o),
(73,438,o),
(61,338,cs),
(57,305,o),
(55,277,o),
(55,249,cs),
(55,221,o),
(57,194,o),
(61,162,cs),
(75,64,o),
(149,-10,o),
(278,-10,cs)
);
}
);
width = 498;
},
{
anchors = (
{
name = bottom;
pos = (262,0);
},
{
name = ogonek;
pos = (426,10);
},
{
name = top;
pos = (266,517);
}
);
layerId = "69BA87E8-A4A5-4412-BDDB-89C34BF38660";
shapes = (
{
closed = 1;
nodes = (
(352,-10,o),
(435,4,o),
(474,28,c),
(406,168,l),
(384,155,o),
(334,148,o),
(314,148,cs),
(284,148,o),
(218,147,o),
(212,223,cs),
(212,236,o),
(211,252,o),
(212,288,cs),
(214,357,o),
(225,388,o),
(269,388,cs),
(306,388,o),
(319,357,o),
(326,322,c),
(120,322,l),
(124,210,l),
(480,210,l),
(502,262,l),
(502,469,o),
(401,527,o),
(266,527,cs),
(135,527,o),
(54,446,o),
(38,338,cs),
(34,305,o),
(32,277,o),
(32,249,cs),
(32,221,o),
(34,196,o),
(38,164,cs),
(57,64,o),
(157,-10,o),
(296,-10,cs)
);
}
);
width = 534;
}
);
metricLeft = o;
unicode = 101;
userData = {
com.schriftgestaltung.Glyphs.ColorIndex = 3;
com.schriftgestaltung.Glyphs.layer.leftMetricsKey = "==o";
com.schriftgestaltung.Glyphs.leftMetricsKey = o;
};
},
{
glyphname = ecircumflexdotbelow;
kernLeft = "KO_io-cy";
kernRight = KO_e;
lastChange = "2026-02-06 09:31:52 +0000";
layers = (
{
anchors = (
{
name = bottom;
pos = (229,-173);
},
{
name = ogonek;
pos = (287,3);
},
{
name = top;
pos = (229,665);
}
);
layerId = "5997FD7B-85B3-4973-BC7D-5D24E7B00D9D";
shapes = (
{
closed = 1;
nodes = (
(241,-173,l),
(241,-85,l),
(217,-85,l),
(217,-173,l)
);
},
{
closed = 1;
nodes = (
(150,612,l),
(210,705,l),
(222,728,ls),
(226,735,o),
(232,735,o),
(236,728,cs),
(248,705,l),
(308,612,l),
(334,612,l),
(242,750,l),
(216,750,l),
(124,612,l)
);
},
{
ref = e;
}
);
width = 432;
},
{
anchors = (
{
name = bottom;
pos = (257,-193);
},
{
name = ogonek;
pos = (378,10);
},
{
name = top;
pos = (259,710);
}
);
layerId = "0D76174C-E7DB-4B5D-B958-B4B8505ED925";
shapes = (
{
closed = 1;
nodes = (
(311,-193,l),
(311,-85,l),
(203,-85,l),
(203,-193,l)
);
},
{
closed = 1;
nodes = (
(208,592,l),
(242,654,l),
(252,688,ls),
(255,697,o),
(261,697,o),
(264,688,cs),
(275,654,l),
(309,592,l),
(404,592,l),
(312,750,l),
(204,750,l),
(113,592,l)
);
},
{
ref = e;
}
);
width = 498;
},
{
anchors = (
{
name = bottom;
pos = (262,-196);
},
{
name = ogonek;
pos = (426,10);
},
{
name = top;
pos = (266,750);
}
);
layerId = "69BA87E8-A4A5-4412-BDDB-89C34BF38660";
shapes = (
{
closed = 1;
nodes = (
(360,-196,l),
(360,-63,l),
(163,-63,l),
(163,-196,l)
);
},
{
closed = 1;
nodes = (
(226,567,l),
(248,612,l),
(258,646,ls),
(261,655,o),
(268,655,o),
(270,646,cs),
(279,612,l),
(305,567,l),
(452,567,l),
(364,750,l),
(168,750,l),
(79,567,l)
);
},
{
ref = e;
}
);
width = 534;
}
);
unicode = 7879;
},
{
glyphname = ezh;
lastChange = "2025-01-19 17:48:57 +0000";
layers = (
{
anchors = (
{
name = bottom;
pos = (253,0);
},
{
name = top;
pos = (253,492);
}
);
background = {
shapes = (
{
ref = g;
}
);
};
layerId = "5997FD7B-85B3-4973-BC7D-5D24E7B00D9D";
shapes = (
{
closed = 1;
nodes = (
(338,-193,o),
(442,-121,o),
(442,2,cs),
(442,125,o),
(357,176,o),
(180,176,c),
(180,166,l),
(438,484,l),
(438,492,l),
(71,492,l),
(71,470,l),
(391,470,ls),
(400,470,o),
(401,464,o),
(395,459,cs),
(360,425,l),
(148,162,l),
(148,152,l),
(206,152,ls),
(341,152,o),
(418,105,o),
(418,2,cs),
(418,-103,o),
(331,-171,o),
(233,-171,cs),
(162,-171,o),
(110,-151,o),
(75,-115,c),
(59,-137,l),
(112,-177,o),
(155,-193,o),
(231,-193,cs)
);
}
);
width = 505.2;
},
{
anchors = (
{
name = bottom;
pos = (262,0);
},
{
name = top;
pos = (262,504);
}
);
background = {
shapes = (
{
ref = g;
}
);
};
layerId = "0D76174C-E7DB-4B5D-B958-B4B8505ED925";
shapes = (
{
closed = 1;
nodes = (
(339,-207,o),
(478,-145,o),
(478,17,cs),
(478,158,o),
(380,219,o),
(209,222,c),
(241,185,l),
(447,436,l),
(447,504,l),
(47,504,l),
(47,410,l),
(296,410,ls),
(305,410,o),
(309,402,o),
(302,395,cs),
(270,365,l),
(133,189,l),
(133,125,l),
(207,125,ls),
(323,125,o),
(370,83,o),
(370,15,cs),
(370,-57,o),
(319,-106,o),
(219,-106,cs),
(160,-106,o),
(104,-84,o),
(60,-45,c),
(24,-133,l),
(83,-185,o),
(145,-207,o),
(224,-207,cs)
);
}
);
width = 524.4;
},
{
anchors = (
{
name = bottom;
pos = (272,0);
},
{
name = top;
pos = (248,517);
}
);
background = {
shapes = (
{
ref = g;
}
);
};
layerId = "69BA87E8-A4A5-4412-BDDB-89C34BF38660";
shapes = (
{
closed = 1;
nodes = (
(363,-220,o),
(511,-132,o),
(511,45,cs),
(511,190,o),
(404,256,o),
(263,269,c),
(246,163,l),
(457,385,l),
(457,517,l),
(22,517,l),
(22,357,l),
(203,357,ls),
(217,357,o),
(223,345,o),
(211,336,cs),
(190,320,l),
(118,217,l),
(118,97,l),
(239,97,ls),
(298,97,o),
(319,64,o),
(319,35,cs),
(319,-20,o),
(274,-46,o),
(199,-46,cs),
(151,-46,o),
(83,-22,o),
(40,13,c),
(-16,-154,l),
(55,-207,o),
(132,-220,o),
(215,-220,cs)
);
}
);
width = 544.66667;
}
);
unicode = 658;
},
{
glyphname = f;
kernLeft = KO_f;
kernRight = KO_f;
lastChange = "2025-01-20 07:45:44 +0000";
layers = (
{
anchors = (
{
name = bottom;
pos = (155,0);
},
{
name = top;
pos = (155,492);
}
);
layerId = "5997FD7B-85B3-4973-BC7D-5D24E7B00D9D";
shapes = (
{
closed = 1;
nodes = (
(153,0,l),
(153,470,l),
(306,470,l),
(306,492,l),
(153,492,l),
(153,596,ls),
(153,679,o),
(207,731,o),
(290,731,cs),
(326,731,o),
(361,719,o),
(385,699,c),
(398,715,l),
(369,738,o),
(333,753,o),
(291,753,cs),
(193,753,o),
(131,693,o),
(131,596,cs),
(131,492,l),
(20,492,l),
(20,470,l),
(131,470,l),
(131,0,l)
);
}
);
width = 327;
},
{
anchors = (
{
name = bottom;
pos = (185,0);
},
{
name = top;
pos = (185,504);
}
);
layerId = "0D76174C-E7DB-4B5D-B958-B4B8505ED925";
shapes = (
{
closed = 1;
nodes = (
(225,0,l),
(225,412,l),
(345,412,l),
(345,504,l),
(225,504,l),
(225,577,ls),
(225,629,o),
(260,661,o),
(327,661,cs),
(354,661,o),
(380,655,o),
(402,643,c),
(441,720,l),
(411,740,o),
(367,753,o),
(316,753,cs),
(186,753,o),
(119,676,o),
(119,576,cs),
(119,504,l),
(23,504,l),
(23,412,l),
(119,412,l),
(119,0,l)
);
}
);
width = 372;
},
{
anchors = (
{
name = bottom;
pos = (197,0);
},
{
name = top;
pos = (197,517);
}
);
layerId = "69BA87E8-A4A5-4412-BDDB-89C34BF38660";
shapes = (
{
closed = 1;
nodes = (
(281,0,l),
(281,357,l),
(367,357,l),
(367,517,l),
(281,517,l),
(281,541,ls),
(281,572,o),
(299,595,o),
(344,595,cs),
(364,595,o),
(380,592,o),
(395,588,c),
(451,718,l),
(419,740,o),
(370,753,o),
(319,753,cs),
(188,753,o),
(83,693,o),
(83,555,cs),
(83,517,l),
(20,517,l),
(20,357,l),
(83,357,l),
(83,0,l)
);
}
);
width = 441;
}
);
metricLeft = "=t";
unicode = 102;
userData = {
KernOnName = f;
com.schriftgestaltung.Glyphs.ColorIndex = 3;
};
},
{
glyphname = g;
kernLeft = KO_d;
kernRight = KO_g;
lastChange = "2025-01-19 17:48:57 +0000";
layers = (
{
anchors = (
{
name = bottom;
pos = (236,0);
},
{
name = top;
pos = (236,492);
}
);
background = {
anchors = (
{
name = bottom;
pos = (249,0);
},
{
name = center;
pos = (381,609);
},
{
name = top;
pos = (249,492);
},
{
name = topright;
pos = (484,492);
}
);
};
layerId = "5997FD7B-85B3-4973-BC7D-5D24E7B00D9D";
shapes = (
{
closed = 1;
nodes = (
(323,-210,o),
(387,-153,o),
(387,-63,cs),
(387,492,l),
(366,492,l),
(366,464,l),
(332,492,o),
(289,502,o),
(238,502,cs),
(124,502,o),
(65,422,o),
(57,324,cs),
(55,296,o),
(54,271,o),
(54,246,cs),
(54,222,o),
(54,199,o),
(57,168,cs),
(66,68,o),
(124,-10,o),
(228,-10,cs),
(260,-10,o),
(278,-8,o),
(297,-4,c),
(350,33,ls),
(362,41,o),
(365,33,o),
(365,26,cs),
(365,-63,ls),
(365,-140,o),
(309,-188,o),
(221,-188,cs),
(169,-188,o),
(127,-173,o),
(94,-148,c),
(88,-169,l),
(124,-198,o),
(167,-210,o),
(221,-210,cs)
);
},
{
closed = 1;
nodes = (
(127,12,o),
(86,99,o),
(81,169,cs),
(78,220,o),
(76,272,o),
(82,328,cs),
(90,409,o),
(139,480,o),
(240,480,cs),
(312,480,o),
(366,453,o),
(366,420,cs),
(366,120,ls),
(366,56,o),
(316,12,o),
(230,12,cs)
);
}
);
width = 472;
},
{
anchors = (
{
name = bottom;
pos = (271,0);
},
{
name = top;
pos = (271,504);
}
);
layerId = "0D76174C-E7DB-4B5D-B958-B4B8505ED925";
shapes = (
{
closed = 1;
nodes = (
(401,-210,o),
(470,-120,o),
(470,-26,cs),
(470,504,l),
(362,504,l),
(362,476,l),
(337,499,o),
(292,515,o),
(247,515,cs),
(129,515,o),
(68,449,o),
(59,347,cs),
(56,311,o),
(55,283,o),
(55,253,cs),
(55,225,o),
(56,196,o),
(59,159,cs),
(68,56,o),
(130,-10,o),
(239,-10,cs),
(260,-10,o),
(271,-8,o),
(285,-5,c),
(343,29,ls),
(354,36,o),
(362,34,o),
(362,20,cs),
(362,-26,ls),
(362,-88,o),
(319,-119,o),
(252,-119,cs),
(192,-119,o),
(160,-111,o),
(117,-84,c),
(89,-167,l),
(143,-199,o),
(184,-210,o),
(253,-210,cs)
);
},
{
closed = 1;
nodes = (
(198,80,o),
(170,119,o),
(166,168,cs),
(161,223,o),
(161,280,o),
(166,336,cs),
(171,385,o),
(199,423,o),
(265,423,cs),
(329,423,o),
(362,392,o),
(362,342,cs),
(362,162,ls),
(362,113,o),
(327,80,o),
(265,80,cs)
);
}
);
width = 547;
},
{
anchors = (
{
name = bottom;
pos = (282,0);
},
{
name = top;
pos = (282,517);
}
);
layerId = "69BA87E8-A4A5-4412-BDDB-89C34BF38660";
shapes = (
{
closed = 1;
nodes = (
(457,-221,o),
(530,-126,o),
(530,-25,cs),
(530,517,l),
(333,517,l),
(333,481,l),
(310,504,o),
(271,530,o),
(209,530,cs),
(113,530,o),
(45,459,o),
(38,371,cs),
(33,328,o),
(32,296,o),
(32,261,cs),
(32,227,o),
(33,194,o),
(38,149,cs),
(47,43,o),
(111,-10,o),
(197,-10,cs),
(210,-10,o),
(228,-10,o),
(237,-10,c),
(314,35,l),
(325,41,o),
(335,36,o),
(335,28,cs),
(335,0,ls),
(335,-43,o),
(302,-79,o),
(246,-79,cs),
(198,-79,o),
(162,-69,o),
(113,-47,c),
(60,-175,l),
(144,-212,o),
(204,-221,o),
(256,-221,cs)
);
},
{
closed = 1;
nodes = (
(243,156,o),
(224,179,o),
(222,203,cs),
(218,245,o),
(218,274,o),
(222,316,cs),
(224,340,o),
(245,363,o),
(277,363,cs),
(314,363,o),
(335,338,o),
(335,306,cs),
(335,213,ls),
(335,182,o),
(311,156,o),
(277,156,cs)
);
}
);
width = 570;
}
);
unicode = 103;
},
{
glyphname = gstroke;
lastChange = "2025-01-19 17:48:57 +0000";
layers = (
{
anchors = (
{
name = _center;
pos = (434,9);
},
{
name = bottom;
pos = (277,0);
},
{
name = top;
pos = (277,510);
}
);
background = {
shapes = (
{
closed = 1;
nodes = (
(390,-203,o),
(444,-114,o),
(444,-22,cs),
(444,500,l),
(364,500,l),
(364,472,l),
(338,495,o),
(292,510,o),
(245,510,cs),
(129,510,o),
(68,444,o),
(59,349,cs),
(56,324,o),
(55,303,o),
(55,281,cs),
(55,260,o),
(56,239,o),
(59,212,cs),
(68,116,o),
(129,50,o),
(245,50,cs),
(268,50,o),
(277,52,o),
(293,57,c),
(345,87,l),
(356,94,o),
(364,93,o),
(364,78,cs),
(364,-40,ls),
(364,-98,o),
(317,-131,o),
(242,-131,cs),
(185,-131,o),
(141,-119,o),
(110,-95,c),
(91,-160,l),
(133,-190,o),
(179,-203,o),
(243,-203,cs)
);
},
{
closed = 1;
nodes = (
(554,-69,l),
(554,0,l),
(223,0,l),
(223,-69,l)
);
},
{
closed = 1;
nodes = (
(174,118,o),
(142,168,o),
(137,227,cs),
(133,267,o),
(132,298,o),
(137,333,cs),
(143,393,o),
(174,440,o),
(254,440,cs),
(324,440,o),
(364,406,o),
(364,352,cs),
(364,208,ls),
(364,154,o),
(324,118,o),
(254,118,cs)
);
}
);
};
layerId = "5997FD7B-85B3-4973-BC7D-5D24E7B00D9D";
shapes = (
{
closed = 1;
nodes = (
(324,-194,o),
(388,-137,o),
(388,-47,cs),
(388,492,l),
(367,492,l),
(367,464,l),
(333,492,o),
(290,502,o),
(239,502,cs),
(125,502,o),
(66,422,o),
(58,324,cs),
(56,296,o),
(55,271,o),
(55,246,cs),
(55,222,o),
(55,199,o),
(58,168,cs),
(67,68,o),
(125,-10,o),
(229,-10,cs),
(261,-10,o),
(279,-8,o),
(298,-4,c),
(351,33,ls),
(363,41,o),
(366,33,o),
(366,26,cs),
(366,-47,ls),
(366,-124,o),
(310,-172,o),
(222,-172,cs),
(170,-172,o),
(128,-157,o),
(95,-132,c),
(89,-153,l),
(125,-182,o),
(168,-194,o),
(222,-194,cs)
);
},
{
closed = 1;
nodes = (
(498,-69,l),
(498,-49,l),
(244,-49,l),
(244,-69,l)
);
},
{
closed = 1;
nodes = (
(128,12,o),
(87,99,o),
(82,169,cs),
(79,220,o),
(77,272,o),
(83,328,cs),
(91,409,o),
(140,480,o),
(241,480,cs),
(313,480,o),
(367,453,o),
(367,420,cs),
(367,120,ls),
(367,56,o),
(317,12,o),
(231,12,cs)
);
}
);
width = 468;
},
{
anchors = (
{
name = _center;
pos = (434,9);
},
{
name = bottom;
pos = (277,0);
},
{
name = top;
pos = (277,510);
}
);
layerId = "0D76174C-E7DB-4B5D-B958-B4B8505ED925";
shapes = (
{
closed = 1;
nodes = (
(399,-207,o),
(466,-117,o),
(466,-23,cs),
(466,504,l),
(358,504,l),
(358,476,l),
(333,499,o),
(288,515,o),
(243,515,cs),
(125,515,o),
(65,453,o),
(55,357,cs),
(52,331,o),
(51,309,o),
(51,287,cs),
(51,266,o),
(52,245,o),
(55,217,cs),
(65,120,o),
(126,58,o),
(235,58,cs),
(256,58,o),
(267,60,o),
(281,63,c),
(339,89,l),
(350,94,o),
(358,94,o),
(358,80,cs),
(358,-31,ls),
(358,-87,o),
(315,-116,o),
(248,-116,cs),
(188,-116,o),
(156,-108,o),
(113,-81,c),
(85,-164,l),
(140,-196,o),
(183,-207,o),
(253,-207,cs)
);
},
{
closed = 1;
nodes = (
(567,-63,l),
(567,16,l),
(218,16,l),
(218,-63,l)
);
},
{
closed = 1;
nodes = (
(194,148,o),
(167,186,o),
(161,236,cs),
(157,273,o),
(157,304,o),
(161,336,cs),
(167,386,o),
(195,423,o),
(261,423,cs),
(325,423,o),
(358,396,o),
(358,346,cs),
(358,218,ls),
(358,176,o),
(323,148,o),
(261,148,cs)
);
}
);
width = 554.4;
},
{
anchors = (
{
name = _center;
pos = (434,9);
},
{
name = bottom;
pos = (277,0);
},
{
name = top;
pos = (277,510);
}
);
layerId = "69BA87E8-A4A5-4412-BDDB-89C34BF38660";
shapes = (
{
closed = 1;
nodes = (
(457,-231,o),
(533,-126,o),
(533,-25,cs),
(533,517,l),
(336,517,l),
(336,481,l),
(313,504,o),
(274,530,o),
(212,530,cs),
(116,530,o),
(48,459,o),
(41,371,cs),
(36,328,o),
(35,306,o),
(35,284,cs),
(35,257,o),
(36,244,o),
(39,219,cs),
(50,113,o),
(114,70,o),
(200,70,cs),
(213,70,o),
(231,70,o),
(240,70,c),
(317,91,l),
(328,97,o),
(338,92,o),
(338,84,cs),
(338,18,ls),
(338,-45,o),
(311,-81,o),
(249,-81,cs),
(201,-81,o),
(165,-69,o),
(116,-47,c),
(63,-185,l),
(143,-222,o),
(200,-231,o),
(249,-231,cs)
);
},
{
closed = 1;
nodes = (
(587,-49,l),
(587,45,l),
(211,45,l),
(211,-49,l)
);
},
{
closed = 1;
nodes = (
(243,226,o),
(228,244,o),
(224,268,cs),
(220,293,o),
(219,309,o),
(225,331,cs),
(229,345,o),
(245,363,o),
(280,363,cs),
(321,363,o),
(338,351,o),
(338,329,cs),
(338,268,ls),
(338,237,o),
(317,226,o),
(280,226,cs)
);
}
);
width = 650.66667;
}
);
unicode = 485;
},
{
glyphname = h;
kernLeft = KO_h;
kernRight = KO_n;
lastChange = "2025-01-20 07:45:44 +0000";
layers = (
{
anchors = (
{
name = bottom;
pos = (237,0);
},
{
name = bottomright;
pos = (401,0);
},
{
name = center;
pos = (99,608);
},
{
name = top;
pos = (240,675);
}
);
layerId = "5997FD7B-85B3-4973-BC7D-5D24E7B00D9D";
shapes = (
{
closed = 1;
nodes = (
(109,0,l),
(109,375,ls),
(109,427,o),
(162,482,o),
(240,482,cs),
(341,482,o),
(377,422,o),
(377,364,cs),
(377,0,l),
(401,0,l),
(401,366,ls),
(401,438,o),
(355,504,o),
(244,504,cs),
(164,504,o),
(122,459,o),
(109,432,c),
(109,750,l),
(85,750,l),
(85,0,l)
);
}
);
width = 481;
},
{
anchors = (
{
name = bottom;
pos = (272,0);
},
{
name = bottomright;
pos = (475,0);
},
{
name = center;
pos = (130,632);
},
{
name = top;
pos = (274,682);
}
);
layerId = "0D76174C-E7DB-4B5D-B958-B4B8505ED925";
shapes = (
{
closed = 1;
nodes = (
(183,0,l),
(183,331,ls),
(183,387,o),
(215,419,o),
(279,419,cs),
(340,419,o),
(367,387,o),
(367,331,cs),
(367,0,l),
(475,0,l),
(475,361,ls),
(475,458,o),
(404,516,o),
(309,516,cs),
(256,516,o),
(213,499,o),
(183,479,c),
(183,750,l),
(77,750,l),
(77,0,l)
);
}
);
width = 549;
},
{
anchors = (
{
name = bottom;
pos = (298,0);
},
{
name = bottomright;
pos = (528,0);
},
{
name = center;
pos = (152,633);
},
{
name = top;
pos = (289,720);
}
);
layerId = "69BA87E8-A4A5-4412-BDDB-89C34BF38660";
shapes = (
{
closed = 1;
nodes = (
(236,0,l),
(236,301,ls),
(236,342,o),
(249,360,o),
(284,360,cs),
(319,360,o),
(332,342,o),
(332,301,cs),
(332,0,l),
(528,0,l),
(528,372,ls),
(528,489,o),
(434,529,o),
(369,529,cs),
(312,529,o),
(275,513,o),
(236,482,c),
(236,750,l),
(40,750,l),
(40,0,l)
);
}
);
width = 563;
}
);
metricRight = n;
unicode = 104;
userData = {
KernOnName = h;
com.schriftgestaltung.Glyphs.ColorIndex = 3;
com.schriftgestaltung.Glyphs.layer.leftMetricsKey = "==n";
com.schriftgestaltung.Glyphs.layer.rightMetricsKey = "==n";
com.schriftgestaltung.Glyphs.leftMetricsKey = n;
com.schriftgestaltung.Glyphs.rightMetricsKey = n;
};
},
{
glyphname = hbar;
kernRight = KO_hbar;
lastChange = "2026-03-11 15:22:44 +0000";
layers = (
{
anchors = (
{
name = bottom;
pos = (285,0);
},
{
name = center;
pos = (147,608);
},
{
name = top;
pos = (288,675);
}
);
layerId = "5997FD7B-85B3-4973-BC7D-5D24E7B00D9D";
shapes = (
{
closed = 1;
nodes = (
(157,0,l),
(157,375,ls),
(157,427,o),
(210,482,o),
(288,482,cs),
(389,482,o),
(425,422,o),
(425,364,cs),
(425,0,l),
(449,0,l),
(449,366,ls),
(449,438,o),
(403,504,o),
(292,504,cs),
(212,504,o),
(170,459,o),
(157,432,c),
(157,597,l),
(272,597,l),
(272,619,l),
(157,619,l),
(157,750,l),
(133,750,l),
(133,619,l),
(20,619,l),
(20,597,l),
(133,597,l),
(133,0,l)
);
}
);
width = 529;
},
{
anchors = (
{
name = bottom;
pos = (321,0);
},
{
name = center;
pos = (179,632);
},
{
name = top;
pos = (323,682);
}
);
layerId = "0D76174C-E7DB-4B5D-B958-B4B8505ED925";
shapes = (
{
closed = 1;
nodes = (
(232,0,l),
(232,331,ls),
(232,387,o),
(264,419,o),
(328,419,cs),
(389,419,o),
(416,387,o),
(416,331,cs),
(416,0,l),
(524,0,l),
(524,361,ls),
(524,458,o),
(453,516,o),
(358,516,cs),
(305,516,o),
(262,499,o),
(232,479,c),
(232,587,l),
(334,587,l),
(334,677,l),
(232,677,l),
(232,750,l),
(126,750,l),
(126,677,l),
(23,677,l),
(23,587,l),
(126,587,l),
(126,0,l)
);
}
);
width = 598;
},
{
anchors = (
{
name = bottom;
pos = (357,0);
},
{
name = center;
pos = (211,633);
},
{
name = top;
pos = (348,720);
}
);
layerId = "69BA87E8-A4A5-4412-BDDB-89C34BF38660";
shapes = (
{
closed = 1;
nodes = (
(295,0,l),
(295,301,ls),
(295,342,o),
(308,360,o),
(343,360,cs),
(378,360,o),
(391,342,o),
(391,301,cs),
(391,0,l),
(587,0,l),
(587,372,ls),
(587,489,o),
(493,529,o),
(428,529,cs),
(371,529,o),
(334,513,o),
(295,482,c),
(295,551,l),
(393,551,l),
(393,705,l),
(295,705,l),
(295,750,l),
(99,750,l),
(99,705,l),
(20,705,l),
(20,551,l),
(99,551,l),
(99,0,l)
);
}
);
width = 622;
}
);
metricLeft = t;
metricRight = h;
unicode = 295;
},
{
glyphname = idotless;
kernLeft = KO_i;
kernRight = "KO_en-cy";
lastChange = "2025-01-20 07:45:44 +0000";
layers = (
{
anchors = (
{
name = bottom;
pos = (99,0);
},
{
name = center;
pos = (111,237);
},
{
name = ogonek;
pos = (122,0);
},
{
name = top;
pos = (110,492);
}
);
layerId = "5997FD7B-85B3-4973-BC7D-5D24E7B00D9D";
shapes = (
{
closed = 1;
nodes = (
(122,0,l),
(122,492,l),
(44,492,l),
(44,470,l),
(98,470,l),
(98,0,l)
);
}
);
width = 207;
},
{
anchors = (
{
name = bottom;
pos = (153,0);
},
{
name = center;
pos = (169,237);
},
{
name = ogonek;
pos = (224,0);
},
{
name = top;
pos = (170,504);
}
);
layerId = "0D76174C-E7DB-4B5D-B958-B4B8505ED925";
shapes = (
{
closed = 1;
nodes = (
(224,0,l),
(224,504,l),
(38,504,l),
(38,412,l),
(116,412,l),
(116,0,l)
);
}
);
width = 301;
},
{
anchors = (
{
name = bottom;
pos = (178,0);
},
{
name = center;
pos = (185,237);
},
{
name = ogonek;
pos = (289,0);
},
{
name = top;
pos = (190,517);
}
);
layerId = "69BA87E8-A4A5-4412-BDDB-89C34BF38660";
shapes = (
{
closed = 1;
nodes = (
(289,0,l),
(289,517,l),
(20,517,l),
(20,357,l),
(93,357,l),
(93,0,l)
);
}
);
width = 329;
}
);
metricRight = "=|n";
unicode = 305;
userData = {
KernOnName = idotless;
};
},
{
color = 9;
glyphname = idotless.ss01;
lastChange = "2025-01-19 15:33:47 +0000";
layers = (
{
anchors = (
{
name = bottom;
pos = (97,0);
},
{
name = center;
pos = (98,237);
},
{
name = ogonek;
pos = (109,0);
},
{
name = top;
pos = (97,492);
}
);
layerId = "5997FD7B-85B3-4973-BC7D-5D24E7B00D9D";
shapes = (
{
closed = 1;
nodes = (
(109,0,l),
(109,492,l),
(85,492,l),
(85,0,l)
);
}
);
width = 194;
},
{
anchors = (
{
name = bottom;
pos = (131,0);
},
{
name = center;
pos = (131,237);
},
{
name = ogonek;
pos = (185,0);
},
{
name = top;
pos = (131,504);
}
);
layerId = "0D76174C-E7DB-4B5D-B958-B4B8505ED925";
shapes = (
{
closed = 1;
nodes = (
(185,0,l),
(185,504,l),
(77,504,l),
(77,0,l)
);
}
);
width = 262;
},
{
anchors = (
{
name = bottom;
pos = (138,0);
},
{
name = center;
pos = (135,237);
},
{
name = ogonek;
pos = (236,0);
},
{
name = top;
pos = (138,517);
}
);
layerId = "69BA87E8-A4A5-4412-BDDB-89C34BF38660";
shapes = (
{
closed = 1;
nodes = (
(236,0,l),
(236,517,l),
(40,517,l),
(40,0,l)
);
}
);
width = 276;
}
);
},
{
color = 9;
glyphname = icaron.ss01;
lastChange = "2026-02-13 12:04:12 +0000";
layers = (
{
anchors = (
{
name = bottom;
pos = (97,0);
},
{
name = center;
pos = (98,237);
},
{
name = ogonek;
pos = (109,0);
},
{
name = top;
pos = (97,655);
}
);
layerId = "5997FD7B-85B3-4973-BC7D-5D24E7B00D9D";
shapes = (
{
closed = 1;
nodes = (
(109,0,l),
(109,492,l),
(85,492,l),
(85,0,l)
);
},
{
closed = 1;
nodes = (
(108,612,l),
(200,750,l),
(174,750,l),
(114,657,l),
(102,634,ls),
(98,627,o),
(92,627,o),
(88,634,cs),
(76,657,l),
(16,750,l),
(-10,750,l),
(82,612,l)
);
}
);
width = 194;
},
{
anchors = (
{
name = bottom;
pos = (131,0);
},
{
name = center;
pos = (131,237);
},
{
name = ogonek;
pos = (185,0);
},
{
name = top;
pos = (131,720);
}
);
layerId = "0D76174C-E7DB-4B5D-B958-B4B8505ED925";
shapes = (
{
closed = 1;
nodes = (
(185,0,l),
(185,504,l),
(77,504,l),
(77,0,l)
);
},
{
closed = 1;
nodes = (
(183,591,l),
(276,750,l),
(183,750,l),
(147,687,l),
(136,653,ls),
(133,644,o),
(127,644,o),
(124,653,cs),
(114,687,l),
(78,750,l),
(-15,750,l),
(78,591,l)
);
}
);
width = 262;
},
{
anchors = (
{
name = bottom;
pos = (138,0);
},
{
name = center;
pos = (135,237);
},
{
name = ogonek;
pos = (236,0);
},
{
name = top;
pos = (138,750);
}
);
layerId = "69BA87E8-A4A5-4412-BDDB-89C34BF38660";
shapes = (
{
closed = 1;
nodes = (
(236,0,l),
(236,517,l),
(40,517,l),
(40,0,l)
);
},
{
closed = 1;
nodes = (
(239,563,l),
(325,750,l),
(175,750,l),
(152,701,l),
(143,667,ls),
(141,658,o),
(134,658,o),
(131,667,cs),
(121,701,l),
(102,750,l),
(-48,750,l),
(39,563,l)
);
}
);
width = 276;
}
);
},
{
color = 9;
glyphname = idieresis.ss01;
lastChange = "2025-01-19 15:33:47 +0000";
layers = (
{
anchors = (
{
name = bottom;
pos = (97,0);
},
{
name = center;
pos = (98,237);
},
{
name = ogonek;
pos = (109,0);
},
{
name = top;
pos = (97,492);
}
);
layerId = "5997FD7B-85B3-4973-BC7D-5D24E7B00D9D";
shapes = (
{
closed = 1;
nodes = (
(109,0,l),
(109,492,l),
(85,492,l),
(85,0,l)
);
},
{
closed = 1;
nodes = (
(158,612,l),
(158,700,l),
(134,700,l),
(134,612,l)
);
},
{
closed = 1;
nodes = (
(59,612,l),
(59,700,l),
(35,700,l),
(35,612,l)
);
}
);
width = 194;
},
{
anchors = (
{
name = bottom;
pos = (131,0);
},
{
name = center;
pos = (131,237);
},
{
name = ogonek;
pos = (185,0);
},
{
name = top;
pos = (131,504);
}
);
layerId = "0D76174C-E7DB-4B5D-B958-B4B8505ED925";
shapes = (
{
closed = 1;
nodes = (
(185,0,l),
(185,504,l),
(77,504,l),
(77,0,l)
);
},
{
closed = 1;
nodes = (
(263,592,l),
(263,700,l),
(171,700,l),
(171,592,l)
);
},
{
closed = 1;
nodes = (
(89,592,l),
(89,700,l),
(-3,700,l),
(-3,592,l)
);
}
);
width = 262;
},
{
anchors = (
{
name = bottom;
pos = (138,0);
},
{
name = center;
pos = (135,237);
},
{
name = ogonek;
pos = (236,0);
},
{
name = top;
pos = (138,517);
}
);
layerId = "69BA87E8-A4A5-4412-BDDB-89C34BF38660";
shapes = (
{
closed = 1;
nodes = (
(236,0,l),
(236,517,l),
(40,517,l),
(40,0,l)
);
},
{
closed = 1;
nodes = (
(292,567,l),
(292,700,l),
(153,700,l),
(153,567,l)
);
},
{
closed = 1;
nodes = (
(103,567,l),
(103,700,l),
(-36,700,l),
(-36,567,l)
);
}
);
width = 266;
}
);
},
{
glyphname = idotbelow;
kernLeft = KO_i;
kernRight = KO_i;
lastChange = "2026-02-06 09:32:41 +0000";
layers = (
{
anchors = (
{
name = bottom;
pos = (115,-173);
},
{
name = center;
pos = (111,237);
},
{
name = ogonek;
pos = (122,0);
},
{
name = top;
pos = (110,655);
}
);
layerId = "5997FD7B-85B3-4973-BC7D-5D24E7B00D9D";
shapes = (
{
closed = 1;
nodes = (
(122,612,l),
(122,700,l),
(98,700,l),
(98,612,l)
);
},
{
closed = 1;
nodes = (
(127,-173,l),
(127,-85,l),
(103,-85,l),
(103,-173,l)
);
},
{
ref = idotless;
}
);
width = 207;
},
{
anchors = (
{
name = bottom;
pos = (168,-193);
},
{
name = center;
pos = (169,237);
},
{
name = ogonek;
pos = (224,0);
},
{
name = top;
pos = (170,700);
}
);
layerId = "0D76174C-E7DB-4B5D-B958-B4B8505ED925";
shapes = (
{
closed = 1;
nodes = (
(224,592,l),
(224,700,l),
(116,700,l),
(116,592,l)
);
},
{
closed = 1;
nodes = (
(222,-193,l),
(222,-85,l),
(114,-85,l),
(114,-193,l)
);
},
{
ref = idotless;
}
);
width = 301;
},
{
anchors = (
{
name = bottom;
pos = (192,-196);
},
{
name = center;
pos = (185,237);
},
{
name = ogonek;
pos = (289,0);
},
{
name = top;
pos = (190,700);
}
);
layerId = "69BA87E8-A4A5-4412-BDDB-89C34BF38660";
shapes = (
{
closed = 1;
nodes = (
(289,567,l),
(289,700,l),
(92,700,l),
(92,567,l)
);
},
{
closed = 1;
nodes = (
(290,-196,l),
(290,-63,l),
(93,-63,l),
(93,-196,l)
);
},
{
ref = idotless;
}
);
width = 329;
}
);
unicode = 7883;
},
{
color = 9;
glyphname = idotbelow.ss01;
kernLeft = KO_i.ss01;
lastChange = "2026-02-13 12:03:35 +0000";
layers = (
{
anchors = (
{
name = bottom;
pos = (97,-173);
},
{
name = center;
pos = (98,237);
},
{
name = ogonek;
pos = (109,0);
},
{
name = top;
pos = (97,655);
}
);
layerId = "5997FD7B-85B3-4973-BC7D-5D24E7B00D9D";
shapes = (
{
closed = 1;
nodes = (
(109,612,l),
(109,700,l),
(85,700,l),
(85,612,l)
);
},
{
closed = 1;
nodes = (
(109,-173,l),
(109,-85,l),
(85,-85,l),
(85,-173,l)
);
},
{
ref = idotless.ss01;
}
);
width = 194;
},
{
anchors = (
{
name = bottom;
pos = (131,-193);
},
{
name = center;
pos = (131,237);
},
{
name = ogonek;
pos = (185,0);
},
{
name = top;
pos = (131,700);
}
);
layerId = "0D76174C-E7DB-4B5D-B958-B4B8505ED925";
shapes = (
{
closed = 1;
nodes = (
(185,592,l),
(185,700,l),
(77,700,l),
(77,592,l)
);
},
{
closed = 1;
nodes = (
(185,-193,l),
(185,-85,l),
(77,-85,l),
(77,-193,l)
);
},
{
ref = idotless.ss01;
}
);
width = 262;
},
{
anchors = (
{
name = bottom;
pos = (138,-196);
},
{
name = center;
pos = (135,237);
},
{
name = ogonek;
pos = (236,0);
},
{
name = top;
pos = (138,700);
}
);
layerId = "69BA87E8-A4A5-4412-BDDB-89C34BF38660";
shapes = (
{
closed = 1;
nodes = (
(237,567,l),
(237,700,l),
(40,700,l),
(40,567,l)
);
},
{
closed = 1;
nodes = (
(236,-196,l),
(236,-63,l),
(39,-63,l),
(39,-196,l)
);
},
{
ref = idotless.ss01;
}
);
width = 276;
}
);
},
{
glyphname = ij;
kernLeft = KO_i;
lastChange = "2026-02-06 09:21:36 +0000";
layers = (
{
anchors = (
{
name = bottom;
pos = (311,-250);
},
{
name = center;
pos = (111,237);
},
{
name = ogonek;
pos = (122,0);
},
{
name = top;
pos = (310,655);
}
);
layerId = "5997FD7B-85B3-4973-BC7D-5D24E7B00D9D";
shapes = (
{
closed = 1;
nodes = (
(122,0,l),
(122,492,l),
(44,492,l),
(44,470,l),
(98,470,l),
(98,0,l)
);
},
{
closed = 1;
nodes = (
(122,612,l),
(122,700,l),
(98,700,l),
(98,612,l)
);
},
{
closed = 1;
nodes = (
(296,-176,o),
(322,-115,o),
(322,1,cs),
(322,492,l),
(244,492,l),
(244,470,l),
(298,470,l),
(298,1,ls),
(298,-105,o),
(276,-161,o),
(207,-197,c),
(219,-215,l)
);
},
{
closed = 1;
nodes = (
(322,612,l),
(322,700,l),
(298,700,l),
(298,612,l)
);
}
);
width = 407;
},
{
anchors = (
{
name = bottom;
pos = (446,-250);
},
{
name = center;
pos = (169,237);
},
{
name = ogonek;
pos = (224,0);
},
{
name = top;
pos = (466,700);
}
);
layerId = "0D76174C-E7DB-4B5D-B958-B4B8505ED925";
shapes = (
{
closed = 1;
nodes = (
(224,0,l),
(224,504,l),
(38,504,l),
(38,412,l),
(116,412,l),
(116,0,l)
);
},
{
closed = 1;
nodes = (
(224,592,l),
(224,700,l),
(116,700,l),
(116,592,l)
);
},
{
closed = 1;
nodes = (
(441,-199,o),
(519,-132,o),
(519,9,cs),
(520,504,l),
(333,504,l),
(333,414,l),
(411,414,l),
(411,6,ls),
(411,-70,o),
(374,-113,o),
(317,-129,c),
(347,-222,l)
);
},
{
closed = 1;
nodes = (
(520,592,l),
(520,700,l),
(412,700,l),
(412,592,l)
);
}
);
width = 597;
},
{
anchors = (
{
name = bottom;
pos = (505,-250);
},
{
name = center;
pos = (185,237);
},
{
name = ogonek;
pos = (289,0);
},
{
name = top;
pos = (540,700);
}
);
layerId = "69BA87E8-A4A5-4412-BDDB-89C34BF38660";
shapes = (
{
closed = 1;
nodes = (
(289,0,l),
(289,517,l),
(20,517,l),
(20,357,l),
(93,357,l),
(93,0,l)
);
},
{
closed = 1;
nodes = (
(289,567,l),
(289,700,l),
(92,700,l),
(92,567,l)
);
},
{
closed = 1;
nodes = (
(490,-222,o),
(639,-164,o),
(639,28,cs),
(638,517,l),
(349,517,l),
(349,358,l),
(442,358,l),
(442,28,ls),
(442,-16,o),
(402,-43,o),
(341,-49,c),
(384,-222,l)
);
},
{
closed = 1;
nodes = (
(639,567,l),
(639,700,l),
(442,700,l),
(442,567,l)
);
}
);
width = 679;
}
);
unicode = 307;
},
{
color = 9;
glyphname = ij.ss01;
kernLeft = KO_i.ss01;
kernRight = KO_i;
lastChange = "2026-02-06 12:38:39 +0000";
layers = (
{
anchors = (
{
name = bottom;
pos = (291,-250);
},
{
name = center;
pos = (98,237);
},
{
name = ogonek;
pos = (109,0);
},
{
name = top;
pos = (291,655);
}
);
layerId = "5997FD7B-85B3-4973-BC7D-5D24E7B00D9D";
shapes = (
{
closed = 1;
nodes = (
(109,0,l),
(109,492,l),
(85,492,l),
(85,0,l)
);
},
{
closed = 1;
nodes = (
(109,612,l),
(109,700,l),
(85,700,l),
(85,612,l)
);
},
{
closed = 1;
nodes = (
(277,-176,o),
(302,-115,o),
(303,1,cs),
(303,492,l),
(279,492,l),
(279,1,l),
(279,-105,o),
(257,-161,o),
(188,-197,c),
(200,-215,l)
);
},
{
closed = 1;
nodes = (
(303,612,l),
(303,700,l),
(279,700,l),
(279,612,l)
);
}
);
width = 388;
},
{
anchors = (
{
name = bottom;
pos = (395,-250);
},
{
name = center;
pos = (131,237);
},
{
name = ogonek;
pos = (185,0);
},
{
name = top;
pos = (395,700);
}
);
layerId = "0D76174C-E7DB-4B5D-B958-B4B8505ED925";
shapes = (
{
closed = 1;
nodes = (
(185,0,l),
(185,504,l),
(77,504,l),
(77,0,l)
);
},
{
closed = 1;
nodes = (
(185,592,l),
(185,700,l),
(77,700,l),
(77,592,l)
);
},
{
closed = 1;
nodes = (
(370,-199,o),
(448,-132,o),
(448,9,cs),
(449,504,l),
(340,504,l),
(340,6,ls),
(340,-70,o),
(303,-113,o),
(246,-129,c),
(276,-222,l)
);
},
{
closed = 1;
nodes = (
(449,592,l),
(449,700,l),
(341,700,l),
(341,592,l)
);
}
);
width = 526;
},
{
anchors = (
{
name = bottom;
pos = (413,-250);
},
{
name = center;
pos = (135,237);
},
{
name = ogonek;
pos = (236,0);
},
{
name = top;
pos = (413,700);
}
);
layerId = "69BA87E8-A4A5-4412-BDDB-89C34BF38660";
shapes = (
{
closed = 1;
nodes = (
(236,0,l),
(236,517,l),
(40,517,l),
(40,0,l)
);
},
{
closed = 1;
nodes = (
(237,567,l),
(237,700,l),
(40,700,l),
(40,567,l)
);
},
{
closed = 1;
nodes = (
(386,-222,o),
(512,-164,o),
(512,28,cs),
(511,517,l),
(315,517,l),
(315,28,l),
(315,-16,o),
(291,-43,o),
(254,-49,c),
(297,-222,l)
);
},
{
closed = 1;
nodes = (
(512,567,l),
(512,700,l),
(315,700,l),
(315,567,l)
);
}
);
width = 552;
}
);
},
{
glyphname = jdotless;
lastChange = "2025-01-19 17:48:57 +0000";
layers = (
{
anchors = (
{
name = bottom;
pos = (117,-250);
},
{
name = top;
pos = (116,492);
}
);
background = {
shapes = (
{
ref = idotless;
}
);
};
layerId = "5997FD7B-85B3-4973-BC7D-5D24E7B00D9D";
shapes = (
{
closed = 1;
nodes = (
(102,-176,o),
(128,-115,o),
(128,1,cs),
(128,492,l),
(50,492,l),
(50,470,l),
(104,470,l),
(104,1,ls),
(104,-105,o),
(82,-161,o),
(13,-197,c),
(25,-215,l)
);
}
);
width = 213;
},
{
anchors = (
{
name = bottom;
pos = (151,-250);
},
{
name = top;
pos = (171,504);
}
);
background = {
shapes = (
{
ref = idotless;
}
);
};
layerId = "0D76174C-E7DB-4B5D-B958-B4B8505ED925";
shapes = (
{
closed = 1;
nodes = (
(146,-199,o),
(224,-132,o),
(224,9,cs),
(225,504,l),
(38,504,l),
(38,414,l),
(116,414,l),
(116,6,ls),
(116,-70,o),
(79,-113,o),
(22,-129,c),
(52,-222,l)
);
}
);
width = 301.6;
},
{
anchors = (
{
name = bottom;
pos = (176,-250);
},
{
name = top;
pos = (211,517);
}
);
background = {
shapes = (
{
ref = idotless;
}
);
};
layerId = "69BA87E8-A4A5-4412-BDDB-89C34BF38660";
shapes = (
{
closed = 1;
nodes = (
(161,-222,o),
(310,-164,o),
(310,28,cs),
(309,517,l),
(20,517,l),
(20,358,l),
(113,358,l),
(113,28,ls),
(113,-16,o),
(73,-43,o),
(12,-49,c),
(55,-222,l)
);
}
);
width = 350;
}
);
metricRight = idotless;
unicode = 567;
},
{
color = 9;
glyphname = jdotless.ss01;
lastChange = "2025-01-19 15:33:47 +0000";
layers = (
{
anchors = (
{
name = bottom;
pos = (97,-250);
},
{
name = top;
pos = (97,492);
}
);
background = {
shapes = (
{
ref = idotless.ss01;
}
);
};
layerId = "5997FD7B-85B3-4973-BC7D-5D24E7B00D9D";
shapes = (
{
closed = 1;
nodes = (
(83,-176,o),
(108,-115,o),
(109,1,cs),
(109,492,l),
(85,492,l),
(85,1,l),
(85,-105,o),
(63,-161,o),
(-6,-197,c),
(6,-215,l)
);
}
);
width = 194;
},
{
anchors = (
{
name = bottom;
pos = (131,-250);
},
{
name = top;
pos = (131,504);
}
);
background = {
shapes = (
{
ref = idotless.ss01;
}
);
};
layerId = "0D76174C-E7DB-4B5D-B958-B4B8505ED925";
shapes = (
{
closed = 1;
nodes = (
(106,-199,o),
(184,-132,o),
(184,9,cs),
(185,504,l),
(76,504,l),
(76,6,ls),
(76,-70,o),
(39,-113,o),
(-18,-129,c),
(12,-222,l)
);
}
);
width = 262;
},
{
anchors = (
{
name = bottom;
pos = (133,-250);
},
{
name = top;
pos = (133,517);
}
);
background = {
shapes = (
{
ref = idotless.ss01;
}
);
};
layerId = "69BA87E8-A4A5-4412-BDDB-89C34BF38660";
shapes = (
{
closed = 1;
nodes = (
(106,-222,o),
(232,-164,o),
(232,28,cs),
(231,517,l),
(35,517,l),
(35,28,l),
(35,-16,o),
(11,-43,o),
(-26,-49,c),
(17,-222,l)
);
}
);
width = 272;
}
);
},
{
glyphname = k;
kernLeft = KO_h;
kernRight = KO_k;
lastChange = "2025-01-20 07:45:44 +0000";
layers = (
{
anchors = (
{
name = bottom;
pos = (205,0);
},
{
name = center;
pos = (99,608);
},
{
name = top;
pos = (204,675);
}
);
background = {
anchors = (
{
name = bottom;
pos = (223,0);
},
{
name = top;
pos = (242,670);
}
);
shapes = (
{
closed = 1;
nodes = (
(116,0,l),
(116,252,l),
(207,252,l),
(354,0,l),
(386,0,l),
(215,280,l),
(383,491,l),
(352,491,l),
(189,274,l),
(116,274,l),
(116,750,l),
(85,750,l),
(85,0,l)
);
}
);
};
layerId = "5997FD7B-85B3-4973-BC7D-5D24E7B00D9D";
shapes = (
{
closed = 1;
nodes = (
(109,0,l),
(109,254,l),
(220,254,l),
(369,0,l),
(397,0,l),
(241,267,l),
(388,492,l),
(359,492,l),
(220,278,l),
(109,278,l),
(109,750,l),
(85,750,l),
(85,0,l)
);
}
);
width = 424;
},
{
anchors = (
{
name = bottom;
pos = (248,0);
},
{
name = center;
pos = (130,632);
},
{
name = top;
pos = (277,682);
}
);
layerId = "0D76174C-E7DB-4B5D-B958-B4B8505ED925";
shapes = (
{
closed = 1;
nodes = (
(185,0,l),
(185,233,l),
(240,233,l),
(351,0,l),
(469,0,l),
(326,287,l),
(465,504,l),
(345,504,l),
(234,327,l),
(185,327,l),
(185,750,l),
(77,750,l),
(77,0,l)
);
}
);
width = 495.4;
},
{
anchors = (
{
name = bottom;
pos = (285,0);
},
{
name = center;
pos = (152,633);
},
{
name = top;
pos = (344,720);
}
);
layerId = "69BA87E8-A4A5-4412-BDDB-89C34BF38660";
shapes = (
{
closed = 1;
nodes = (
(238,0,l),
(238,207,l),
(265,207,l),
(350,0,l),
(565,0,l),
(424,285,l),
(563,517,l),
(348,517,l),
(266,367,l),
(238,367,l),
(238,750,l),
(40,750,l),
(40,0,l)
);
}
);
width = 562;
}
);
metricLeft = h;
unicode = 107;
userData = {
KernOnName = k;
com.schriftgestaltung.Glyphs.ColorIndex = 3;
com.schriftgestaltung.Glyphs.layer.leftMetricsKey = "==n";
com.schriftgestaltung.Glyphs.leftMetricsKey = n;
};
},
{
glyphname = kgreenlandic;
lastChange = "2025-01-19 17:48:57 +0000";
layers = (
{
anchors = (
{
name = bottom;
pos = (212,0);
},
{
name = top;
pos = (212,492);
}
);
layerId = "5997FD7B-85B3-4973-BC7D-5D24E7B00D9D";
shapes = (
{
closed = 1;
nodes = (
(109,0,l),
(109,254,l),
(220,254,l),
(369,0,l),
(397,0,l),
(241,267,l),
(388,492,l),
(359,492,l),
(220,278,l),
(109,278,l),
(109,492,l),
(85,492,l),
(85,0,l)
);
}
);
width = 424;
},
{
anchors = (
{
name = bottom;
pos = (248,0);
},
{
name = top;
pos = (248,504);
}
);
layerId = "0D76174C-E7DB-4B5D-B958-B4B8505ED925";
shapes = (
{
closed = 1;
nodes = (
(185,0,l),
(185,233,l),
(240,233,l),
(351,0,l),
(469,0,l),
(326,287,l),
(465,504,l),
(345,504,l),
(234,327,l),
(185,327,l),
(185,504,l),
(77,504,l),
(77,0,l)
);
}
);
width = 495.4;
},
{
anchors = (
{
name = bottom;
pos = (284,0);
},
{
name = top;
pos = (284,517);
}
);
layerId = "69BA87E8-A4A5-4412-BDDB-89C34BF38660";
shapes = (
{
closed = 1;
nodes = (
(238,0,l),
(238,207,l),
(265,207,l),
(350,0,l),
(565,0,l),
(424,285,l),
(563,517,l),
(348,517,l),
(266,367,l),
(238,367,l),
(238,517,l),
(40,517,l),
(40,0,l)
);
}
);
width = 562;
}
);
metricLeft = n;
metricRight = k;
unicode = 312;
},
{
glyphname = l;
kernLeft = KO_l;
kernRight = KO_l;
lastChange = "2025-01-20 07:45:44 +0000";
layers = (
{
anchors = (
{
name = bottom;
pos = (148,0);
},
{
name = center;
pos = (108,446);
},
{
name = top;
pos = (99,675);
},
{
name = topright;
pos = (205,750);
}
);
layerId = "5997FD7B-85B3-4973-BC7D-5D24E7B00D9D";
shapes = (
{
closed = 1;
nodes = (
(191,0,l),
(191,22,l),
(161,22,ls),
(130,22,o),
(109,43,o),
(109,74,cs),
(109,750,l),
(85,750,l),
(85,74,ls),
(85,29,o),
(116,0,o),
(161,0,cs)
);
}
);
width = 231;
},
{
anchors = (
{
name = bottom;
pos = (175,0);
},
{
name = center;
pos = (145,416);
},
{
name = top;
pos = (134,682);
},
{
name = topright;
pos = (268,750);
}
);
layerId = "0D76174C-E7DB-4B5D-B958-B4B8505ED925";
shapes = (
{
closed = 1;
nodes = (
(256,0,l),
(256,94,l),
(210,94,ls),
(194,94,o),
(183,106,o),
(183,123,cs),
(183,750,l),
(77,750,l),
(77,113,ls),
(77,45,o),
(124,0,o),
(193,0,cs)
);
}
);
width = 287.4;
},
{
anchors = (
{
name = bottom;
pos = (176,0);
},
{
name = center;
pos = (156,458);
},
{
name = top;
pos = (142,720);
},
{
name = topright;
pos = (286,750);
}
);
layerId = "69BA87E8-A4A5-4412-BDDB-89C34BF38660";
shapes = (
{
closed = 1;
nodes = (
(302,2,l),
(302,170,l),
(252,170,ls),
(243,170,o),
(236,177,o),
(236,186,cs),
(236,750,l),
(40,750,l),
(40,128,ls),
(40,55,o),
(93,2,o),
(164,2,cs)
);
}
);
width = 331;
}
);
metricLeft = h;
unicode = 108;
userData = {
KernOnName = l;
com.schriftgestaltung.Glyphs.ColorIndex = 3;
com.schriftgestaltung.Glyphs.layer.leftMetricsKey = "==h";
com.schriftgestaltung.Glyphs.leftMetricsKey = n;
com.typemytype.robofont.layerData = {
background = {
anchors = (
{
name = bottom;
x = 108;
y = 0;
},
{
name = top;
x = 108;
y = 500;
},
{
name = topright;
x = 204;
y = 500;
},
{
name = center;
x = 148;
y = 250;
}
);
components = (
);
contours = (
{
points = (
{
segmentType = line;
smooth = 0;
x = 95;
y = 750;
},
{
segmentType = line;
smooth = 0;
x = 95;
y = 61;
},
{
segmentType = line;
smooth = 0;
x = 148;
y = -11;
},
{
segmentType = line;
smooth = 0;
x = 215;
y = 31;
},
{
segmentType = line;
smooth = 0;
x = 175;
y = 90;
},
{
segmentType = line;
smooth = 0;
x = 175;
y = 750;
}
);
}
);
lib = {
};
name = l;
unicodes = (
);
width = 275;
};
};
};
},
{
glyphname = lj;
lastChange = "2026-02-06 09:33:13 +0000";
layers = (
{
anchors = (
{
name = bottom;
pos = (322,-250);
},
{
name = center;
pos = (108,446);
},
{
name = top;
pos = (321,655);
},
{
name = topright;
pos = (205,750);
}
);
layerId = "5997FD7B-85B3-4973-BC7D-5D24E7B00D9D";
shapes = (
{
closed = 1;
nodes = (
(191,0,l),
(191,22,l),
(161,22,ls),
(130,22,o),
(109,43,o),
(109,74,cs),
(109,750,l),
(85,750,l),
(85,74,ls),
(85,29,o),
(116,0,o),
(161,0,cs)
);
},
{
closed = 1;
nodes = (
(307,-176,o),
(333,-115,o),
(333,1,cs),
(333,492,l),
(255,492,l),
(255,470,l),
(309,470,l),
(309,1,ls),
(309,-105,o),
(287,-161,o),
(218,-197,c),
(230,-215,l)
);
},
{
closed = 1;
nodes = (
(333,612,l),
(333,700,l),
(309,700,l),
(309,612,l)
);
}
);
width = 418;
},
{
anchors = (
{
name = bottom;
pos = (409,-250);
},
{
name = center;
pos = (145,416);
},
{
name = top;
pos = (429,700);
},
{
name = topright;
pos = (268,750);
}
);
layerId = "0D76174C-E7DB-4B5D-B958-B4B8505ED925";
shapes = (
{
closed = 1;
nodes = (
(256,0,l),
(256,94,l),
(210,94,ls),
(194,94,o),
(183,106,o),
(183,123,cs),
(183,750,l),
(77,750,l),
(77,113,ls),
(77,45,o),
(124,0,o),
(193,0,cs)
);
},
{
closed = 1;
nodes = (
(404,-199,o),
(482,-132,o),
(482,9,cs),
(483,504,l),
(296,504,l),
(296,414,l),
(374,414,l),
(374,6,ls),
(374,-70,o),
(337,-113,o),
(280,-129,c),
(310,-222,l)
);
},
{
closed = 1;
nodes = (
(483,592,l),
(483,700,l),
(375,700,l),
(375,592,l)
);
}
);
width = 560;
},
{
anchors = (
{
name = bottom;
pos = (476,-250);
},
{
name = center;
pos = (156,458);
},
{
name = top;
pos = (511,700);
},
{
name = topright;
pos = (286,750);
}
);
layerId = "69BA87E8-A4A5-4412-BDDB-89C34BF38660";
shapes = (
{
closed = 1;
nodes = (
(302,2,l),
(302,170,l),
(252,170,ls),
(243,170,o),
(236,177,o),
(236,186,cs),
(236,750,l),
(40,750,l),
(40,128,ls),
(40,55,o),
(93,2,o),
(164,2,cs)
);
},
{
closed = 1;
nodes = (
(461,-222,o),
(610,-164,o),
(610,28,cs),
(609,517,l),
(320,517,l),
(320,358,l),
(413,358,l),
(413,28,ls),
(413,-16,o),
(373,-43,o),
(312,-49,c),
(355,-222,l)
);
},
{
closed = 1;
nodes = (
(610,567,l),
(610,700,l),
(413,700,l),
(413,567,l)
);
}
);
width = 650;
}
);
unicode = 457;
},
